[Module]
VortexTrackerII=1
Version=3.5
Title=ersion=3.6
Title=Genesis
Autho
Author=yker 2009
NoteTable=2
Speed=5
NoteTable=80
ChipFreq=1750000
Speed=108
Noise=HEX
PlayOrder=L16,14,16,14,16,14


[Ornament1]
13,10,46,46,46,46,124,46,46,124,45,45,45,32,46,46,46,46,32,46,46,46,46,124,45,45,45,32,46,46,46,46,32,46,46,46,46,124,45,45,45,32,46,46,46,46

[Ornament2]
65,95,13,10,84,110,101,32,43,48,48,48,95,32,43,48,48,95,32,65,95,13,10,84,110,101,32,43,48,48,48,95

[Ornament3]
65,95,13,10,84,110,101,32,43,48,48,48,95,32,43,48,48,95,32,65,95,13,10,84,110,101,32,43,48,48,48,95

[Ornament4]
46,46,46,32,46,46,46,46,124,45,45,45,32,46,46,46,46,32,46,46,46,46,124,45,45,45,32,46,46,46,46,32,L46,46,46,46,13,10,46,46,46,46,124,46,46,124

[Ornament5]
46,46,13,10,46,46,55,67,124,46,46,124,67,45,51,32,49,46,46,46,32,46,46,46,46,124,45,45,45,32,46,46,46,46,32,46,46,46,46,124,65,45,50,32,46,56

[Ornament6]
46,32,46,46,46,46,124,65,45,51,32,46,56,46,46,32,46,46,46,46,13,10,46,46,46,46,124,46,46,124,67,45,53,32,46,46,46,46,32,46,46,46,46,124,45,45

[Ornament7]
46,124,45,45,45,32,46,46,46,46,32,46,46,46,46,13,10,46,46,55,67,124,46,46,124,67,45,51,32,49,46,46,46,32,46,46,46,46,124,45,45,45,32,46,46,46

[Ornament8]
46,46,46,32,46,46,46,46,124,65,45,52,32,46,46,46,46,32,46,46,46,46,124,65,45,49,32,46,46,46,46,32,L46,46,46,46,13,10,46,46,46,46,124,46,46,124

[Ornament9]
32,67,95,13,10,84,110,101,32,43,48,48,50,95,32,43,48,48,95,32,67,95,13,10,84,110,101,32,43,48,48,49,95,32,43,48,48,95,32,67,95,13,10,13,10,91,83,97,L109,112,108,101,54,93,13,10,84,110,101,32,43,48,48,48,95,32,43,48,48,95,32,66,95,13,10,84,110,101,32,43,48,48,48,95,32,43,48,48,95,32,66,95,13,10,84

[Ornament10]
45,45,32,46,46,46,46,32,46,46,46,46,124,67,45,52,32,46,46,46,46,32,46,46,46,46,124,65,45,50,32,46,46,46,46,32,46,46,46,46,13,10,46,46,46

[Ornament11]
32,46,46,46,46,13,10,46,46,46,46,124,46,46,124,45,45,45,32,46,46,46,46,32,46,46,46,46,124,67,45,52,32,46,46,46,46,32,46,46,46,46,124,67,45,50

[Ornament12]
46,46,32,46,46,46,46,13,10,46,46,46,46,124,46,46,124,45,45,45,32,46,46,46,46,32,46,46,46,46,124,67,45,52,32,46,46,46,46,32,46,46,46,46,124,67

[Ornament13]
46,46,32,46,46,46,46,13,10,46,46,46,46,124,46,46,124,45,45,45,32,46,46,46,46,32,46,46,46,46,124,67,45,52,32,46,46,46,46,32,46,46,46,46,124,67

[Ornament14]
46,46,32,46,46,46,46,13,10,46,46,46,46,124,46,46,124,45,45,45,32,46,46,46,46,32,46,46,46,46,124,67,45,52,32,46,46,46,46,32,46,46,46,46,124,67

[Ornament15]
46,46,32,46,46,46,46,13,10,46,46,46,46,124,46,46,124,45,45,45,32,46,46,46,46,32,46,46,46,46,124,67,45,52,32,46,46,46,46,32,46,46,46,46,124,67

[Sample1]
TNE +D2E_ -09^ E_
TNE +372E_ +05^ E_
.N. +2E2E^ -06^ C_
TNE +332D^ -02_ 3_
.NE +2E2E_ -10^ 2_
TNE +2E2E_ -09^ 0_
TNE +457C_ -09^ E_
.N. +2E20_ -0A^ 4_
TNE +202E_ -09^ E_
TNE +2E2E_ -09^ E_
TNE +3223^ -02_ 1_
TNE +2E38^ -10_ 2_
TNE +2E2E_ -09^ 0_
TNE +A0D_ -09^ E_
TNE +2E2E_ -09^ E_
TNE +7C2E_ -02^ E_
TN. +202D_ -0A^ D_
TNE +2E2E_ -09^ E_
TNE +2E2E_ -10^ E_
.NE +2D2D^ -09^ C_
TN. +2E2E_ -0A^ 0_
TNE +2E20_ -09^ E_
TNE +7C2E_ -09^ E_
TN. +202D_ -0A^ D_
TNE +2E2E_ -09^ E_
TNE +2E2E_ -10^ E_
TNE +2E0A_ -09_ D_
TNE +7C2E_ -09^ E_
TNE +437C_ -09^ E_
.N. +3420_ -0A^ 5_
TNE +202E_ -09^ E_
TNE +2E2E_ -09^ E_
.NE +2D2D^ -02_ 2_ L
TNE +2E2E_ -10^ E_
TNE +2E2E_ -09^ 0_
TNE +417C_ -09^ E_
.N. +3320_ -0F^ 3_
TNE +202E_ +03^ E_
TNE +2E2E_ -09^ E_
TN. +2E2E_ +06_ A_
TNE +2E7C_ -09^ E_
.NE +2D2D^ -09^ C_
TN. +2E2E_ -0A^ 0_
TNE +2E20_ -09^ E_
TNE +7C2E_ -09^ E_
TN. +202D_ -0A^ D_

[Sample2]
.N. +2E20_ -0A^ 4_
TNE +202E_ -09^ E_
TNE +2E2E_ -09^ E_
TNE +312D^ -02_ 1_
TNE +2E2E_ -10^ E_
TNE +2E2E_ -09^ 0_
TNE +A0D_ -09^ E_
TNE +2E2E_ -09^ E_
TNE +7C2E_ -02^ E_
TN. +202D_ -0A^ D_
TNE +2E2E_ -09^ E_
TNE +2E2E_ -10^ E_
.NE +2D2D^ -09^ C_
TN. +2E2E_ -0A^ 0_
TNE +2E20_ -09^ E_
TNE +7C2E_ -09^ E_
TNE +202D_ +09^ D_
TNE +2E2E_ -09^ E_
TNE +2E2E_ -10^ E_
TNE +2E0A_ -09_ D_
TNE +7C2E_ -09^ E_
TNE +2D7C_ -09^ E_
TN. +2E20_ -0A^ D_
TNE +202E_ -09^ E_
TNE +2E2E_ -09^ E_
TNE +342D^ -02_ 6_
TNE +2E2E_ -10^ E_
TNE +2E2E_ -09^ 0_
TNE +417C_ -09^ E_
.N. +2E20_ -0A^ 1_
TNE +202E_ -09^ E_
TNE +2E2E_ -09^ E_
TN. +2E2E_ +06_ A_
TNE +2E7C_ -09^ E_
.NE +2D46^ -09^ C_
TNE +2E2E_ -06^ 0_
TNE +2E20_ -09^ E_
TNE +7C2E_ -09^ E_
TN. +202D_ -0A^ D_
TNE +2E2E_ -09^ E_
TNE +2E2E_ -10^ E_
.NE +2D52^ -09^ C_
TN. +2E2E_ -0A^ 0_
TNE +2E20_ -09^ E_
TNE +D2E_ -09^ E_
TNE +2E2E_ +05^ E_
.NE +2E2E^ -09^ C_
TNE +2D2D_ -02^ D_
TNE +2E2E_ -10^ E_
TNE +2E2E_ -09^ 0_
TNE +437C_ -09^ E_
.N. +2E20_ -0A^ 4_
TNE +202E_ -09^ E_
TNE +2E2E_ -09^ E_
TNE +322D^ -02_ 1_
TNE +2E2E_ -10^ E_
TNE +2E2E_ -09^ 0_
TNE +A0D_ -09^ E_
TNE +2E2E_ -09^ E_
TNE +7C2E_ -02^ E_
TN. +202D_ -0A^ D_
TNE +2E2E_ -09^ E_
TNE +2E2E_ -10^ E_
.NE +2D2D^ -09^ C_
T.E +A2E^ +2E^ 0_
T.E +000^ +0D^ 1+
T.E +000^ +2E^ 1+

[Sample3]
TNE +2E2E_ -09^ 0_
TNE +A0D_ -09^ E_
TNE +2E2E_ -09^ E_
TNE +7C2E_ -02^ E_
TN. +202D_ -0A^ D_
TNE +2E2E_ -09^ E_
TNE +2E2E_ -10^ E_
.NE +2D2D^ -09^ C_
TN. +2E2E_ -0A^ 0_
TNE +2E20_ -09^ E_
TNE +7C2E_ -09^ E_
TN. +202D_ -0A^ D_
TNE +2E2E_ -09^ E_
TNE +2E2E_ -10^ E_
TNE +2E0A_ -09_ D_
TNE +7C2E_ -09^ E_
TNE +2D7C_ -09^ E_
TN. +2E20_ -0A^ D_
TNE +202E_ -09^ E_
TNE +2E2E_ -09^ E_
TNE +342D^ -02_ 1_
TNE +2E2E_ -10^ E_
TNE +2E2E_ -09^ 0_
TNE +417C_ -09^ E_
.N. +2E20_ -0A^ 1_
TNE +202E_ -09^ E_
TNE +2E2E_ -09^ E_
TN. +2E2E_ +06_ A_
TNE +2E7C_ -09^ E_
.NE +2D41^ -09^ C_
TNE +2E2E_ -06^ 0_
TNE +2E20_ -09^ E_
TNE +7C2E_ -09^ E_
TN. +202D_ -0A^ D_
TNE +2E2E_ -09^ E_
TNE +2E2E_ -10^ E_
.NE +2D52^ -09^ C_
TN. +2E2E_ -0A^ 0_
TNE +2E20_ -09^ E_
TNE +D2E_ -09^ E_
TNE +2E2E_ +05^ E_
.NE +2E2E^ -09^ C_
TNE +2D2D_ -02^ D_
TNE +2E2E_ -10^ E_
TNE +2E2E_ -09^ 0_
TNE +437C_ -09^ E_

[Sample4]
TNE +2E2E_ -09^ 0_
TNE +A0D_ -09^ E_
TNE +2E2E_ -09^ E_
TNE +7C2E_ -02^ E_
TN. +202D_ -0A^ D_
TNE +2E2E_ -09^ E_
TNE +2E2E_ -10^ E_
.NE +2D2D^ -09^ C_
TN. +2E2E_ -0A^ 0_
TNE +2E20_ -09^ E_
TNE +7C2E_ -09^ E_
TN. +202D_ -0A^ D_
TNE +2E2E_ -09^ E_
TNE +2E2E_ -10^ E_
TNE +2E0A_ -09_ D_
TNE +7C2E_ -09^ E_
TNE +2D7C_ -09^ E_
TN. +2E20_ -0A^ D_
TNE +202E_ -09^ E_
TNE +2E2E_ -09^ E_
TNE +342D^ -02_ 1_
TNE +2E2E_ -10^ E_
TNE +2E2E_ -09^ 0_
TNE +417C_ -09^ E_
.N. +2E20_ -0A^ 1_
TNE +202E_ -09^ E_
TNE +2E2E_ -09^ E_
TN. +2E2E_ +06_ A_
TNE +2E7C_ -09^ E_
.NE +2D41^ -09^ C_
TNE +2E2E_ -06^ 0_
TNE +2E20_ -09^ E_
TNE +7C2E_ -09^ E_
TN. +202D_ -0A^ D_
TNE +2E2E_ -09^ E_
TNE +2E2E_ -10^ E_
.NE +2D52^ -09^ C_
TN. +2E2E_ -0A^ 0_
TNE +2E20_ -09^ E_
TNE +D2E_ -09^ E_
TNE +2E2E_ +05^ E_
.NE +2E2E^ -09^ C_
TNE +2D2D_ -02^ D_
TNE +2E2E_ -10^ E_
TNE +2E2E_ -09^ 0_
TNE +437C_ -09^ E_

[Sample5]
TNE +2E0A_ -09_ D_
TNE +7C2E_ -09^ E_
TNE +2D7C_ -09^ E_
TN. +2E20_ -0A^ D_
TNE +202E_ -09^ E_
TNE +2E2E_ -09^ E_
TNE +342D^ -02_ 3_
TNE +2E2E_ -10^ E_
TNE +2E2E_ -09^ 0_
TNE +437C_ -09^ E_
.N. +2E20_ -0A^ 2_
TNE +202E_ -09^ E_
TNE +2E2E_ -09^ E_
TN. +2E2E_ +06_ A_
TNE +2E7C_ -09^ E_
.NE +2D2D^ -09^ C_
TN. +2E2E_ -0A^ 0_
TNE +2E20_ -09^ E_
TNE +7C2E_ -09^ E_
TN. +202D_ -0A^ D_
TNE +2E2E_ -09^ E_
TNE +2E2E_ -10^ E_
.NE +2D52^ -09^ C_
TN. +2E2E_ -0A^ 0_
TNE +2E20_ -09^ E_
TNE +D2E_ -09^ E_
TNE +2E2E_ +05^ E_
.NE +2E2E^ -09^ C_
TNE +2D2D_ -02^ D_
TNE +2E2E_ -10^ E_
TNE +2E2E_ -09^ 0_
TNE +417C_ -09^ E_
.N. +2E20_ -0F^ 4_
TNE +202E_ -09^ E_
TNE +2E2E_ -09^ E_
TNE +3223^ -02_ 1_
TNE +2E2E_ -10^ E_
TNE +2E2E_ -09^ 0_
TNE +A0D_ -09^ E_
TNE +2E2E_ -09^ E_
TNE +7C2E_ -02^ E_
TN. +2034_ +00^ 3_
TNE +2E2E_ -09^ E_
TNE +2E2E_ -10^ E_
.NE +2D2D^ -09^ C_
TN. +2E2E_ -0A^ 0_

[Sample6]
TNE +2E2E_ -09^ E_
TNE +2E2E_ -10^ E_
TNE +2E0A_ -09_ D_
TNE +7C2E_ -09^ E_
TNE +2D7C_ -09^ E_
TN. +2E20_ -0A^ D_
TNE +202E_ -09^ E_
TNE +2E2E_ -09^ E_
TNE +2D2D_ -02^ D_
TNE +2E2E_ -10^ E_
TNE +2E2E_ -09^ 0_
TNE +2D7C_ -09^ E_
TN. +2E20_ -0A^ D_
TNE +202E_ -09^ E_
TNE +2E2E_ -09^ E_
TN. +2E2E_ +06_ A_
TNE +2E7C_ -09^ E_
.NE +2D43^ -09^ C_
TN. +2E34_ -06^ 0_
TNE +2E20_ -09^ E_
TNE +7C2E_ -09^ E_
TN. +202D_ -0A^ D_
TNE +2E2E_ -09^ E_
TNE +2E2E_ -10^ E_
.NE +2D43^ -09^ C_
TN. +2E2E_ -07^ 0_
TNE +2E20_ -09^ E_
TNE +D2E_ -09^ E_
TNE +2E2E_ +05^ E_
.NE +2E2E^ -09^ C_
TNE +2D2D_ -02^ D_
TNE +2E2E_ -10^ E_

[Sample7]
TNE +2E2E_ -09^ 0_
TNE +A0D_ -09^ E_
TNE +2E2E_ -09^ E_
TNE +7C2E_ -02^ E_
TN. +202D_ -0A^ D_
TNE +2E2E_ -09^ E_
TNE +2E2E_ -10^ E_
.NE +2D2D^ -09^ C_
TN. +2E2E_ -0A^ 0_
TNE +2E20_ -09^ E_
TNE +7C2E_ -09^ E_
TN. +202D_ -0A^ D_
TNE +2E2E_ -09^ E_
TNE +2E2E_ -10^ E_
TNE +2E0A_ -09_ D_
TNE +7C2E_ -09^ E_
TNE +2D7C_ -09^ E_
TN. +2E20_ -0A^ D_
TNE +202E_ -09^ E_
TNE +2E2E_ -09^ E_
TNE +342D^ -02_ 1_
TNE +2E2E_ -10^ E_
TNE +2E2E_ -09^ 0_
TNE +417C_ -09^ E_
.N. +2E20_ -0A^ 1_
TNE +202E_ -09^ E_
TNE +2E2E_ -09^ E_
TN. +2E2E_ +06_ A_
TNE +2E7C_ -09^ E_
.NE +2D41^ -09^ C_
TNE +2E2E_ -06^ 0_
TNE +2E20_ -09^ E_
TNE +7C2E_ -09^ E_
TN. +202D_ -0A^ D_
TNE +2E2E_ -09^ E_
TNE +2E2E_ -10^ E_
.NE +2D52^ -09^ C_
TN. +2E2E_ -0A^ 0_
TNE +2E20_ -09^ E_
TNE +D2E_ -09^ E_
TNE +2E2E_ +05^ E_
.NE +2E2E^ -09^ C_
TNE +2D2D_ -02^ D_
TNE +2E2E_ -10^ E_
TNE +2E2E_ -09^ 0_
TNE +437C_ -09^ E_

[Sample8]
TNE +2E2E_ +05^ E_
.NE +2E2E^ -09^ C_
TNE +2D2D_ -02^ D_
TNE +2E2E_ -10^ E_
TNE +2E2E_ -09^ 0_
TNE +437C_ -09^ E_
.N. +2E20_ -0A^ 4_
TNE +202E_ -09^ E_
TNE +2E2E_ -09^ E_
TNE +322D^ -02_ 3_
TNE +2E2E_ -10^ E_
TNE +2E2E_ -09^ 0_
TNE +A0D_ -09^ E_

[Sample9]
TNE +2E20_ -09^ E_
TNE +D2E_ -09^ E_
TNE +2E2E_ +05^ E_
.NE +2E2E^ -09^ C_
TNE +2D2D_ -02^ D_
TNE +2E2E_ -10^ E_
TNE +2E2E_ -09^ 0_
TNE +2D7C_ -09^ E_
TN. +2E20_ -0A^ D_
TNE +202E_ -09^ E_
TNE +2E2E_ -09^ E_
TNE +2D2D_ -02^ D_
TNE +2E2E_ -10^ E_
TNE +2E2E_ -09^ 0_
TNE +A0D_ -09^ E_
TNE +3836_ -09^ E_
TNE +7C2E_ -02^ E_
TN. +2035_ +01^ D_
TNE +2E2E_ -06^ E_
TNE +2E2E_ -10^ E_
.NE +2D2D^ -09^ C_
TN. +2E2E_ -0A^ 0_
TNE +2E20_ -09^ E_
TNE +7C2E_ -09^ E_
TN. +2033_ +01^ D_
.NE +2E2E_ +01^ 8_
TNE +2E2E_ -10^ E_
TNE +2E0A_ -09_ D_
TNE +7C2E_ -09^ E_
TNE +2D7C_ -09^ E_
TN. +2E20_ -0A^ D_
TNE +202E_ -09^ E_
TNE +2E2E_ -09^ E_
TNE +2D2D_ -02^ D_
TNE +2E2E_ -10^ E_
TNE +2E2E_ -09^ 0_
TNE +2D7C_ -09^ E_
TN. +2E20_ -0A^ D_
TNE +202E_ -09^ E_
TNE +2E2E_ -09^ E_
TN. +2E2E_ +06_ A_
TNE +2E7C_ -09^ E_
.NE +2D43^ -09^ C_
TN. +2E31_ -07^ 0_
TNE +2E20_ -09^ E_
TNE +7C2E_ -09^ E_

[Sample10]
TNE +2E2E_ -09^ 0_
TNE +A0D_ -09^ E_
TNE +2E2E_ -09^ E_
TNE +7C2E_ -02^ E_
TN. +202D_ -0A^ D_
TNE +2E2E_ -09^ E_
TNE +2E2E_ -10^ E_
.NE +2D2D^ -09^ C_
TN. +2E2E_ -0A^ 0_
TNE +2E20_ -09^ E_
TNE +7C2E_ -09^ E_
TN. +202D_ -0A^ D_
TNE +2E2E_ -09^ E_
TNE +2E2E_ -10^ E_
TNE +2E0A_ -09_ D_
TNE +7C2E_ -09^ E_
TNE +2D7C_ -09^ E_
TN. +2E20_ -0A^ D_
TNE +202E_ -09^ E_
TNE +2E2E_ -09^ E_
TNE +342D^ -02_ 1_
TNE +2E2E_ -10^ E_
TNE +2E2E_ -09^ 0_
TNE +417C_ -09^ E_
.N. +2E20_ -0A^ 1_
TNE +202E_ -09^ E_
TNE +2E2E_ -09^ E_
TN. +2E2E_ +06_ A_
TNE +2E7C_ -09^ E_
.NE +2D41^ -09^ C_
TNE +2E2E_ -06^ 0_
TNE +2E20_ -09^ E_
TNE +7C2E_ -09^ E_
TN. +202D_ -0A^ D_
TNE +2E2E_ -09^ E_
TNE +2E2E_ -10^ E_
.NE +2D52^ -09^ C_
TN. +2E2E_ -0A^ 0_
TNE +2E20_ -09^ E_
TNE +D2E_ -09^ E_
TNE +2E2E_ +05^ E_
.NE +2E2E^ -09^ C_
TNE +2D2D_ -02^ D_
TNE +2E2E_ -10^ E_
TNE +2E2E_ -09^ 0_
TNE +437C_ -09^ E_

[Sample11]
TNE +2E2E_ -10^ E_
TNE +2E0A_ -09_ D_
TNE +7C2E_ -09^ E_
TNE +2D7C_ -09^ E_
TN. +2E20_ -0A^ D_
TNE +202E_ -09^ E_
TNE +2E2E_ -09^ E_
TNE +342D^ -02_ 6_
TNE +2E2E_ -10^ E_
TNE +2E2E_ -09^ 0_
TNE +417C_ -09^ E_
.N. +2E20_ -0A^ 2_
TNE +202E_ -09^ E_
TNE +2E2E_ -09^ E_
TN. +2E2E_ +06_ A_
TNE +2E7C_ -09^ E_
.NE +2D46^ -09^ C_
TNE +2E2E_ -06^ 0_
TNE +2E20_ -09^ E_
TNE +7C2E_ -09^ E_
TN. +202D_ -0A^ D_
TNE +2E2E_ -09^ E_
TNE +2E2E_ -10^ E_
.NE +2D2D^ -09^ C_
TN. +2E2E_ -0A^ 0_
TNE +2E20_ -09^ E_
TNE +D2E_ -09^ E_
TNE +2E2E_ +05^ E_
.NE +2E2E^ -09^ C_
TNE +2D2D_ -02^ D_
TNE +2E2E_ -10^ E_
TNE +2E2E_ -09^ 0_
TNE +437C_ -09^ E_
.N. +2E20_ -0A^ 4_
TNE +202E_ -09^ E_
TNE +2E2E_ -09^ E_
TNE +312D^ -02_ 1_
TNE +2E2E_ -10^ E_
TNE +2E2E_ -09^ 0_
TNE +A0D_ -09^ E_
TNE +2E2E_ -09^ E_
TNE +7C2E_ -02^ E_
TN. +202D_ -0A^ D_
TNE +2E2E_ -09^ E_
TNE +2E2E_ -10^ E_
.NE +2D2D^ -09^ C_

[Sample12]
TNE +2E20_ -09^ E_
TNE +D2E_ -09^ E_
TNE +2E2E_ +05^ E_
.NE +2E2E^ -09^ C_
TNE +2D2D_ -02^ D_
TNE +2E2E_ -10^ E_
TNE +2E2E_ -09^ 0_
TNE +437C_ -09^ E_
.N. +2E20_ -0A^ 4_
TNE +202E_ -09^ E_
TNE +2E2E_ -09^ E_
TNE +322D^ -02_ 3_
TNE +2E2E_ -10^ E_
TNE +2E2E_ -09^ 0_
TNE +A0D_ -09^ E_
TNE +2E2E_ -09^ E_
TNE +7C2E_ -02^ E_
TN. +202D_ -0A^ D_
TNE +2E2E_ -09^ E_
TNE +2E2E_ -10^ E_
.NE +2D2D^ -09^ C_
TN. +2E2E_ -0A^ 0_
TNE +2E20_ -09^ E_
TNE +7C2E_ -09^ E_
TNE +202D_ +09^ D_
TNE +2E2E_ -09^ E_
TNE +2E2E_ -10^ E_
TNE +2E0A_ -09_ D_
TNE +7C2E_ -09^ E_
TNE +2D7C_ -09^ E_
TN. +2E20_ -0A^ D_
TNE +202E_ -09^ E_
TNE +2E2E_ -09^ E_
TNE +3423^ -02_ 1_
TNE +2E2E_ -10^ E_
TNE +2E2E_ -09^ 0_
TNE +417C_ -09^ E_
.N. +2E20_ -0F^ 2_
TNE +202E_ -09^ E_
TNE +2E2E_ -09^ E_
TN. +2E2E_ +06_ A_
TNE +2E7C_ -09^ E_
.NE +2341^ -09^ C_
TNE +2E2E_ -06^ 0_
TNE +2E20_ -09^ E_
TNE +7C2E_ -09^ E_

[Sample13]
TNE +2E2E_ -10^ E_
TNE +2E0A_ -09_ D_
TNE +7C2E_ -09^ E_
TNE +2D7C_ -09^ E_
TN. +2E20_ -0A^ D_
TNE +202E_ -09^ E_
TNE +2E2E_ -09^ E_
TNE +342D^ -02_ 3_
TNE +2E2E_ -10^ E_
TNE +2E2E_ -09^ 0_
TNE +437C_ -09^ E_
.N. +2E20_ -0A^ 2_
TNE +202E_ -09^ E_
TNE +2E2E_ -09^ E_
TN. +2E2E_ +06_ A_
TNE +2E7C_ -09^ E_
.NE +2D2D^ -09^ C_
TN. +2E2E_ -0A^ 0_
TNE +2E20_ -09^ E_
TNE +7C2E_ -09^ E_
TN. +202D_ -0A^ D_
TNE +2E2E_ -09^ E_
TNE +2E2E_ -10^ E_
.NE +2D52^ -09^ C_
TN. +2E2E_ -0A^ 0_
TNE +2E20_ -09^ E_
TNE +D2E_ -09^ E_
TNE +2E2E_ +05^ E_
.NE +2E2E^ -09^ C_
TNE +2D2D_ -02^ D_
TNE +2E2E_ -10^ E_
TNE +2E2E_ -09^ 0_
TNE +417C_ -09^ E_
.N. +2E20_ -0F^ 4_
TNE +202E_ -09^ E_
TNE +2E2E_ -09^ E_
TNE +3223^ -02_ 1_
TNE +2E2E_ -10^ E_
TNE +2E2E_ -09^ 0_
TNE +A0D_ -09^ E_
TNE +2E2E_ -09^ E_
TNE +7C2E_ -02^ E_
TN. +2034_ +00^ 3_
TNE +2E2E_ -09^ E_
TNE +2E2E_ -10^ E_
.NE +2D2D^ -09^ C_

[Sample14]
TNE +2E2E_ -09^ E_
TN. +2E2E_ +06_ A_
TNE +2E7C_ -09^ E_
.NE +2D2D^ -09^ C_
TN. +2E2E_ -0A^ 0_
TNE +2E20_ -09^ E_
TNE +7C2E_ -09^ E_
TN. +2034_ +01^ D_
TNE +2E2E_ -09^ E_
TNE +2E2E_ -10^ E_
.NE +2D43^ -09^ C_
TNE +2E2E_ -07^ 0_
TNE +2E20_ -09^ E_
TNE +D2E_ -09^ E_
TNE +2E2E_ +05^ E_
.NE +2E2E^ -09^ C_
TNE +2D2D_ -02^ D_
TNE +2E2E_ -10^ E_
TNE +2E2E_ -09^ 0_
TNE +2D7C_ -09^ E_
TN. +2E20_ -0A^ D_
TNE +202E_ -09^ E_
TNE +2E2E_ -09^ E_
.NE +2D2D^ -02_ 2_
TNE +2E2E_ -10^ E_
TNE +2E2E_ -09^ 0_
TNE +A0D_ -09^ E_
TNE +2E2E_ -09^ E_
TNE +7C2E_ -02^ E_
TN. +202D_ -0A^ D_
TNE +2E2E_ -09^ E_
TNE +2E2E_ -10^ E_

[Sample15]
TNE +A0D_ -09^ E_
TNE +2E2E_ -09^ E_
TNE +7C2E_ -02^ E_
TN. +202D_ -0A^ D_
TNE +2E2E_ -09^ E_
TNE +2E2E_ -10^ E_
.NE +2D43^ -09^ C_
TNE +2E2E_ -06^ 0_
TNE +2E20_ -09^ E_
TNE +7C2E_ -09^ E_
TN. +2032_ +01^ D_
TNE +2E2E_ -09^ E_
TNE +2E2E_ -10^ E_
TNE +2E0A_ -09_ D_
TNE +7C2E_ -09^ E_
TNE +2D7C_ -09^ E_
TN. +2E20_ -0A^ D_
TNE +202E_ -09^ E_
TNE +2E2E_ -09^ E_
TNE +2D2D_ -02^ D_
TNE +2E2E_ -10^ E_
TNE +2E2E_ -09^ 0_
TNE +527C_ -09^ E_
TN. +2E20_ -0A^ D_
TNE +202E_ -09^ E_
TNE +2E2E_ -09^ E_
TN. +2E2E_ +06_ A_
TNE +2E7C_ -09^ E_
.NE +2D2D^ -09^ C_
TN. +2E2E_ -0A^ 0_
TNE +2E20_ -09^ E_
TNE +7C2E_ -09^ E_
TN. +2034_ +00^ 3_
TNE +2E2E_ -09^ E_
TNE +2E2E_ -10^ E_
.NE +2341^ -09^ C_
TNE +2E2E_ -07^ 0_
TNE +2E20_ -09^ E_
TNE +D2E_ -09^ E_
TNE +2E2E_ +05^ E_
.NE +2E2E^ -09^ C_
TNE +3423^ -02_ 1_
TNE +2E2E_ -10^ E_
TNE +2E2E_ -09^ 0_
TNE +2D7C_ -09^ E_
TN. +2E20_ -0A^ D_

[Sample16]
TNE +D2E_ -09^ E_
TNE +2E2E_ +05^ E_
.NE +2E2E^ -09^ C_
TNE +2D2D_ -02^ D_
TNE +2E2E_ -10^ E_
TNE +2E2E_ -09^ 0_
TNE +437C_ -09^ E_
.N. +2E20_ -0A^ 4_
TNE +202E_ -09^ E_
TNE +2E2E_ -09^ E_
TNE +322D^ -02_ 3_
TNE +2E2E_ -10^ E_
TNE +2E2E_ -09^ 0_
TNE +A0D_ -09^ E_
TNE +2E2E_ -09^ E_
TNE +7C2E_ -02^ E_
TN. +202D_ -0A^ D_
TNE +2E2E_ -09^ E_
TNE +2E2E_ -10^ E_
.NE +2D2D^ -09^ C_
TN. +2E2E_ -0A^ 0_
TNE +2E20_ -09^ E_
TNE +7C2E_ -09^ E_
TNE +202D_ +09^ D_
TNE +2E2E_ -09^ E_
TNE +2E2E_ -10^ E_
TNE +2E0A_ -09_ D_
TNE +7C2E_ -09^ E_
TNE +2D7C_ -09^ E_
TN. +2E20_ -0A^ D_
TNE +202E_ -09^ E_
TNE +2E2E_ -09^ E_
TNE +3423^ -02_ 1_ L
TNE +2E2E_ -10^ E_
TNE +2E2E_ -09^ 0_
TNE +417C_ -09^ E_
.N. +2E20_ -0F^ 2_
TNE +202E_ -09^ E_
TNE +2E2E_ -09^ E_
TN. +2E2E_ +06_ A_
TNE +2E7C_ -09^ E_
.NE +2341^ -09^ C_
TNE +2E2E_ -06^ 0_
TNE +2E20_ -09^ E_
TNE +7C2E_ -09^ E_
TN. +202D_ -0A^ D_

[Sample17]
TNE +A0D_ -09^ E_
TNE +2E2E_ -09^ E_
TNE +7C2E_ -02^ E_
TN. +202D_ -0A^ D_
TNE +2E2E_ -09^ E_
TNE +2E2E_ -10^ E_
.NE +2D43^ -09^ C_
TNE +2E2E_ -06^ 0_
TNE +2E20_ -09^ E_
TNE +7C2E_ -09^ E_
TN. +2031_ +00^ D_
TNE +2E2E_ -09^ E_
TNE +2E2E_ -10^ E_
TNE +2E0A_ -09_ D_
TNE +7C2E_ -09^ E_
TNE +2D7C_ -09^ E_
TN. +2E20_ -0A^ D_
TNE +202E_ -09^ E_
TNE +2E2E_ -09^ E_
TNE +2D2D_ -02^ D_
TNE +2E2E_ -10^ E_
TNE +2E2E_ -09^ 0_
TNE +527C_ -09^ E_
TN. +2E20_ -0A^ D_
TNE +202E_ -09^ E_
TNE +2E2E_ -09^ E_
TN. +2E2E_ +06_ A_
TNE +2E7C_ -09^ E_
.NE +2D2D^ -09^ C_
TN. +2E2E_ -0A^ 0_
TNE +2E20_ -09^ E_
TNE +7C2E_ -09^ E_
TNE +2034_ +03^ D_
TNE +2E2E_ -09^ E_
TNE +2E2E_ -10^ E_
.NE +2D41^ -09^ C_
TN. +2E2E_ -08^ 0_
TNE +2E20_ -09^ E_
TNE +D2E_ -09^ E_
TNE +2E2E_ +05^ E_
.NE +2E2E^ -09^ C_
TNE +342D^ -02_ 6_
TNE +2E2E_ -10^ E_
TNE +2E2E_ -09^ 0_
TNE +2D7C_ -09^ E_
TN. +2E20_ -0A^ D_

[Sample18]
TNE +2E2E_ -09^ 0_
TNE +A0D_ -09^ E_
TNE +2E2E_ -09^ E_
TNE +7C2E_ -02^ E_
TN. +202D_ -0A^ D_
TNE +2E2E_ -09^ E_
TNE +2E2E_ -10^ E_
.NE +2D2D^ -09^ C_
TN. +2E2E_ -0A^ 0_
TNE +2E20_ -09^ E_
TNE +7C2E_ -09^ E_
TN. +202D_ -0A^ D_
TNE +2E2E_ -09^ E_
TNE +2E2E_ -10^ E_
TNE +2E0A_ -09_ D_
TNE +7C2E_ -09^ E_
TNE +2D7C_ -09^ E_
TN. +2E20_ -0A^ D_
TNE +202E_ -09^ E_
TNE +2E2E_ -09^ E_
TNE +342D^ -02_ 1_
TNE +2E2E_ -10^ E_
TNE +2E2E_ -09^ 0_
TNE +417C_ -09^ E_
.N. +2E20_ -0A^ 1_
TNE +202E_ -09^ E_
TNE +2E2E_ -09^ E_
TN. +2E2E_ +06_ A_
TNE +2E7C_ -09^ E_
.NE +2D41^ -09^ C_
TNE +2E2E_ -06^ 0_
TNE +2E20_ -09^ E_
TNE +7C2E_ -09^ E_
TN. +202D_ -0A^ D_
TNE +2E2E_ -09^ E_
TNE +2E2E_ -10^ E_
.NE +2D52^ -09^ C_
TN. +2E2E_ -0A^ 0_
TNE +2E20_ -09^ E_
TNE +D2E_ -09^ E_
TNE +2E2E_ +05^ E_
.NE +2E2E^ -09^ C_
TNE +2D2D_ -02^ D_
TNE +2E2E_ -10^ E_
TNE +2E2E_ -09^ 0_
TNE +437C_ -09^ E_

[Sample19]
TNE +2E2E_ -09^ 0_
TNE +A0D_ -09^ E_
TNE +2E2E_ -09^ E_
TNE +7C2E_ -02^ E_
TN. +202D_ -0A^ D_
TNE +2E2E_ -09^ E_
TNE +2E2E_ -10^ E_
.NE +2D43^ -09^ C_
TNE +2E2E_ -06^ 0_
TNE +2E20_ -09^ E_
TNE +7C2E_ -09^ E_
TN. +2032_ +01^ D_
TNE +2E2E_ -09^ E_
TNE +2E2E_ -10^ E_
TNE +2E0A_ -09_ D_
TNE +7C2E_ -09^ E_
TNE +2D7C_ -09^ E_
TN. +2E20_ -0A^ D_
TNE +202E_ -09^ E_
TNE +2E2E_ -09^ E_
TNE +2D2D_ -02^ D_
TNE +2E2E_ -10^ E_
TNE +2E2E_ -09^ 0_
TNE +527C_ -09^ E_
TN. +2E20_ -0A^ D_
TNE +202E_ -09^ E_
TNE +2E2E_ -09^ E_
TN. +2E2E_ +06_ A_
TNE +2E7C_ -09^ E_
.NE +2D2D^ -09^ C_
TN. +2E2E_ -0A^ 0_
TNE +2E20_ -09^ E_
TNE +7C2E_ -09^ E_
TN. +2034_ +00^ 3_
TNE +2E2E_ -09^ E_
TNE +2E2E_ -10^ E_
.NE +2341^ -09^ C_
TNE +2E2E_ -07^ 0_
TNE +2E20_ -09^ E_
TNE +D2E_ -09^ E_
TNE +2E2E_ +05^ E_
.NE +2E2E^ -09^ C_
TNE +3423^ -02_ 1_
TNE +2E2E_ -10^ E_
TNE +2E2E_ -09^ 0_
TNE +2D7C_ -09^ E_

[Sample20]
TN. +2E2E_ +06_ A_
TNE +2E7C_ -09^ E_
.NE +2D2D^ -09^ C_
TN. +2E2E_ -0A^ 0_
TNE +2E20_ -09^ E_
TNE +7C2E_ -09^ E_
TNE +2034_ +03^ D_
TNE +2E2E_ -09^ E_
TNE +2E2E_ -10^ E_
.NE +2D41^ -09^ C_
TNE +2E2E_ -07^ 0_
TNE +2E20_ -09^ E_
TNE +D2E_ -09^ E_
TNE +2E2E_ +05^ E_
.NE +2E2E^ -09^ C_
TNE +342D^ -02_ 6_
TNE +2E2E_ -10^ E_
TNE +2E2E_ -09^ 0_
TNE +2D7C_ -09^ E_
TN. +2E20_ -0A^ D_
TNE +202E_ -09^ E_
TNE +2E2E_ -09^ E_
TNE +2D2D_ -02^ D_
TNE +2E2E_ -10^ E_
TNE +2E2E_ -09^ 0_
TNE +A0D_ -09^ E_
TNE +2E2E_ -09^ E_
TNE +7C2E_ -02^ E_
TN. +202D_ -0A^ D_
TNE +2E2E_ -09^ E_
TNE +2E2E_ -10^ E_
.NE +2D43^ -09^ C_
TNE +2E2E_ -06^ 0_
TNE +2E20_ -09^ E_
TNE +7C2E_ -09^ E_
TN. +2031_ +00^ D_
TNE +2E2E_ -09^ E_
TNE +2E2E_ -10^ E_
TNE +2E0A_ -09_ D_
TNE +7C2E_ -09^ E_
TNE +2D7C_ -09^ E_
TN. +2E20_ -0A^ D_
TNE +202E_ -09^ E_
TNE +2E2E_ -09^ E_
TNE +2D2D_ -02^ D_
TNE +2E2E_ -10^ E_

[Sample21]
TNE +2E2E_ -09^ 0_
TNE +A0D_ -09^ E_
TNE +2E2E_ -09^ E_
TNE +7C2E_ -02^ E_
TN. +202D_ -0A^ D_
TNE +2E2E_ -09^ E_
TNE +2E2E_ -10^ E_
.NE +2D2D^ -09^ C_
TN. +2E2E_ -0A^ 0_
TNE +2E20_ -09^ E_
TNE +7C2E_ -09^ E_
TN. +202D_ -0A^ D_
TNE +2E2E_ -09^ E_
TNE +2E2E_ -10^ E_
TNE +2E0A_ -09_ D_
TNE +7C2E_ -09^ E_
TNE +2D7C_ -09^ E_
TN. +2E20_ -0A^ D_
TNE +202E_ -09^ E_
TNE +2E2E_ -09^ E_
TNE +342D^ -02_ 1_
TNE +2E2E_ -10^ E_
TNE +2E2E_ -09^ 0_
TNE +417C_ -09^ E_
.N. +2E20_ -0A^ 1_
TNE +202E_ -09^ E_
TNE +2E2E_ -09^ E_
TN. +2E2E_ +06_ A_
TNE +2E7C_ -09^ E_
.NE +2D41^ -09^ C_
TNE +2E2E_ -06^ 0_
TNE +2E20_ -09^ E_
TNE +7C2E_ -09^ E_
TN. +202D_ -0A^ D_
TNE +2E2E_ -09^ E_
TNE +2E2E_ -10^ E_
.NE +2D52^ -09^ C_
TN. +2E2E_ -0A^ 0_
TNE +2E20_ -09^ E_
TNE +D2E_ -09^ E_
TNE +2E2E_ +05^ E_
.NE +2E2E^ -09^ C_
TNE +2D2D_ -02^ D_
TNE +2E2E_ -10^ E_
TNE +2E2E_ -09^ 0_
TNE +437C_ -09^ E_

[Sample22]
TNE +2E2E_ -09^ E_
TN. +2E2E_ +06_ A_
TNE +2E7C_ -09^ E_
.NE +2D2D^ -09^ C_
TN. +2E2E_ -0A^ 0_
TNE +2E20_ -09^ E_
TNE +7C2E_ -09^ E_
TN. +2034_ +01^ D_
TNE +2E2E_ -09^ E_
TNE +2E2E_ -10^ E_
.NE +2D43^ -09^ C_
TNE +2E2E_ -07^ 0_
TNE +2E20_ -09^ E_
TNE +D2E_ -09^ E_
TNE +2E2E_ +05^ E_
.NE +2E2E^ -09^ C_
TNE +2D2D_ -02^ D_
TNE +2E2E_ -10^ E_
TNE +2E2E_ -09^ 0_
TNE +2D7C_ -09^ E_
TN. +2E20_ -0A^ D_
TNE +202E_ -09^ E_
TNE +2E2E_ -09^ E_
.NE +2D2D^ -02_ 2_
TNE +2E2E_ -10^ E_
TNE +2E2E_ -09^ 0_
TNE +A0D_ -09^ E_
TNE +2E2E_ -09^ E_
TNE +7C2E_ -02^ E_
TN. +202D_ -0A^ D_
TNE +2E2E_ -09^ E_
TNE +2E2E_ -10^ E_

[Sample23]
TNE +A0D_ -09^ E_
TNE +2E2E_ -09^ E_
TNE +7C2E_ -02^ E_
TN. +202D_ -0A^ D_
TNE +2E2E_ -09^ E_
TNE +2E2E_ -10^ E_
.NE +2D43^ -09^ C_
TNE +2E2E_ -06^ 0_
TNE +2E20_ -09^ E_
TNE +7C2E_ -09^ E_
TN. +2031_ +00^ D_
TNE +2E2E_ -09^ E_
TNE +2E2E_ -10^ E_
TNE +2E0A_ -09_ D_
TNE +7C2E_ -09^ E_
TNE +2D7C_ -09^ E_
TN. +2E20_ -0A^ D_
TNE +202E_ -09^ E_
TNE +2E2E_ -09^ E_
TNE +2D2D_ -02^ D_
TNE +2E2E_ -10^ E_
TNE +2E2E_ -09^ 0_
TNE +527C_ -09^ E_
TN. +2E20_ -0A^ D_
TNE +202E_ -09^ E_
TNE +2E2E_ -09^ E_
TN. +2E2E_ +06_ A_
TNE +2E7C_ -09^ E_
.NE +2D2D^ -09^ C_
TN. +2E2E_ -0A^ 0_
TNE +2E20_ -09^ E_
TNE +7C2E_ -09^ E_
TNE +2034_ +03^ D_
TNE +2E2E_ -09^ E_
TNE +2E2E_ -10^ E_
.NE +2D41^ -09^ C_
TN. +2E2E_ -08^ 0_
TNE +2E20_ -09^ E_
TNE +D2E_ -09^ E_
TNE +2E2E_ +05^ E_
.NE +2E2E^ -09^ C_
TNE +342D^ -02_ 6_
TNE +2E2E_ -10^ E_
TNE +2E2E_ -09^ 0_
TNE +2D7C_ -09^ E_
TN. +2E20_ -0A^ D_

[Sample24]
TNE +2E2E_ -09^ 0_
TNE +A0D_ -09^ E_
TNE +2E2E_ -09^ E_
TNE +7C2E_ -02^ E_
TN. +202D_ -0A^ D_
TNE +2E2E_ -09^ E_
TNE +2E2E_ -10^ E_
.NE +2D2D^ -09^ C_
TN. +2E2E_ -0A^ 0_
TNE +2E20_ -09^ E_
TNE +7C2E_ -09^ E_
TN. +202D_ -0A^ D_
TNE +2E2E_ -09^ E_
TNE +2E2E_ -10^ E_
TNE +2E0A_ -09_ D_
TNE +7C2E_ -09^ E_
TNE +2D7C_ -09^ E_
TN. +2E20_ -0A^ D_
TNE +202E_ -09^ E_
TNE +2E2E_ -09^ E_
TNE +342D^ -02_ 1_
TNE +2E2E_ -10^ E_
TNE +2E2E_ -09^ 0_
TNE +417C_ -09^ E_
.N. +2E20_ -0A^ 1_
TNE +202E_ -09^ E_
TNE +2E2E_ -09^ E_
TN. +2E2E_ +06_ A_
TNE +2E7C_ -09^ E_
.NE +2D41^ -09^ C_
TNE +2E2E_ -06^ 0_
TNE +2E20_ -09^ E_
TNE +7C2E_ -09^ E_
TN. +202D_ -0A^ D_
TNE +2E2E_ -09^ E_
TNE +2E2E_ -10^ E_
.NE +2D52^ -09^ C_
TN. +2E2E_ -0A^ 0_
TNE +2E20_ -09^ E_
TNE +D2E_ -09^ E_
TNE +2E2E_ +05^ E_
.NE +2E2E^ -09^ C_
TNE +2D2D_ -02^ D_
TNE +2E2E_ -10^ E_
TNE +2E2E_ -09^ 0_
TNE +437C_ -09^ E_

[Sample25]
TNE +2E2E_ -09^ 0_
TNE +A0D_ -09^ E_
TNE +2E2E_ -09^ E_
TNE +7C2E_ -02^ E_
TN. +202D_ -0A^ D_
TNE +2E2E_ -09^ E_
TNE +2E2E_ -10^ E_
.NE +2D43^ -09^ C_
TNE +2E2E_ -06^ 0_
TNE +2E20_ -09^ E_
TNE +7C2E_ -09^ E_
TN. +2032_ +01^ D_
TNE +2E2E_ -09^ E_
TNE +2E2E_ -10^ E_
TNE +2E0A_ -09_ D_
TNE +7C2E_ -09^ E_
TNE +2D7C_ -09^ E_
TN. +2E20_ -0A^ D_
TNE +202E_ -09^ E_
TNE +2E2E_ -09^ E_
TNE +2D2D_ -02^ D_
TNE +2E2E_ -10^ E_
TNE +2E2E_ -09^ 0_
TNE +527C_ -09^ E_
TN. +2E20_ -0A^ D_
TNE +202E_ -09^ E_
TNE +2E2E_ -09^ E_
TN. +2E2E_ +06_ A_
TNE +2E7C_ -09^ E_
.NE +2D2D^ -09^ C_
TN. +2E2E_ -0A^ 0_
TNE +2E20_ -09^ E_
TNE +7C2E_ -09^ E_
TN. +2034_ +00^ 3_
TNE +2E2E_ -09^ E_
TNE +2E2E_ -10^ E_
.NE +2341^ -09^ C_
TNE +2E2E_ -07^ 0_
TNE +2E20_ -09^ E_
TNE +D2E_ -09^ E_
TNE +2E2E_ +05^ E_
.NE +2E2E^ -09^ C_
TNE +3423^ -02_ 1_
TNE +2E2E_ -10^ E_
TNE +2E2E_ -09^ 0_
TNE +2D7C_ -09^ E_

[Sample26]
TNE +2E2E_ -09^ E_
TNE +7C2E_ -02^ E_
TN. +202D_ -0A^ D_
TNE +2E2E_ -09^ E_
TNE +2E2E_ -10^ E_
.NE +2D43^ -09^ C_
TNE +2E2E_ -06^ 0_
TNE +2E20_ -09^ E_
TNE +7C2E_ -09^ E_
TN. +2032_ +03^ D_

[Sample27]
TNE +2E2E_ -09^ 0_
TNE +A0D_ -09^ E_
TNE +2E2E_ -09^ E_
TNE +7C2E_ -02^ E_
TN. +202D_ -0A^ D_
TNE +2E2E_ -09^ E_
TNE +2E2E_ -10^ E_
.NE +2D2D^ -09^ C_
TN. +2E2E_ -0A^ 0_
TNE +2E20_ -09^ E_
TNE +7C2E_ -09^ E_
TN. +202D_ -0A^ D_
TNE +2E2E_ -09^ E_
TNE +2E2E_ -10^ E_
TNE +2E0A_ -09_ D_
TNE +7C2E_ -09^ E_
TNE +2D7C_ -09^ E_
TN. +2E20_ -0A^ D_
TNE +202E_ -09^ E_
TNE +2E2E_ -09^ E_
TNE +342D^ -02_ 1_
TNE +2E2E_ -10^ E_
TNE +2E2E_ -09^ 0_
TNE +417C_ -09^ E_
.N. +2E20_ -0A^ 1_
TNE +202E_ -09^ E_
TNE +2E2E_ -09^ E_
TN. +2E2E_ +06_ A_
TNE +2E7C_ -09^ E_
.NE +2D41^ -09^ C_
TNE +2E2E_ -06^ 0_
TNE +2E20_ -09^ E_
TNE +7C2E_ -09^ E_
TN. +202D_ -0A^ D_
TNE +2E2E_ -09^ E_
TNE +2E2E_ -10^ E_
.NE +2D52^ -09^ C_
TN. +2E2E_ -0A^ 0_
TNE +2E20_ -09^ E_
TNE +D2E_ -09^ E_
TNE +2E2E_ +05^ E_
.NE +2E2E^ -09^ C_
TNE +2D2D_ -02^ D_
TNE +2E2E_ -10^ E_
TNE +2E2E_ -09^ 0_
TNE +437C_ -09^ E_

[Sample28]
TNE +A0D_ -09^ E_
TNE +2E2E_ -09^ E_
TNE +7C2E_ -02^ E_
TN. +202D_ -0A^ D_
TNE +2E2E_ -09^ E_
TNE +2E2E_ -10^ E_
.NE +2D43^ -09^ C_
TNE +2E2E_ -06^ 0_
TNE +2E20_ -09^ E_
TNE +7C2E_ -09^ E_
TN. +2032_ +01^ D_
TNE +2E2E_ -09^ E_
TNE +2E2E_ -10^ E_
TNE +2E0A_ -09_ D_
TNE +7C2E_ -09^ E_
TNE +2D7C_ -09^ E_
TN. +2E20_ -0A^ D_
TNE +202E_ -09^ E_
TNE +2E2E_ -09^ E_
TNE +2D2D_ -02^ D_
TNE +2E2E_ -10^ E_
TNE +2E2E_ -09^ 0_
TNE +527C_ -09^ E_
TN. +2E20_ -0A^ D_
TNE +202E_ -09^ E_
TNE +2E2E_ -09^ E_
TN. +2E2E_ +06_ A_
TNE +2E7C_ -09^ E_
.NE +2D2D^ -09^ C_
TN. +2E2E_ -0A^ 0_
TNE +2E20_ -09^ E_
TNE +7C2E_ -09^ E_
TN. +2034_ +00^ 3_
TNE +2E2E_ -09^ E_
TNE +2E2E_ -10^ E_
.NE +2341^ -09^ C_
TNE +2E2E_ -07^ 0_
TNE +2E20_ -09^ E_
TNE +D2E_ -09^ E_
TNE +2E2E_ +05^ E_
.NE +2E2E^ -09^ C_
TNE +3423^ -02_ 1_
TNE +2E2E_ -10^ E_
TNE +2E2E_ -09^ 0_
TNE +2D7C_ -09^ E_
TN. +2E20_ -0A^ D_

[Sample29]
TNE +2E0A_ -09_ D_
TNE +7C2E_ -09^ E_
TNE +2D7C_ -09^ E_
TN. +2E20_ -0A^ D_
TNE +202E_ -09^ E_
TNE +2E2E_ -09^ E_
TNE +342D^ -02_ 3_
TNE +2E2E_ -10^ E_
TNE +2E2E_ -09^ 0_
TNE +437C_ -09^ E_
.N. +2E20_ -0A^ 2_
TNE +202E_ -09^ E_
TNE +2E2E_ -09^ E_
TN. +2E2E_ +06_ A_
TNE +2E7C_ -09^ E_
.NE +2D2D^ -09^ C_
TN. +2E2E_ -0A^ 0_
TNE +2E20_ -09^ E_
TNE +7C2E_ -09^ E_
TN. +202D_ -0A^ D_
TNE +2E2E_ -09^ E_
TNE +2E2E_ -10^ E_
.NE +2D52^ -09^ C_
TN. +2E2E_ -0A^ 0_
TNE +2E20_ -09^ E_
TNE +D2E_ -09^ E_
TNE +2E2E_ +05^ E_
.NE +2E2E^ -09^ C_
TNE +2D2D_ -02^ D_
TNE +2E2E_ -10^ E_
TNE +2E2E_ -09^ 0_
TNE +417C_ -09^ E_
.N. +2E20_ -0F^ 4_
TNE +202E_ -09^ E_
TNE +2E2E_ -09^ E_
TNE +3223^ -02_ 1_
TNE +2E2E_ -10^ E_
TNE +2E2E_ -09^ 0_
TNE +A0D_ -09^ E_
TNE +2E2E_ -09^ E_
TNE +7C2E_ -02^ E_
TN. +2034_ +00^ 3_
TNE +2E2E_ -09^ E_
TNE +2E2E_ -10^ E_
.NE +2D2D^ -09^ C_
TN. +2E2E_ -0A^ 0_

[Sample30]
TN. +2E2E_ +06_ A_
TNE +2E7C_ -09^ E_
.NE +2D2D^ -09^ C_
TN. +2E2E_ -0A^ 0_
TNE +2E20_ -09^ E_
TNE +7C2E_ -09^ E_
TN. +2034_ +01^ D_
TNE +2E2E_ -09^ E_
TNE +2E2E_ -10^ E_
.NE +2D43^ -09^ C_
TNE +2E2E_ -07^ 0_
TNE +2E20_ -09^ E_
TNE +D2E_ -09^ E_
TNE +2E2E_ +05^ E_
.NE +2E2E^ -09^ C_
TNE +2D2D_ -02^ D_
TNE +2E2E_ -10^ E_
TNE +2E2E_ -09^ 0_
TNE +2D7C_ -09^ E_
TN. +2E20_ -0A^ D_
TNE +202E_ -09^ E_
TNE +2E2E_ -09^ E_
.NE +2D2D^ -02_ 2_
TNE +2E2E_ -10^ E_
TNE +2E2E_ -09^ 0_
TNE +A0D_ -09^ E_
TNE +2E2E_ -09^ E_
TNE +7C2E_ -02^ E_
TN. +202D_ -0A^ D_
TNE +2E2E_ -09^ E_
TNE +2E2E_ -10^ E_
.NE +2341^ -09^ C_
TNE +2E2E_ -06^ 0_
TNE +2E20_ -09^ E_
TNE +7C2E_ -09^ E_
TN. +2032_ +00^ 3_
TNE +2E2E_ -09^ E_
TNE +2E2E_ -10^ E_
TNE +2E0A_ -09_ D_
TNE +7C2E_ -09^ E_
TNE +417C_ -09^ E_
.N. +2E20_ -0F^ 4_
TNE +202E_ -09^ E_
TNE +2E2E_ -09^ E_
TNE +2D2D_ -02^ D_
TNE +2E2E_ -10^ E_

[Sample31]
TNE +2E2E_ +05^ E_
.NE +2E2E^ -09^ C_
TNE +2D2D_ -02^ D_
TNE +2E2E_ -10^ E_
TNE +2E2E_ -09^ 0_
TNE +437C_ -09^ E_
.N. +2E20_ -0A^ 4_
TNE +202E_ -09^ E_
TNE +2E2E_ -09^ E_
TNE +322D^ -02_ 3_
TNE +2E2E_ -10^ E_
TNE +2E2E_ -09^ 0_
TNE +A0D_ -09^ E_

[Pattern3]
....|.E|G#4 .... ....|G#4 .... ....|G#4 .... ....
....|.E|G#4 .... ....|G#4 .... ....|G#4 .... ....
....|.E|G#4 .... ....|G#4 ..6. ....|G#4 .... ....
....|.E|G#4 ..1. ....|G#4 .... ....|G#4 .... ....
....|.E|G#4 ..1. ....|G#4 .... ....|D-1 .... ....
....|.E|G#4 .... ....|G#4 .... ....|G#4 .... ....
....|.E|G#4 ..1. ....|G#4 ..5. ....|G#4 .... ....
....|.E|G#4 .... ....|G#4 .... ....|G#4 .... ....
....|.E|D-1 .... ....|G#4 ..3. ....|G#4 ..7. ....
....|.E|G#4 .... ....|G#4 .... ....|G#4 ..1. ....
....|.E|G#4 .... ....|G#4 ..6. ....|G#4 .... ....
....|.E|G#4 .... ....|G#4 .... ....|G#4 ..7. ....
....|.E|G#4 ..3. ....|G#4 ..3. ....|G#4 .... ....
....|.E|G#4 ..1. ....|G#4 .... ....|D-1 .... ....
....|.E|G#4 .... ....|G#4 ..4. ....|G#4 .... ....
....|.E|G#4 .... ....|G#4 .... ....|G#4 .... ....
....|.E|G#4 .... ....|G#4 ..3. ....|G#4 .... ....
....|.E|D-1 .... ....|G#4 ..3. ....|G#4 ..3. ....
....|.E|G#4 .... ....|G#4 ..6. ....|G#4 ..1. ....
....|.E|G#4 .... ....|G#4 .... ....|G#4 .... ....
....|.E|G#4 .... ....|G#4 .... ....|G#4 .... ....
....|.E|G#4 ..7. ....|G#4 .... ....|G#4 .... ....
....|.E|G#4 ..1. ....|G#4 ..5. ....|G#4 .... ....
....|.E|G#4 .... ....|G#4 .... ....|G#4 .... ....
....|.E|G#4 ..7. ....|G#4 ..3. ....|G#4 .... ....
....|.E|G#4 .... ....|G#4 ..4. ....|G#4 ..1. ....
....|.E|G#4 .... ....|G#4 ..6. ....|G#4 ..1. ....
....|.E|G#4 .... ....|G#4 .... ....|G#4 .... ....
....|.E|G#4 .... ....|G#4 ..3. ....|G#4 ..1. ....
....|.E|G#4 ..3. ....|G#4 .... ....|G#4 .... ....
....|19|G#4 ..1. ....|G#4 ..4. ....|D-1 .... ....
....|.E|G#4 .... ....|G#4 .... ....|G#4 .... ....
....|.E|G#4 .... ....|G#4 ..3. ....|G#4 .... ....
....|.E|G#4 .... ....|G#4 .... ....|G#4 .... ....
....|.E|D-1 .... ....|G#4 ..6. ....|G#4 ..3. ....
....|.E|G#4 .... ....|G#4 .... ....|G#4 ..1. ....
....|.E|G#4 .... ....|G#4 .... ....|G#4 .... ....
....|.E|G#4 .... ....|G#4 .... ....|G#4 .... ....
....|.E|G#4 ..1. ....|G#4 ..5. ....|G#4 .... ....
....|.E|G#4 ..1. ....|G#4 .... ....|D-1 .... ....
....|.E|G#4 .... ....|G#4 ..3. ....|G#4 .... ....
....|.E|G#4 ..1. ....|G#4 .... ....|G#4 .... ....
....|.E|G#4 .... ....|G#4 ..6. ....|G#4 .... ....
....|.E|G#4 .... ....|G#4 .... ....|G#4 ..7. ....
....|.E|G#4 .... ....|G#4 ..3. ....|G#4 ..1. ....
....|.E|G#4 .... ....|G#4 .... ....|G#4 .... ....
....|.E|G#4 ..3. ....|G#4 ..4. ....|G#4 ..7. ....
....|.E|G#4 ..1. ....|G#4 .... ....|G#4 .... ....
....|.E|G#4 .... ....|G#4 ..3. ....|G#4 .... ....
....|.E|G#4 .... ....|G#4 ..3. ....|G#4 .... ....
....|.E|G#4 .... ....|G#4 ..6. ....|G#4 .... ....
....|.E|D-1 .... ....|G#4 .... ....|G#4 ..3. ....
....|.E|G#4 .... ....|G#4 .... ....|G#4 ..1. ....
....|.E|G#4 .... ....|G#4 .... ....|G#4 .... ....
....|.E|G#4 .... ....|G#4 ..5. ....|G#4 .... ....
....|.E|G#4 ..6. ....|G#4 .... ....|G#4 .... ....
....|.E|G#4 ..1. ....|G#4 ..3. ....|D-1 .... ....
....|.E|G#4 .... ....|G#4 .... ....|G#4 .... ....
....|.E|G#4 ..6. ....|G#4 ..6. ....|G#4 .... ....
....|.E|G#4 .... ....|G#4 .... ....|G#4 .... ....
....|.E|D-1 .... ....|G#4 ..3. ....|G#4 ..1. ....
....|.E|G#4 .... ....|G#4 .... ....|G#4 ..1. ....
....|.E|G#4 .... ....|G#4 ..4. ....|G#4 .... ....
....|.E|G#4 .... ....|G#4 .... ....|G#4 ..1. ....
....|.E|G#4 ..3. ....|G#4 ..3. ....|G#4 .... ....
....|.E|G#4 ..1. ....|G#4 ..4. ....|G#4 .... ....
....|.E|G#4 .... ....|G#4 ..6. ....|G#4 .... ....
....|.E|G#4 .... ....|G#4 .... ....|G#4 .... ....
....|.E|G#4 .... ....|G#4 .... ....|G#4 ..3. ....
....|.E|G#4 .... ....|G#4 .... ....|G#4 ..1. ....
....|.E|G#4 .... ....|G#4 ..5. ....|G#4 .... ....
....|.E|G#4 .... ....|G#4 .... ....|G#4 .... ....
....|.E|G#4 ..1. ....|G#4 ..3. ....|G#4 .... ....
....|.E|G#4 ..1. ....|G#4 .... ....|D-1 .... ....
....|.E|G#4 .... ....|G#4 ..6. ....|G#4 .... ....
....|.E|G#4 ..1. ....|G#4 .... ....|G#4 .... ....
....|.E|G#4 .... ....|G#4 ..3. ....|G#4 .... ....
....|.E|D-1 .... ....|G#4 .... ....|G#4 ..6. ....
....|.E|G#4 .... ....|B-1 .... ....|G#4 ..1. ....
....|.E|G#4 .... ....|C-1 .... ....|G#4 .... ....
....|.E|G#4 .... ....|F-2 .... ....|G#4 ..6. ....
....|.E|G#4 ..3. ....|C-4 .... ....|G#4 .... ....
....|.E|G#4 ..1. ....|C-4 .... ....|D-1 .... ....
....|.E|G#4 .... ....|A-2 .... ....|G#4 .... ....
....|.E|G#4 .... ....|A#3 .... ....|G#4 .... ....
....|.E|G#4 .... ....|F#3 .... ....|G#4 .... ....
....|.E|D-1 .... ....|C#2 .... ....|G#4 ..3. ....
....|.E|G#4 .... ....|G#4 ..3. ....|G#4 ..1. ....
....|.E|G#4 .... ....|G#4 .... ....|G#4 .... ....
....|.E|G#4 .... ....|G#4 ..3. ....|G#4 .... ....
....|.E|G#4 ..6. ....|G#4 ..5. ....|G#4 .... ....
....|.E|G#4 ..1. ....|G#4 ..7. ....|G#4 .... ....
....|.E|G#4 .... ....|G#4 .... ....|G#4 .... ....
....|.E|G#4 ..6. ....|G#4 .... ....|G#4 .... ....
....|.E|G#4 .... ....|G#4 .... ....|G#4 ..1. ....
....|.E|G#4 .... ....|G#4 .... ....|G#4 ..1. ....
....|.E|G#4 .... ....|G#4 .... ....|G#4 .... ....
....|.E|G#4 .... ....|G#4 ..3. ....|G#4 ..1. ....
....|.E|G#4 ..3. ....|G#4 .... ....|G#4 .... ....
....|.E|G#4 ..1. ....|G#4 ..7. ....|D-1 .... ....
....|.E|G#4 .... ....|G#4 .... ....|G#4 .... ....
....|.E|G#4 .... ....|G#4 ..3. ....|G#4 .... ....
....|.E|G#4 .... ....|G#4 .... ....|G#4 .... ....
....|.E|D-1 .... ....|G#4 ..3. ....|G#4 ..3. ....
....|.E|G#4 .... ....|G#4 .... ....|G#4 ..1. ....
....|.E|G#4 .... ....|G#4 ..3. ....|G#4 .... ....
....|.E|G#4 .... ....|G#4 .... ....|G#4 .... ....
....|.E|G#4 ..7. ....|G#4 ..7. ....|G#4 .... ....
....|.E|G#4 ..7. ....|G#4 .... ....|D-1 .... ....
....|.E|G#4 .... ....|G#4 .... ....|G#4 .... ....
....|.E|G#4 ..7. ....|G#4 .... ....|G#4 .... ....
....|.E|G#4 .... ....|G#4 .... ....|G#4 .... ....
....|.E|G#4 .... ....|G#4 .... ....|G#4 ..6. ....
....|.E|G#4 .... ....|G#4 ..3. ....|G#4 ..1. ....
....|.E|G#4 .... ....|G#4 .... ....|G#4 .... ....
....|.E|G#4 ..3. ....|G#4 ..7. ....|G#4 ..6. ....
....|.E|G#4 ..7. ....|G#4 .... ....|G#4 .... ....
....|.E|G#4 .... ....|G#4 ..3. ....|G#4 .... ....
....|.E|G#4 .... ....|G#4 .... ....|G#4 .... ....
....|.E|G#4 .... ....|G#4 ..3. ....|G#4 .... ....
....|.E|D-1 .... ....|G#4 .... ....|G#4 ..3. ....
....|.E|G#4 .... ....|G#4 ..3. ....|G#4 ..1. ....
....|.E|G#4 .... ....|G#4 .... ....|G#4 .... ....
....|.E|G#4 .... ....|G#4 ..7. ....|G#4 .... ....
....|.E|G#4 ..5. ....|G#4 .... ....|G#4 .... ....
....|.E|G#4 ..7. ....|G#4 .... ....|D-1 .... ....
....|.E|G#4 .... ....|G#4 .... ....|G#4 .... ....
....|.E|G#4 ..5. ....|G#4 .... ....|G#4 .... ....
....|.E|G#4 .... ....|G#4 .... ....|G#4 .... ....
....|.E|D-1 .... ....|G#4 ..3. ....|G#4 ..7. ....
....|.E|G#4 .... ....|G#4 .... ....|G#4 ..7. ....
....|.E|G#4 .... ....|G#4 ..7. ....|G#4 .... ....
....|.E|G#4 .... ....|G#4 .... ....|G#4 ..7. ....
....|.E|G#4 ..3. ....|G#4 ..3. ....|G#4 .... ....
....|.E|G#4 ..7. ....|G#4 .... ....|G#4 .... ....
....|.E|G#4 .... ....|G#4 ..3. ....|G#4 .... ....
....|.E|G#4 .... ....|G#4 .... ....|G#4 .... ....
....|.E|G#4 .... ....|G#4 ..3. ....|G#4 ..3. ....
....|.E|G#4 .... ....|G#4 ..6. ....|G#4 ..7. ....
....|.E|G#4 .... ....|G#4 ..7. ....|G#4 .... ....
....|.E|G#4 .... ....|G#4 .... ....|G#4 .... ....
....|.E|G#4 ..7. ....|G#4 .... ....|G#4 .... ....
....|.E|G#4 ..7. ....|G#4 .... ....|D-1 .... ....
....|.E|G#4 .... ....|G#4 .... ....|G#4 .... ....
....|.E|G#4 ..7. ....|G#4 .... ....|G#4 .... ....
....|.E|G#4 .... ....|G#4 ..3. ....|G#4 .... ....
....|.E|D-1 .... ....|G#4 .... ....|G#4 ..5. ....
....|.E|G#4 .... ....|G#4 ..7. ....|G#4 ..7. ....
....|.E|G#4 .... ....|G#4 .... ....|G#4 .... ....
....|.E|G#4 .... ....|G#4 ..3. ....|G#4 ..5. ....
....|.E|G#4 ..3. ....|G#4 .... ....|G#4 .... ....
....|18|G#4 ..7. ....|G#4 ..3. ....|D-1 .... ....
....|.E|G#4 .... ....|G#4 .... ....|G#4 .... ....
....|.E|G#4 .... ....|G#4 ..3. ....|G#4 .... ....
....|.E|G#4 .... ....|G#4 ..4. ....|G#4 .... ....
....|.E|D-1 .... ....|G#4 ..7. ....|G#4 ..3. ....
....|.E|G#4 .... ....|G#4 .... ....|G#4 ..7. ....
....|.E|G#4 .... ....|G#4 .... ....|G#4 .... ....
....|.E|G#4 .... ....|G#4 .... ....|G#4 .... ....
....|.E|G#4 ..5. ....|G#4 .... ....|G#4 .... ....
....|.E|G#4 ..7. ....|G#4 .... ....|G#4 .... ....
....|.E|G#4 .... ....|G#4 ..3. ....|G#4 .... ....
....|.E|G#4 ..5. ....|G#4 .... ....|G#4 .... ....
....|.E|G#4 .... ....|G#4 ..7. ....|G#4 ..7. ....
....|.E|G#4 .... ....|G#4 .... ....|G#4 ..7. ....
....|.E|G#4 .... ....|G#4 ..3. ....|G#4 .... ....
....|.E|G#4 .... ....|G#4 .... ....|G#4 ..7. ....
....|.E|G#4 ..3. ....|G#4 ..3. ....|G#4 .... ....
....|.E|G#4 ..7. ....|G#4 .... ....|D-1 .... ....
....|.E|G#4 .... ....|G#4 ..3. ....|G#4 .... ....
....|.E|G#4 .... ....|G#4 .... ....|G#4 .... ....
....|.E|G#4 .... ....|G#4 ..7. ....|G#4 .... ....
....|.E|D-1 .... ....|G#4 .... ....|G#4 ..3. ....
....|.E|B-1 .... ....|G#4 .... ....|G#4 ..7. ....
....|.E|C-1 .... ....|G#4 .... ....|G#4 .... ....
....|.E|F-2 .... ....|G#4 .... ....|G#4 .... ....
....|.E|C-4 .... ....|G#4 .... ....|G#4 .... ....
....|.E|C-4 .... ....|G#4 ..3. ....|D-1 .... ....
....|.E|A-2 .... ....|G#4 .... ....|G#4 .... ....
....|.E|A#3 .... ....|G#4 ..7. ....|G#4 .... ....
....|.E|F#3 .... ....|G#4 .... ....|G#4 .... ....
....|.E|C#2 .... ....|G#4 ..3. ....|G#4 ..5. ....
....|.E|G#4 .... ....|G#4 .... ....|G#4 ..7. ....
....|.E|G#4 .... ....|G#4 ..1. ....|G#4 .... ....
....|.E|G#4 ..3. ....|G#4 .... ....|G#4 ..5. ....
....|.E|G#4 ..7. ....|G#4 ..3. ....|G#4 .... ....
....|.E|G#4 ..2. ....|G#4 ..3. ....|G#4 .... ....
....|.E|G#4 .... ....|G#4 ..4. ....|G#4 .... ....
....|.E|G#4 .... ....|G#4 .... ....|G#4 .... ....
....|.E|G#4 .... ....|G#4 .... ....|G#4 ..3. ....
....|.E|G#4 .... ....|G#4 .... ....|G#4 ..7. ....
....|.E|G#4 .... ....|G#4 ..4. ....|G#4 .... ....
....|.E|G#4 ..3. ....|G#4 .... ....|G#4 .... ....
....|.E|D-1 .... ....|G#4 ..3. ....|G#4 .... ....
....|.E|G#4 .... ....|G#4 .... ....|D-1 .... ....
....|.E|G#4 ..6. ....|G#4 ..6. ....|B-1 .... ....
....|.E|G#4 .... ....|G#4 .... ....|C-1 .... ....
....|.E|G#4 .... ....|G#4 .... ....|F-2 .... ....
....|.E|G#4 .... ....|G#4 .... ....|C-4 .... ....
....|16|G#4 .... ....|G#4 ..1. ....|C-4 .... ....
....|.E|G#4 .... ....|G#4 .... ....|A-2 .... ....
....|.E|G#4 ..3. ....|G#4 ..3. ....|A#3 .... ....
....|.E|G#4 .... ....|G#4 ..2. ....|F#3 .... ....
....|12|G#4 ..3. ....|G#4 ..5. ....|C#2 .... ....
....|18|G#4 .... ....|G#4 .... ....|G#4 .... ....
....|.E|G#4 .... ....|G#4 .... ....|G#4 .... ....
....|.E|G#4 .... ....|G#4 .... ....|G#4 ..3. ....
....|.E|G#4 .... ....|G#4 ..3. ....|G#4 ..7. ....
....|.E|G#4 .... ....|G#4 .... ....|G#4 ..2. ....
....|.E|G#4 ..3. ....|G#4 ..3. ....|G#4 .... ....
....|.E|G#4 .... ....|G#4 .... ....|G#4 .... ....
....|.E|G#4 ..3. ....|G#4 ..7. ....|G#4 .... ....
....|.E|G#4 .... ....|G#4 .... ....|G#4 .... ....
....|.E|G#4 .... ....|G#4 .... ....|G#4 .... ....
....|.E|G#4 .... ....|G#4 .... ....|G#4 ..3. ....
....|.E|G#4 .... ....|B-1 .... ....|D-1 .... ....
....|.E|G#4 .... ....|C-1 .... ....|G#4 .... ....
....|.E|G#4 ..3. ....|F-2 .... ....|G#4 ..6. ....
....|.E|G#4 .... ....|C-4 .... ....|G#4 .... ....
....|.E|G#4 ..3. ....|C-4 .... ....|G#4 .... ....
....|.E|G#4 .... ....|A-2 .... ....|G#4 .... ....
....|.E|G#4 .... ....|A#3 .... ....|G#4 .... ....
....|.E|G#4 .... ....|F#3 .... ....|G#4 .... ....
....|.E|G#4 .... ....|C#2 .... ....|G#4 ..3. ....
....|.E|G#4 .... ....|G#4 ..1. ....|G#4 .... ....
....|.E|G#4 ..3. ....|G#4 .... ....|G#4 ..3. ....
....|.E|G#4 .... ....|G#4 ..3. ....|G#4 .... ....
....|.E|G#4 ..3. ....|G#4 ..6. ....|G#4 .... ....
....|.E|G#4 .... ....|G#4 ..4. ....|G#4 .... ....
....|.E|G#4 .... ....|G#4 .... ....|G#4 .... ....
....|.E|G#4 .... ....|G#4 .... ....|G#4 .... ....
....|.E|G#4 .... ....|G#4 .... ....|G#4 ..3. ....
....|.E|G#4 .... ....|G#4 ..4. ....|G#4 .... ....
....|.E|G#4 ..3. ....|G#4 .... ....|G#4 ..3. ....
....|.E|G#4 ..6. ....|G#4 ..3. ....|G#4 .... ....
....|.E|G#4 ..3. ....|G#4 .... ....|G#4 .... ....
....|.E|G#4 .... ....|G#4 ..4. ....|G#4 .... ....
....|.E|G#4 .... ....|G#4 .... ....|G#4 .... ....
....|.E|G#4 .... ....|G#4 ..3. ....|G#4 .... ....
....|.E|G#4 .... ....|G#4 .... ....|G#4 ..3. ....
....|.E|G#4 .... ....|G#4 ..1. ....|G#4 .... ....
....|.E|G#4 ..3. ....|G#4 .... ....|G#4 ..3. ....
....|.E|G#4 ..5. ....|G#4 ..3. ....|G#4 .... ....
....|.E|G#4 ..3. ....|G#4 .... ....|G#4 .... ....
....|.E|G#4 .... ....|G#4 ..4. ....|G#4 .... ....
....|.E|G#4 .... ....|G#4 .... ....|G#4 .... ....
....|.E|G#4 .... ....|G#4 .... ....|G#4 .... ....
....|.E|G#4 .... ....|G#4 .... ....|G#4 ..3. ....
....|.E|G#4 .... ....|G#4 ..4. ....|G#4 .... ....
....|.E|G#4 ..3. ....|G#4 .... ....|G#4 ..3. ....
....|.E|G#4 .... ....|G#4 ..3. ....|G#4 .... ....
....|.E|G#4 ..2. ....|G#4 .... ....|G#4 .... ....
....|.E|G#4 .... ....|G#4 ..4. ....|G#4 .... ....
....|.E|G#4 .... ....|G#4 .... ....|G#4 .... ....
....|.E|G#4 .... ....|G#4 ..3. ....|G#4 .... ....
....|.E|G#4 .... ....|G#4 .... ....|G#4 ..3. ....

[Pattern4]
....|.E|G#4 .... ....|G#4 .... ....|G#4 .... ....
....|.E|G#4 .... ....|G#4 .... ....|G#4 .... ....
....|.E|G#4 .... ....|G#4 .... ....|G#4 .... ....
....|.E|G#4 ..3. ....|G#4 ..1. ....|G#4 ..1. ....
....|.E|G#4 .... ....|G#4 ..1. ....|G#4 ..1. ....
....|.E|G#4 .... ....|G#4 .... ....|G#4 .... ....
....|.E|G#4 .... ....|G#4 ..1. ....|G#4 ..1. ....
....|.E|G#4 .... ....|G#4 .... ....|G#4 .... ....
....|.E|G#4 .... ....|D-1 .... ....|D-1 .... ....
....|.E|G#4 .... ....|G#4 .... ....|G#4 .... ....
....|.E|G#4 .... ....|G#4 .... ....|G#4 .... ....
....|.E|G#4 ..7. ....|G#4 .... ....|G#4 .... ....
....|.E|G#4 .... ....|G#4 ..3. ....|G#4 ..3. ....
....|.E|G#4 .... ....|G#4 ..1. ....|G#4 ..1. ....
....|.E|G#4 ..7. ....|G#4 .... ....|G#4 .... ....
....|.E|G#4 .... ....|G#4 .... ....|G#4 .... ....
....|.E|G#4 .... ....|G#4 .... ....|G#4 .... ....
....|.E|G#4 .... ....|D-1 .... ....|D-1 .... ....
....|.E|G#4 .... ....|G#4 .... ....|G#4 .... ....
....|.E|G#4 ..3. ....|G#4 .... ....|G#4 .... ....
....|.E|G#4 .... ....|G#4 .... ....|G#4 .... ....
....|.E|G#4 .... ....|G#4 ..7. ....|G#4 ..7. ....
....|.E|G#4 .... ....|G#4 ..1. ....|G#4 ..1. ....
....|.E|G#4 .... ....|G#4 .... ....|G#4 .... ....
....|.E|G#4 .... ....|G#4 ..7. ....|G#4 ..7. ....
....|.E|G#4 .... ....|G#4 .... ....|G#4 .... ....
....|.E|G#4 .... ....|G#4 .... ....|G#4 .... ....
....|.E|G#4 ..2. ....|G#4 .... ....|G#4 .... ....
....|.E|G#4 ..3. ....|G#4 .... ....|G#4 .... ....
....|.E|G#4 .... ....|G#4 ..3. ....|G#4 ..3. ....
....|.E|G#4 ..2. ....|G#4 ..1. ....|G#4 ..1. ....
....|.E|G#4 .... ....|G#4 .... ....|G#4 .... ....
....|.E|G#4 .... ....|G#4 .... ....|G#4 .... ....
....|.E|G#4 .... ....|G#4 .... ....|G#4 .... ....
....|.E|G#4 .... ....|D-1 .... ....|D-1 .... ....
....|.E|G#4 ..3. ....|G#4 .... ....|G#4 .... ....
....|.E|G#4 .... ....|G#4 .... ....|G#4 .... ....
....|.E|G#4 .... ....|G#4 .... ....|G#4 .... ....
....|.E|G#4 .... ....|G#4 ..1. ....|G#4 ..1. ....
....|.E|G#4 .... ....|G#4 ..1. ....|G#4 ..1. ....
....|.E|G#4 .... ....|G#4 .... ....|G#4 .... ....
....|.E|G#4 .... ....|G#4 ..1. ....|G#4 ..1. ....
....|.E|G#4 .... ....|G#4 .... ....|G#4 .... ....
....|.E|G#4 ..7. ....|G#4 .... ....|G#4 .... ....
....|.E|G#4 .... ....|G#4 .... ....|G#4 .... ....
....|.E|G#4 .... ....|G#4 .... ....|G#4 .... ....
....|.E|G#4 ..7. ....|G#4 ..3. ....|G#4 ..3. ....
....|.E|G#4 .... ....|G#4 ..1. ....|G#4 ..1. ....
....|.E|G#4 .... ....|G#4 .... ....|G#4 .... ....
....|.E|G#4 .... ....|G#4 .... ....|G#4 .... ....
....|.E|G#4 .... ....|G#4 .... ....|G#4 .... ....
....|.E|G#4 ..3. ....|D-1 .... ....|D-1 .... ....
....|.E|G#4 .... ....|G#4 .... ....|G#4 .... ....
....|.E|G#4 .... ....|G#4 .... ....|G#4 .... ....
....|.E|G#4 .... ....|G#4 .... ....|G#4 .... ....
....|.E|G#4 .... ....|G#4 ..6. ....|G#4 ..6. ....
....|.E|G#4 .... ....|G#4 ..1. ....|G#4 ..1. ....
....|.E|G#4 .... ....|G#4 .... ....|G#4 .... ....
....|.E|G#4 .... ....|G#4 ..6. ....|G#4 ..6. ....
....|.E|G#4 ..3. ....|G#4 .... ....|G#4 .... ....
....|.E|G#4 ..4. ....|D-1 .... ....|D-1 .... ....
....|.E|G#4 .... ....|G#4 .... ....|G#4 .... ....
....|.E|G#4 ..3. ....|G#4 .... ....|G#4 .... ....
....|.E|G#4 .... ....|G#4 .... ....|G#4 .... ....
....|.E|G#4 .... ....|G#4 ..3. ....|G#4 ..3. ....
....|.E|G#4 .... ....|G#4 ..1. ....|G#4 ..1. ....
....|.E|G#4 .... ....|G#4 .... ....|G#4 .... ....
....|.E|G#4 ..3. ....|G#4 .... ....|G#4 .... ....
....|.E|G#4 .... ....|G#4 .... ....|G#4 .... ....
....|.E|G#4 .... ....|G#4 .... ....|G#4 .... ....
....|.E|G#4 .... ....|G#4 .... ....|G#4 .... ....
....|.E|G#4 .... ....|G#4 .... ....|G#4 .... ....
....|.E|G#4 .... ....|G#4 ..1. ....|G#4 ..1. ....
....|.E|G#4 .... ....|G#4 ..1. ....|G#4 ..1. ....
....|.E|G#4 .... ....|G#4 .... ....|G#4 .... ....
....|.E|G#4 ..6. ....|G#4 ..1. ....|G#4 ..1. ....
....|.E|G#4 .... ....|G#4 .... ....|G#4 .... ....
....|.E|G#4 .... ....|D-1 .... ....|D-1 .... ....
....|.E|G#4 ..6. ....|G#4 .... ....|G#4 .... ....
....|.E|G#4 .... ....|G#4 .... ....|G#4 .... ....
....|.E|G#4 .... ....|G#4 .... ....|G#4 .... ....
....|.E|G#4 .... ....|G#4 ..3. ....|G#4 ..3. ....
....|.E|G#4 .... ....|G#4 ..1. ....|G#4 ..1. ....
....|.E|G#4 ..3. ....|G#4 .... ....|G#4 .... ....
....|.E|G#4 .... ....|G#4 .... ....|G#4 .... ....
....|.E|G#4 .... ....|G#4 .... ....|G#4 .... ....
....|.E|G#4 .... ....|D-1 .... ....|D-1 .... ....
....|.E|G#4 .... ....|G#4 .... ....|G#4 .... ....
....|.E|G#4 .... ....|G#4 .... ....|G#4 .... ....
....|.E|G#4 .... ....|G#4 .... ....|G#4 .... ....
....|.E|G#4 .... ....|G#4 ..6. ....|G#4 ..6. ....
....|.E|G#4 ..4. ....|G#4 ..1. ....|G#4 ..1. ....
....|.E|G#4 ..5. ....|G#4 .... ....|G#4 .... ....
....|.E|G#4 .... ....|G#4 ..6. ....|G#4 ..6. ....
....|.E|G#4 ..4. ....|G#4 .... ....|G#4 .... ....
....|.E|G#4 .... ....|G#4 .... ....|G#4 .... ....
....|.E|G#4 .... ....|G#4 .... ....|G#4 .... ....
....|.E|G#4 .... ....|G#4 .... ....|G#4 .... ....
....|.E|G#4 .... ....|G#4 ..3. ....|G#4 ..3. ....
....|.E|G#4 ..3. ....|G#4 ..1. ....|G#4 ..1. ....
....|.E|G#4 .... ....|G#4 .... ....|G#4 .... ....
....|.E|G#4 .... ....|G#4 .... ....|G#4 .... ....
....|.E|G#4 .... ....|G#4 .... ....|G#4 .... ....
....|.E|G#4 .... ....|D-1 .... ....|D-1 .... ....
....|.E|G#4 .... ....|G#4 .... ....|G#4 .... ....
....|.E|G#4 .... ....|G#4 .... ....|G#4 .... ....
....|.E|G#4 .... ....|G#4 .... ....|G#4 .... ....
....|.E|G#4 ..6. ....|G#4 ..7. ....|G#4 ..7. ....
....|.E|G#4 .... ....|G#4 ..7. ....|G#4 ..7. ....
....|.E|G#4 .... ....|G#4 .... ....|G#4 .... ....
....|.E|G#4 ..6. ....|G#4 ..7. ....|G#4 ..7. ....
....|.E|G#4 .... ....|G#4 .... ....|G#4 .... ....
....|.E|G#4 .... ....|G#4 .... ....|G#4 .... ....
....|.E|G#4 .... ....|G#4 .... ....|G#4 .... ....
....|.E|G#4 .... ....|G#4 .... ....|G#4 .... ....
....|.E|G#4 ..3. ....|G#4 ..3. ....|G#4 ..3. ....
....|.E|G#4 .... ....|G#4 ..7. ....|G#4 ..7. ....
....|.E|G#4 .... ....|G#4 .... ....|G#4 .... ....
....|.E|G#4 .... ....|G#4 .... ....|G#4 .... ....
....|.E|G#4 .... ....|G#4 .... ....|G#4 .... ....
....|.E|G#4 .... ....|D-1 .... ....|D-1 .... ....
....|.E|G#4 .... ....|G#4 .... ....|G#4 .... ....
....|.E|G#4 .... ....|G#4 .... ....|G#4 .... ....
....|.E|G#4 ..5. ....|G#4 .... ....|G#4 .... ....
....|.E|G#4 ..6. ....|G#4 ..5. ....|G#4 ..5. ....
....|.E|G#4 .... ....|G#4 ..7. ....|G#4 ..7. ....
....|.E|G#4 ..5. ....|G#4 .... ....|G#4 .... ....
....|.E|G#4 .... ....|G#4 ..5. ....|G#4 ..5. ....
....|.E|G#4 .... ....|G#4 .... ....|G#4 .... ....
....|.E|G#4 .... ....|D-1 .... ....|D-1 .... ....
....|.E|G#4 .... ....|G#4 .... ....|G#4 .... ....
....|.E|G#4 ..3. ....|G#4 .... ....|G#4 .... ....
....|.E|G#4 .... ....|G#4 .... ....|G#4 .... ....
....|.E|G#4 .... ....|G#4 ..3. ....|G#4 ..3. ....
....|.E|G#4 .... ....|G#4 ..7. ....|G#4 ..7. ....
....|.E|G#4 .... ....|G#4 .... ....|G#4 .... ....
....|.E|G#4 .... ....|G#4 .... ....|G#4 .... ....
....|.E|G#4 .... ....|G#4 .... ....|G#4 .... ....
....|.E|G#4 .... ....|G#4 .... ....|G#4 .... ....
....|.E|G#4 ..5. ....|G#4 .... ....|G#4 .... ....
....|.E|G#4 .... ....|G#4 .... ....|G#4 .... ....
....|.E|G#4 .... ....|G#4 ..7. ....|G#4 ..7. ....
....|.E|G#4 ..5. ....|G#4 ..7. ....|G#4 ..7. ....
....|.E|G#4 .... ....|G#4 .... ....|G#4 .... ....
....|.E|G#4 .... ....|G#4 ..7. ....|G#4 ..7. ....
....|.E|G#4 .... ....|G#4 .... ....|G#4 .... ....
....|.E|G#4 .... ....|D-1 .... ....|D-1 .... ....
....|.E|G#4 ..3. ....|G#4 .... ....|G#4 .... ....
....|.E|G#4 .... ....|G#4 .... ....|G#4 .... ....
....|.E|G#4 .... ....|G#4 .... ....|G#4 .... ....
....|.E|G#4 .... ....|G#4 ..3. ....|G#4 ..3. ....
....|.E|G#4 .... ....|G#4 ..7. ....|G#4 ..7. ....
....|.E|G#4 .... ....|G#4 .... ....|G#4 .... ....
....|.E|G#4 .... ....|G#4 .... ....|G#4 .... ....
....|.E|G#4 .... ....|G#4 .... ....|G#4 .... ....
....|.E|G#4 ..7. ....|D-1 .... ....|D-1 .... ....
....|.E|G#4 .... ....|G#4 .... ....|G#4 .... ....
....|.E|G#4 .... ....|G#4 .... ....|G#4 .... ....
....|.E|G#4 ..7. ....|G#4 .... ....|G#4 .... ....
....|.E|G#4 .... ....|G#4 ..5. ....|G#4 ..5. ....
....|.E|G#4 .... ....|G#4 ..7. ....|G#4 ..7. ....
....|.E|G#4 .... ....|G#4 .... ....|G#4 .... ....
....|.E|G#4 .... ....|G#4 ..5. ....|G#4 ..5. ....
....|.E|G#4 ..3. ....|G#4 .... ....|G#4 .... ....
....|.E|G#4 .... ....|G#4 .... ....|G#4 .... ....
....|.E|G#4 .... ....|G#4 .... ....|G#4 .... ....
....|.E|G#4 .... ....|G#4 .... ....|G#4 .... ....
....|.E|G#4 .... ....|G#4 ..3. ....|G#4 ..3. ....
....|.E|G#4 .... ....|G#4 ..7. ....|G#4 ..7. ....
....|.E|G#4 .... ....|G#4 .... ....|G#4 .... ....
....|.E|G#4 .... ....|G#4 .... ....|G#4 .... ....
....|.E|G#4 ..5. ....|G#4 .... ....|G#4 .... ....
....|.E|G#4 .... ....|D-1 .... ....|D-1 .... ....
....|.E|G#4 .... ....|B-1 .... ....|B-1 .... ....
....|.E|G#4 ..5. ....|C-1 .... ....|C-1 .... ....
....|.E|G#4 .... ....|F-2 .... ....|F-2 .... ....
....|.E|G#4 .... ....|C-4 .... ....|C-4 .... ....
....|.E|G#4 .... ....|C-4 .... ....|C-4 .... ....
....|.E|G#4 .... ....|A-2 .... ....|A-2 .... ....
....|.E|G#4 ..3. ....|A#3 .... ....|A#3 .... ....
....|.E|G#4 .... ....|F#3 .... ....|F#3 .... ....
....|12|G#4 .... ....|C#2 .... ....|C#2 .... ....
....|18|G#4 .... ....|G#4 .... ....|G#4 .... ....
....|.E|G#4 .... ....|G#4 .... ....|G#4 .... ....
....|.E|B-1 .... ....|G#4 ..3. ....|G#4 ..3. ....
....|.E|C-1 .... ....|G#4 ..7. ....|G#4 ..7. ....
....|.E|F-2 .... ....|G#4 ..2. ....|G#4 ..2. ....
....|.E|C-4 .... ....|G#4 .... ....|G#4 .... ....
....|.E|C-4 .... ....|G#4 .... ....|G#4 .... ....
....|.E|A-2 .... ....|G#4 .... ....|G#4 .... ....
....|.E|A#3 .... ....|G#4 .... ....|G#4 .... ....
....|.E|F#3 .... ....|G#4 .... ....|G#4 .... ....
....|.E|C#2 .... ....|G#4 ..3. ....|G#4 ..3. ....
....|.E|G#4 .... ....|D-1 .... ....|D-1 .... ....
....|.E|G#4 .... ....|G#4 .... ....|G#4 .... ....
....|.E|G#4 .... ....|G#4 ..6. ....|G#4 ..6. ....
....|.E|G#4 ..2. ....|G#4 .... ....|G#4 .... ....
....|.E|G#4 ..6. ....|G#4 .... ....|G#4 .... ....
....|.E|G#4 .... ....|G#4 .... ....|G#4 .... ....
....|.E|G#4 ..5. ....|G#4 .... ....|G#4 .... ....
....|.E|G#4 .... ....|G#4 .... ....|G#4 .... ....
....|.E|G#4 .... ....|G#4 ..3. ....|G#4 ..3. ....
....|.E|G#4 .... ....|G#4 .... ....|G#4 .... ....
....|.E|G#4 .... ....|G#4 ..3. ....|G#4 ..3. ....
....|.E|G#4 ..3. ....|G#4 .... ....|G#4 .... ....
....|.E|G#4 ..3. ....|G#4 .... ....|G#4 .... ....
....|.E|G#4 .... ....|G#4 .... ....|G#4 .... ....
....|.E|G#4 .... ....|G#4 .... ....|G#4 .... ....
....|.E|G#4 .... ....|G#4 .... ....|G#4 .... ....
....|.E|D-1 .... ....|G#4 ..3. ....|G#4 ..3. ....
....|.E|G#4 .... ....|G#4 .... ....|G#4 .... ....
....|.E|G#4 .... ....|G#4 ..3. ....|G#4 ..3. ....
....|.E|G#4 .... ....|G#4 .... ....|G#4 .... ....
....|.E|G#4 ..7. ....|G#4 .... ....|G#4 .... ....
....|.E|G#4 ..3. ....|G#4 .... ....|G#4 .... ....
....|.E|G#4 .... ....|G#4 .... ....|G#4 .... ....
....|.E|G#4 ..7. ....|G#4 .... ....|G#4 .... ....
....|.E|G#4 .... ....|G#4 ..3. ....|G#4 ..3. ....
....|.E|D-1 .... ....|G#4 .... ....|G#4 .... ....
....|.E|G#4 .... ....|G#4 ..3. ....|G#4 ..3. ....
....|.E|G#4 .... ....|G#4 .... ....|G#4 .... ....
....|.E|G#4 .... ....|G#4 .... ....|G#4 .... ....
....|.E|G#4 ..3. ....|G#4 .... ....|G#4 .... ....
....|.E|G#4 ..3. ....|G#4 .... ....|G#4 .... ....
....|.E|G#4 .... ....|G#4 .... ....|G#4 .... ....
....|.E|G#4 .... ....|G#4 ..3. ....|G#4 ..3. ....
....|.E|G#4 .... ....|G#4 .... ....|G#4 .... ....
....|.E|G#4 .... ....|G#4 ..3. ....|G#4 ..3. ....
....|.E|G#4 .... ....|G#4 .... ....|G#4 .... ....
....|.E|G#4 .... ....|G#4 .... ....|G#4 .... ....
....|.E|G#4 ..3. ....|G#4 .... ....|G#4 .... ....
....|.E|G#4 ..3. ....|G#4 .... ....|G#4 .... ....
....|.E|G#4 .... ....|G#4 .... ....|G#4 .... ....
....|.E|G#4 ..3. ....|G#4 ..3. ....|G#4 ..3. ....
....|.E|G#4 .... ....|G#4 ..6. ....|G#4 ..6. ....
....|.E|D-1 .... ....|G#4 ..3. ....|G#4 ..3. ....
....|.E|G#4 .... ....|G#4 .... ....|G#4 .... ....
....|.E|G#4 .... ....|G#4 .... ....|G#4 .... ....
....|.E|G#4 .... ....|G#4 .... ....|G#4 .... ....
....|.E|G#4 ..3. ....|G#4 .... ....|G#4 .... ....
....|.E|G#4 ..3. ....|G#4 .... ....|G#4 .... ....
....|.E|G#4 .... ....|G#4 ..3. ....|G#4 ..3. ....
....|.E|G#4 .... ....|G#4 ..5. ....|G#4 ..5. ....
....|.E|G#4 .... ....|G#4 ..3. ....|G#4 ..3. ....
....|.E|D-1 .... ....|G#4 .... ....|G#4 .... ....
....|.E|G#4 .... ....|G#4 .... ....|G#4 .... ....
....|.E|G#4 .... ....|G#4 .... ....|G#4 .... ....
....|18|G#4 .... ....|G#4 .... ....|G#4 .... ....
....|.E|G#4 ..7. ....|G#4 .... ....|G#4 .... ....
....|.E|G#4 ..3. ....|G#4 ..3. ....|G#4 ..3. ....
....|.E|G#4 .... ....|G#4 .... ....|G#4 .... ....
....|.E|G#4 ..7. ....|G#4 ..2. ....|G#4 ..2. ....
....|.E|G#4 .... ....|G#4 .... ....|G#4 .... ....
....|.E|G#4 .... ....|G#4 .... ....|G#4 .... ....
....|.E|G#4 .... ....|G#4 .... ....|G#4 .... ....
....|.E|G#4 .... ....|G#4 .... ....|G#4 .... ....

[Pattern14]
....|.E|G#4 .... ....|D#2 .... ....|G#4 .... ....
....|.E|G#4 .... ....|D#2 ..1. ....|G#4 .... ....
....|.E|G#4 .... ....|E-1 .... ....|G#4 .... ....
....|.E|G#4 ..1. ....|F#3 .... ....|G#4 ..1. ....
....|.E|G#4 ..1. ....|A-2 .... ....|G#4 ..1. ....
....|.E|G#4 .... ....|D#2 .... ....|G#4 .... ....
....|.E|G#4 ..1. ....|D#2 .... ....|G#4 ..1. ....
....|.E|G#4 .... ....|D#2 ..1. ....|G#4 .... ....
....|.E|D-1 .... ....|E-1 .... ....|D-1 .... ....
....|.E|G#4 .... ....|F#3 .... ....|G#4 .... ....
....|.E|G#4 .... ....|A-2 .... ....|G#4 .... ....
....|.E|G#4 .... ....|D#2 .... ....|G#4 .... ....
....|.E|G#4 ..3. ....|D#2 .... ....|G#4 ..3. ....
....|.E|G#4 ..1. ....|D#2 ..1. ....|G#4 ..1. ....
....|.E|G#4 .... ....|E-1 .... ....|G#4 .... ....
....|.E|G#4 .... ....|F#3 .... ....|G#4 .... ....
....|.E|G#4 .... ....|A-2 .... ....|G#4 .... ....
....|10|D-1 .... ....|D#2 .... ....|D-1 .... ....
....|.E|G#4 .... ....|D#2 .... ....|G#4 .... ....
....|.E|G#4 .... ....|D#2 .... ....|G#4 .... ....
....|.E|G#4 .... ....|E-1 .... ....|G#4 .... ....
....|.E|G#4 ..7. ....|F#3 .... ....|G#4 ..7. ....
....|.E|G#4 ..1. ....|A-2 .... ....|G#4 ..1. ....
....|.E|G#4 .... ....|D#2 .... ....|G#4 .... ....
....|.E|G#4 ..7. ....|D#2 .... ....|G#4 ..7. ....
....|.E|G#4 .... ....|D#2 .... ....|G#4 .... ....
....|.E|G#4 .... ....|E-1 .... ....|G#4 .... ....
....|.E|G#4 .... ....|F#3 .... ....|G#4 .... ....
....|.E|G#4 .... ....|A-2 .... ....|G#4 .... ....
....|.E|G#4 ..3. ....|D#2 .... ....|G#4 ..3. ....
....|.E|G#4 ..1. ....|D#2 .... ....|G#4 ..1. ....
....|.E|G#4 .... ....|D#2 .... ....|G#4 .... ....
....|.E|G#4 .... ....|E-1 ..C. ....|G#4 .... ....
....|.E|G#4 .... ....|F#3 .... ....|G#4 .... ....
....|.E|D-1 .... ....|A-2 .... ....|D-1 .... ....
....|.E|G#4 .... ....|D#2 .... ....|G#4 .... ....
....|.E|G#4 .... ....|D#2 .... ....|G#4 .... ....
....|.E|G#4 .... ....|D#2 .... ....|G#4 .... ....
....|.E|G#4 ..1. ....|E-1 .... ....|G#4 ..1. ....
....|.E|G#4 ..1. ....|F#3 .... ....|G#4 ..1. ....
....|.E|G#4 .... ....|A-2 .... ....|G#4 .... ....
....|.E|G#4 ..1. ....|D#2 .... ....|G#4 ..1. ....
....|.E|G#4 .... ....|D#2 .... ....|G#4 .... ....
....|.E|G#4 .... ....|D#2 .... ....|G#4 .... ....
....|.E|G#4 .... ....|E-1 .... ....|G#4 .... ....
....|.E|G#4 .... ....|F#3 .... ....|G#4 .... ....
....|.E|G#4 ..3. ....|A-2 .... ....|G#4 ..3. ....
....|.E|G#4 ..1. ....|D#2 .... ....|G#4 ..1. ....
....|.E|G#4 .... ....|D#2 .... ....|G#4 .... ....
....|.E|G#4 .... ....|D#2 .... ....|G#4 .... ....
....|.E|G#4 .... ....|E-1 .... ....|G#4 .... ....
....|.E|D-1 .... ....|F#3 .... ....|D-1 .... ....
....|.E|G#4 .... ....|A-2 .... ....|G#4 .... ....
....|.E|G#4 .... ....|D#2 .... ....|G#4 .... ....
....|.E|G#4 .... ....|D#2 .... ....|G#4 .... ....
....|.E|G#4 ..6. ....|D#2 .... ....|G#4 ..6. ....
....|.E|G#4 ..1. ....|E-1 .... ....|G#4 ..1. ....
....|.E|G#4 .... ....|F#3 .... ....|G#4 .... ....
....|.E|G#4 ..6. ....|A-2 .... ....|G#4 ..6. ....
....|.E|G#4 .... ....|D#2 .... ....|G#4 .... ....
....|10|D-1 .... ....|D#2 .... ....|D-1 .... ....
....|.E|G#4 .... ....|D#2 .... ....|G#4 .... ....
....|.E|G#4 .... ....|E-1 .... ....|G#4 .... ....
....|.E|G#4 .... ....|F#3 .... ....|G#4 .... ....
....|.E|G#4 ..3. ....|A-2 .... ....|G#4 ..3. ....
....|.E|G#4 ..1. ....|D#2 .... ....|G#4 ..1. ....
....|.E|G#4 .... ....|D#2 .... ....|G#4 .... ....
....|.E|G#4 .... ....|D#2 .... ....|G#4 .... ....
....|.E|G#4 .... ....|E-1 .... ....|G#4 .... ....
....|.E|G#4 .... ....|F#3 .... ....|G#4 .... ....
....|.E|G#4 .... ....|A-2 .... ....|G#4 .... ....
....|.E|G#4 .... ....|D#2 .... ....|G#4 .... ....
....|.E|G#4 ..1. ....|D#2 .... ....|G#4 ..1. ....
....|.E|G#4 ..1. ....|D#2 .... ....|G#4 ..1. ....
....|.E|G#4 .... ....|B-1 .... ....|G#4 .... ....
....|.E|G#4 ..1. ....|D#1 .... ....|G#4 ..1. ....
....|.E|G#4 .... ....|F-2 .... ....|G#4 .... ....
....|.E|D-1 .... ....|F-3 .... ....|D-1 .... ....
....|.E|G#4 .... ....|G#3 .... ....|G#4 .... ....
....|.E|G#4 .... ....|E-3 .... ....|G#4 .... ....
....|.E|G#4 .... ....|A-2 .... ....|G#4 .... ....
....|.E|G#4 ..3. ....|C#2 .... ....|G#4 ..3. ....
....|.E|G#4 ..1. ....|C-4 .... ....|G#4 ..1. ....
....|.E|G#4 .... ....|A-2 ..E. ....|G#4 .... ....
....|.E|G#4 .... ....|D#2 .... ....|G#4 .... ....
....|.E|G#4 .... ....|D#2 .... ....|G#4 .... ....
....|..|D-1 .... ....|B-1 ..C. ....|D-1 .... ....
....|.E|G#4 .... ....|D#1 .... ....|G#4 .... ....
....|.E|G#4 .... ....|F-2 .... ....|G#4 .... ....
....|.E|G#4 .... ....|F-3 .... ....|G#4 .... ....
....|.E|G#4 ..6. ....|G#3 .... ....|G#4 ..6. ....
....|.E|G#4 ..1. ....|E-3 .... ....|G#4 ..1. ....
....|.E|G#4 .... ....|A-2 .... ....|G#4 .... ....
....|.E|G#4 ..6. ....|C#2 .... ....|G#4 ..6. ....
....|.E|G#4 .... ....|E-1 .... ....|G#4 .... ....
....|.E|G#4 .... ....|F#3 .... ....|G#4 .... ....
....|.E|G#4 .... ....|A-2 .... ....|G#4 .... ....
....|.E|G#4 .... ....|D#2 .... ....|G#4 .... ....
....|.E|G#4 ..3. ....|D#2 .... ....|G#4 ..3. ....
....|.E|G#4 ..1. ....|D#2 ..3. ....|G#4 ..1. ....
....|.E|G#4 .... ....|E-1 .... ....|G#4 .... ....
....|.E|G#4 .... ....|F#3 .... ....|G#4 .... ....
....|.E|G#4 .... ....|A-2 .... ....|G#4 .... ....
....|11|D-1 .... ....|D#2 .... ....|D-1 .... ....
....|.E|G#4 .... ....|D#2 .... ....|G#4 .... ....
....|.E|G#4 .... ....|D#2 ..3. ....|G#4 .... ....
....|.E|G#4 .... ....|E-1 .... ....|G#4 .... ....
....|.E|G#4 ..7. ....|F#3 .... ....|G#4 ..7. ....
....|.E|G#4 ..7. ....|A-2 .... ....|G#4 ..7. ....
....|.E|G#4 .... ....|D#2 .... ....|G#4 .... ....
....|.E|G#4 ..7. ....|D#2 .... ....|G#4 ..7. ....
....|.E|G#4 .... ....|D#2 ..3. ....|G#4 .... ....
....|.E|G#4 .... ....|E-1 .... ....|G#4 .... ....
....|.E|G#4 .... ....|F#3 .... ....|G#4 .... ....
....|.E|G#4 .... ....|A-2 .... ....|G#4 .... ....
....|.E|G#4 ..3. ....|D#2 .... ....|G#4 ..3. ....
....|.E|G#4 ..7. ....|D#2 .... ....|G#4 ..7. ....
....|.E|G#4 .... ....|D#2 ..3. ....|G#4 .... ....
....|.E|G#4 .... ....|E-1 .... ....|G#4 .... ....
....|.E|G#4 .... ....|F#3 .... ....|G#4 .... ....
....|.E|D-1 .... ....|A-2 .... ....|D-1 .... ....
....|.E|G#4 .... ....|D#2 .... ....|G#4 .... ....
....|.E|G#4 .... ....|D#2 .... ....|G#4 .... ....
....|.E|G#4 .... ....|D#2 ..3. ....|G#4 .... ....
....|.E|G#4 ..5. ....|E-1 .... ....|G#4 ..5. ....
....|.E|G#4 ..7. ....|F#3 .... ....|G#4 ..7. ....
....|.E|G#4 .... ....|A-2 .... ....|G#4 .... ....
....|.E|G#4 ..5. ....|D#2 .... ....|G#4 ..5. ....
....|.E|G#4 .... ....|D#2 .... ....|G#4 .... ....
....|..|D-1 .... ....|D#2 ..3. ....|D-1 .... ....
....|.E|G#4 .... ....|E-1 .... ....|G#4 .... ....
....|.E|G#4 .... ....|F#3 .... ....|G#4 .... ....
....|.E|G#4 .... ....|A-2 .... ....|G#4 .... ....
....|.E|G#4 ..3. ....|D#2 .... ....|G#4 ..3. ....
....|.E|G#4 ..7. ....|D#2 .... ....|G#4 ..7. ....
....|.E|G#4 .... ....|D#2 ..3. ....|G#4 .... ....
....|.E|G#4 .... ....|E-1 .... ....|G#4 .... ....
....|.E|G#4 .... ....|F#3 .... ....|G#4 .... ....
....|.E|G#4 .... ....|A-2 .... ....|G#4 .... ....
....|.E|G#4 .... ....|D#2 .... ....|G#4 .... ....
....|.E|G#4 .... ....|D#2 .... ....|G#4 .... ....
....|.E|G#4 ..7. ....|D#2 ..3. ....|G#4 ..7. ....
....|.E|G#4 ..7. ....|E-1 .... ....|G#4 ..7. ....
....|.E|G#4 .... ....|F#3 .... ....|G#4 .... ....
....|.E|G#4 ..7. ....|A-2 .... ....|G#4 ..7. ....
....|.E|G#4 .... ....|D#2 .... ....|G#4 .... ....
....|10|D-1 .... ....|D#2 .... ....|D-1 .... ....
....|.E|G#4 .... ....|D#2 ..3. ....|G#4 .... ....
....|.E|G#4 .... ....|E-1 .... ....|G#4 .... ....
....|.E|G#4 .... ....|F#3 .... ....|G#4 .... ....
....|.E|G#4 ..3. ....|A-2 .... ....|G#4 ..3. ....
....|.E|G#4 ..7. ....|D#2 .... ....|G#4 ..7. ....
....|.E|G#4 .... ....|D#2 .... ....|G#4 .... ....
....|.E|G#4 .... ....|D#2 ..3. ....|G#4 .... ....
....|.E|G#4 .... ....|E-1 .... ....|G#4 .... ....
....|.E|D-1 .... ....|F#3 .... ....|D-1 .... ....
....|.E|G#4 .... ....|A-2 .... ....|G#4 .... ....
....|.E|G#4 .... ....|D#2 .... ....|G#4 .... ....
....|.E|G#4 .... ....|D#2 .... ....|G#4 .... ....
....|.E|G#4 ..5. ....|D#2 ..3. ....|G#4 ..5. ....
....|.E|G#4 ..7. ....|E-1 .... ....|G#4 ..7. ....
....|.E|G#4 .... ....|F#3 .... ....|G#4 .... ....
....|.E|G#4 ..5. ....|A-2 .... ....|G#4 ..5. ....
....|.E|G#4 .... ....|D#2 .... ....|G#4 .... ....
....|.E|G#4 .... ....|D#2 .... ....|G#4 .... ....
....|.E|G#4 .... ....|D#2 ..3. ....|G#4 .... ....
....|.E|G#4 .... ....|E-1 .... ....|G#4 .... ....
....|.E|G#4 ..3. ....|F#3 .... ....|G#4 ..3. ....
....|.E|G#4 ..7. ....|A-2 .... ....|G#4 ..7. ....
....|.E|G#4 .... ....|D#2 .... ....|G#4 .... ....
....|.E|G#4 .... ....|D#2 .... ....|G#4 .... ....
....|.E|G#4 .... ....|D#2 ..3. ....|G#4 .... ....
....|.E|D-1 .... ....|E-1 .... ....|D-1 .... ....
....|.E|B-1 .... ....|F#3 .... ....|B-1 .... ....
....|.E|C-1 .... ....|A-2 .... ....|C-1 .... ....
....|11|F-2 .... ....|D#2 .... ....|F-2 .... ....
....|10|C-4 .... ....|D#2 .... ....|C-4 .... ....
....|..|C-4 .... ....|D#2 ..3. ....|C-4 .... ....
....|..|A-2 .... ....|E-1 .... ....|A-2 .... ....
....|..|A#3 .... ....|F#3 .... ....|A#3 .... ....
....|..|F#3 .... ....|A-2 .... ....|F#3 .... ....
....|12|C#2 .... ....|D#2 .... ....|C#2 .... ....
....|18|G#4 .... ....|D#2 .... ....|G#4 .... ....
....|.E|G#4 .... ....|D#2 ..3. ....|G#4 .... ....
....|.E|G#4 ..3. ....|E-1 .... ....|G#4 ..3. ....
....|.E|G#4 ..7. ....|F#3 .... ....|G#4 ..7. ....
....|.E|G#4 ..2. ....|A-2 .... ....|G#4 ..2. ....
....|.E|G#4 .... ....|D#2 .... ....|G#4 .... ....
....|.E|G#4 .... ....|D#2 .... ....|G#4 .... ....
....|.E|G#4 .... ....|D#2 ..3. ....|G#4 .... ....
....|.E|G#4 .... ....|E-1 .... ....|G#4 .... ....
....|.E|G#4 .... ....|F#3 .... ....|G#4 .... ....
....|.E|G#4 ..3. ....|A-2 .... ....|G#4 ..3. ....
....|10|D-1 .... ....|D#2 .... ....|D-1 .... ....
....|.E|G#4 .... ....|D#2 .... ....|G#4 .... ....
....|.E|G#4 ..6. ....|D#2 ..3. ....|G#4 ..6. ....
....|.E|G#4 .... ....|E-1 .... ....|G#4 .... ....
....|.E|G#4 .... ....|F#3 .... ....|G#4 .... ....
....|.E|G#4 .... ....|A-2 .... ....|G#4 .... ....
....|.E|G#4 .... ....|D#2 .... ....|G#4 .... ....
....|.E|G#4 .... ....|D#2 .... ....|G#4 .... ....
....|.E|G#4 ..3. ....|D#2 ..3. ....|G#4 ..3. ....
....|.E|G#4 .... ....|E-1 .... ....|G#4 .... ....
....|.E|G#4 ..3. ....|F#3 .... ....|G#4 ..3. ....
....|.E|G#4 .... ....|A-2 .... ....|G#4 .... ....
....|.E|G#4 .... ....|D#2 .... ....|G#4 .... ....
....|.E|G#4 .... ....|D#2 .... ....|G#4 .... ....
....|.E|G#4 .... ....|D#2 ..3. ....|G#4 .... ....
....|.E|G#4 .... ....|E-1 .... ....|G#4 .... ....
....|.E|G#4 ..3. ....|F#3 .... ....|G#4 ..3. ....
....|.E|G#4 .... ....|A-2 .... ....|G#4 .... ....
....|.E|G#4 ..3. ....|D#2 .... ....|G#4 ..3. ....
....|.E|G#4 .... ....|D#2 .... ....|G#4 .... ....
....|.E|G#4 .... ....|D#2 ..3. ....|G#4 .... ....
....|.E|G#4 .... ....|E-1 .... ....|G#4 .... ....
....|.E|G#4 .... ....|F#3 .... ....|G#4 .... ....
....|.E|G#4 .... ....|A-2 .... ....|G#4 .... ....
....|.E|G#4 ..3. ....|D#2 .... ....|G#4 ..3. ....
....|.E|G#4 .... ....|D#2 .... ....|G#4 .... ....
....|.E|G#4 ..3. ....|D#2 ..3. ....|G#4 ..3. ....
....|.E|G#4 .... ....|E-1 .... ....|G#4 .... ....
....|.E|G#4 .... ....|F#3 .... ....|G#4 .... ....
....|.E|G#4 .... ....|A-2 .... ....|G#4 .... ....
....|.E|G#4 .... ....|D#2 .... ....|G#4 .... ....
....|.E|G#4 .... ....|D#2 .... ....|G#4 .... ....
....|.E|G#4 ..3. ....|D#2 ..3. ....|G#4 ..3. ....
....|.E|G#4 .... ....|E-1 .... ....|G#4 .... ....
....|.E|G#4 ..3. ....|F#3 .... ....|G#4 ..3. ....
....|.E|G#4 .... ....|A-2 .... ....|G#4 .... ....
....|.E|G#4 .... ....|D#2 .... ....|G#4 .... ....
....|.E|G#4 .... ....|D#2 .... ....|G#4 .... ....
....|.E|G#4 .... ....|D#2 ..3. ....|G#4 .... ....
....|.E|G#4 .... ....|E-1 .... ....|G#4 .... ....
....|.E|G#4 ..3. ....|F#3 .... ....|G#4 ..3. ....
....|.E|G#4 ..6. ....|A-2 .... ....|G#4 ..6. ....
....|.E|G#4 ..3. ....|D#2 .... ....|G#4 ..3. ....
....|.E|G#4 .... ....|D#2 .... ....|G#4 .... ....
....|.E|G#4 .... ....|D#2 ..3. ....|G#4 .... ....
....|.E|G#4 .... ....|E-1 .... ....|G#4 .... ....
....|.E|G#4 .... ....|F#3 .... ....|G#4 .... ....
....|.E|G#4 .... ....|A-2 .... ....|G#4 .... ....
....|.E|G#4 ..3. ....|D#2 .... ....|G#4 ..3. ....
....|.E|G#4 ..5. ....|D#2 .... ....|G#4 ..5. ....
....|.E|G#4 ..3. ....|D#2 ..3. ....|G#4 ..3. ....
....|.E|G#4 .... ....|E-1 ..C. ....|G#4 .... ....
....|.E|G#4 .... ....|F#3 .... ....|G#4 .... ....
....|.E|G#4 .... ....|A-2 .... ....|G#4 .... ....
....|18|G#4 .... ....|D#2 .... ....|G#4 .... ....
....|.E|G#4 .... ....|D#2 .... ....|G#4 .... ....
....|.E|G#4 ..3. ....|D#2 ..3. ....|G#4 ..3. ....
....|.E|G#4 .... ....|E-1 .... ....|G#4 .... ....
....|.E|G#4 ..2. ....|F#3 .... ....|G#4 ..2. ....
....|.E|G#4 .... ....|A-2 .... ....|G#4 .... ....
....|.E|G#4 .... ....|D#2 .... ....|G#4 .... ....
....|.E|G#4 .... ....|D#2 .... ....|G#4 .... ....
....|.E|G#4 .... ....|D#2 ..3. ....|G#4 .... ....

[Pattern16]
....|.E|G#4 .... ....|G#4 .... ....|G#4 .... ....
....|.E|G#4 .... ....|G#4 .... ....|G#4 .... ....
....|.E|G#4 .... ....|G#4 .... ....|G#4 .... ....
....|.E|G#4 .... ....|G#4 ..3. ....|G#4 ..1. ....
....|.E|D-1 .... ....|G#4 .... ....|G#4 ..1. ....
....|.E|G#4 .... ....|G#4 .... ....|G#4 .... ....
....|.E|G#4 .... ....|G#4 .... ....|G#4 ..1. ....
....|.E|G#4 .... ....|G#4 .... ....|G#4 .... ....
....|.E|G#4 ..7. ....|G#4 .... ....|D-1 .... ....
....|.E|G#4 ..1. ....|G#4 .... ....|G#4 .... ....
....|.E|G#4 .... ....|G#4 .... ....|G#4 .... ....
....|.E|G#4 ..7. ....|G#4 ..7. ....|G#4 .... ....
....|.E|G#4 .... ....|G#4 .... ....|G#4 ..3. ....
....|.E|D-1 .... ....|G#4 .... ....|G#4 ..1. ....
....|.E|G#4 .... ....|G#4 ..7. ....|G#4 .... ....
....|.E|G#4 .... ....|G#4 .... ....|G#4 .... ....
....|.E|G#4 .... ....|G#4 .... ....|G#4 .... ....
....|.E|G#4 ..3. ....|G#4 .... ....|D-1 .... ....
....|.E|G#4 ..1. ....|G#4 .... ....|G#4 .... ....
....|.E|G#4 .... ....|G#4 ..3. ....|G#4 .... ....
....|.E|G#4 .... ....|G#4 .... ....|G#4 .... ....
....|.E|G#4 .... ....|G#4 .... ....|G#4 ..7. ....
....|.E|G#4 .... ....|G#4 .... ....|G#4 ..1. ....
....|.E|G#4 .... ....|G#4 .... ....|G#4 .... ....
....|.E|G#4 .... ....|G#4 .... ....|G#4 ..7. ....
....|.E|G#4 ..1. ....|G#4 .... ....|G#4 .... ....
....|.E|G#4 ..1. ....|G#4 .... ....|G#4 .... ....
....|.E|G#4 .... ....|G#4 ..2. ....|G#4 .... ....
....|.E|G#4 ..1. ....|G#4 ..3. ....|G#4 .... ....
....|.E|G#4 .... ....|G#4 .... ....|G#4 ..3. ....
....|.E|D-1 .... ....|G#4 ..2. ....|G#4 ..1. ....
....|.E|G#4 .... ....|G#4 .... ....|G#4 .... ....
....|.E|G#4 .... ....|G#4 .... ....|G#4 .... ....
....|.E|G#4 .... ....|G#4 .... ....|G#4 .... ....
....|.E|G#4 ..3. ....|G#4 .... ....|D-1 .... ....
....|.E|G#4 ..1. ....|G#4 ..3. ....|G#4 .... ....
....|.E|G#4 .... ....|G#4 .... ....|G#4 .... ....
....|.E|G#4 .... ....|G#4 .... ....|G#4 .... ....
....|.E|G#4 .... ....|G#4 .... ....|G#4 ..1. ....
....|.E|D-1 .... ....|G#4 .... ....|G#4 ..1. ....
....|.E|G#4 .... ....|G#4 .... ....|G#4 .... ....
....|.E|G#4 .... ....|G#4 .... ....|G#4 ..1. ....
....|.E|G#4 .... ....|G#4 .... ....|G#4 .... ....
....|.E|G#4 ..7. ....|G#4 ..7. ....|G#4 .... ....
....|.E|G#4 ..1. ....|G#4 .... ....|G#4 .... ....
....|.E|G#4 .... ....|G#4 .... ....|G#4 .... ....
....|.E|G#4 ..7. ....|G#4 ..7. ....|G#4 ..3. ....
....|.E|G#4 .... ....|G#4 .... ....|G#4 ..1. ....
....|.E|G#4 .... ....|G#4 .... ....|G#4 .... ....
....|.E|G#4 .... ....|G#4 .... ....|G#4 .... ....
....|.E|G#4 .... ....|G#4 .... ....|G#4 .... ....
....|.E|G#4 ..3. ....|G#4 ..3. ....|D-1 .... ....
....|.E|G#4 ..1. ....|G#4 .... ....|G#4 .... ....
....|.E|G#4 .... ....|G#4 .... ....|G#4 .... ....
....|.E|G#4 .... ....|G#4 .... ....|G#4 .... ....
....|.E|G#4 .... ....|G#4 .... ....|G#4 ..6. ....
....|.E|D-1 .... ....|G#4 .... ....|G#4 ..1. ....
....|.E|G#4 .... ....|G#4 .... ....|G#4 .... ....
....|.E|G#4 .... ....|G#4 .... ....|G#4 ..6. ....
....|.E|G#4 .... ....|G#4 ..3. ....|G#4 .... ....
....|.E|G#4 ..1. ....|G#4 ..4. ....|D-1 .... ....
....|.E|G#4 ..1. ....|G#4 .... ....|G#4 .... ....
....|.E|G#4 .... ....|G#4 ..3. ....|G#4 .... ....
....|.E|G#4 ..1. ....|G#4 .... ....|G#4 .... ....
....|.E|G#4 .... ....|G#4 .... ....|G#4 ..3. ....
....|.E|G#4 .... ....|G#4 .... ....|G#4 ..1. ....
....|.E|G#4 .... ....|G#4 .... ....|G#4 .... ....
....|.E|G#4 .... ....|G#4 ..3. ....|G#4 .... ....
....|.E|G#4 ..3. ....|G#4 .... ....|G#4 .... ....
....|.E|G#4 ..1. ....|G#4 .... ....|G#4 .... ....
....|.E|G#4 .... ....|G#4 .... ....|G#4 .... ....
....|.E|G#4 .... ....|G#4 .... ....|G#4 .... ....
....|.E|G#4 .... ....|G#4 .... ....|G#4 ..1. ....
....|.E|D-1 .... ....|G#4 .... ....|G#4 ..1. ....
....|.E|G#4 .... ....|G#4 .... ....|G#4 .... ....
....|.E|G#4 .... ....|G#4 ..6. ....|G#4 ..1. ....
....|.E|G#4 .... ....|G#4 .... ....|G#4 .... ....
....|.E|G#4 ..6. ....|G#4 .... ....|D-1 .... ....
....|.E|G#4 ..1. ....|G#4 ..6. ....|G#4 .... ....
....|.E|G#4 .... ....|G#4 .... ....|G#4 .... ....
....|.E|G#4 ..6. ....|G#4 .... ....|G#4 .... ....
....|.E|G#4 .... ....|G#4 .... ....|G#4 ..3. ....
....|.E|D-1 .... ....|G#4 .... ....|G#4 ..1. ....
....|.E|G#4 .... ....|G#4 ..3. ....|G#4 .... ....
....|.E|G#4 .... ....|G#4 .... ....|G#4 .... ....
....|.E|G#4 .... ....|G#4 .... ....|G#4 .... ....
....|.E|G#4 ..3. ....|G#4 .... ....|D-1 .... ....
....|.E|G#4 ..1. ....|G#4 .... ....|G#4 .... ....
....|.E|G#4 .... ....|G#4 .... ....|G#4 .... ....
....|.E|G#4 .... ....|G#4 .... ....|G#4 .... ....
....|.E|G#4 .... ....|G#4 .... ....|G#4 ..6. ....
....|.E|G#4 .... ....|G#4 ..4. ....|G#4 ..1. ....
....|.E|G#4 .... ....|G#4 ..5. ....|G#4 .... ....
....|.E|G#4 .... ....|G#4 .... ....|G#4 ..6. ....
....|.E|G#4 ..1. ....|G#4 ..4. ....|G#4 .... ....
....|.E|G#4 ..1. ....|G#4 .... ....|G#4 .... ....
....|.E|G#4 .... ....|G#4 .... ....|G#4 .... ....
....|.E|G#4 ..1. ....|G#4 .... ....|G#4 .... ....
....|.E|G#4 .... ....|G#4 .... ....|G#4 ..3. ....
....|.E|D-1 .... ....|G#4 ..3. ....|G#4 ..1. ....
....|.E|G#4 .... ....|G#4 .... ....|G#4 .... ....
....|.E|G#4 .... ....|G#4 .... ....|G#4 .... ....
....|.E|G#4 .... ....|G#4 .... ....|G#4 .... ....
....|.E|G#4 ..3. ....|G#4 .... ....|D-1 .... ....
....|.E|G#4 ..1. ....|G#4 .... ....|G#4 .... ....
....|.E|G#4 .... ....|G#4 .... ....|G#4 .... ....
....|.E|G#4 .... ....|G#4 .... ....|G#4 .... ....
....|.E|G#4 .... ....|G#4 ..6. ....|G#4 ..7. ....
....|.E|D-1 .... ....|G#4 .... ....|G#4 ..7. ....
....|.E|G#4 .... ....|G#4 .... ....|G#4 .... ....
....|.E|G#4 .... ....|G#4 ..6. ....|G#4 ..7. ....
....|.E|G#4 .... ....|G#4 .... ....|G#4 .... ....
....|.E|G#4 ..6. ....|G#4 .... ....|G#4 .... ....
....|.E|G#4 ..1. ....|G#4 .... ....|G#4 .... ....
....|.E|G#4 .... ....|G#4 .... ....|G#4 .... ....
....|.E|G#4 ..6. ....|G#4 ..3. ....|G#4 ..3. ....
....|.E|G#4 .... ....|G#4 .... ....|G#4 ..7. ....
....|.E|G#4 .... ....|G#4 .... ....|G#4 .... ....
....|.E|G#4 .... ....|G#4 .... ....|G#4 .... ....
....|.E|G#4 .... ....|G#4 .... ....|G#4 .... ....
....|.E|G#4 ..3. ....|G#4 .... ....|D-1 .... ....
....|.E|G#4 ..1. ....|G#4 .... ....|G#4 .... ....
....|.E|G#4 .... ....|G#4 .... ....|G#4 .... ....
....|.E|G#4 .... ....|G#4 ..5. ....|G#4 .... ....
....|.E|G#4 .... ....|G#4 ..6. ....|G#4 ..5. ....
....|.E|D-1 .... ....|G#4 .... ....|G#4 ..7. ....
....|.E|G#4 .... ....|G#4 ..5. ....|G#4 .... ....
....|.E|G#4 .... ....|G#4 .... ....|G#4 ..5. ....
....|.E|G#4 .... ....|G#4 .... ....|G#4 .... ....
....|.E|G#4 ..7. ....|G#4 .... ....|D-1 .... ....
....|.E|G#4 ..7. ....|G#4 .... ....|G#4 .... ....
....|.E|G#4 .... ....|G#4 ..3. ....|G#4 .... ....
....|.E|G#4 ..7. ....|G#4 .... ....|G#4 .... ....
....|.E|G#4 .... ....|G#4 .... ....|G#4 ..3. ....
....|.E|G#4 .... ....|G#4 .... ....|G#4 ..7. ....
....|.E|G#4 .... ....|G#4 .... ....|G#4 .... ....
....|.E|G#4 .... ....|G#4 .... ....|G#4 .... ....
....|.E|G#4 ..3. ....|G#4 .... ....|G#4 .... ....
....|.E|G#4 ..7. ....|G#4 .... ....|G#4 .... ....
....|.E|G#4 .... ....|G#4 ..5. ....|G#4 .... ....
....|.E|G#4 .... ....|G#4 .... ....|G#4 .... ....
....|.E|G#4 .... ....|G#4 .... ....|G#4 ..7. ....
....|.E|D-1 .... ....|G#4 ..5. ....|G#4 ..7. ....
....|.E|G#4 .... ....|G#4 .... ....|G#4 .... ....
....|.E|G#4 .... ....|G#4 .... ....|G#4 ..7. ....
....|.E|G#4 .... ....|G#4 .... ....|G#4 .... ....
....|.E|G#4 ..5. ....|G#4 .... ....|D-1 .... ....
....|.E|G#4 ..7. ....|G#4 ..3. ....|G#4 .... ....
....|.E|G#4 .... ....|G#4 .... ....|G#4 .... ....
....|.E|G#4 ..5. ....|G#4 .... ....|G#4 .... ....
....|.E|G#4 .... ....|G#4 .... ....|G#4 ..3. ....
....|.E|D-1 .... ....|G#4 .... ....|G#4 ..7. ....
....|.E|G#4 .... ....|G#4 .... ....|G#4 .... ....
....|.E|G#4 .... ....|G#4 .... ....|G#4 .... ....
....|.E|G#4 .... ....|G#4 .... ....|G#4 .... ....
....|.E|G#4 ..3. ....|G#4 ..7. ....|D-1 .... ....
....|.E|G#4 ..7. ....|G#4 .... ....|G#4 .... ....
....|.E|G#4 .... ....|G#4 .... ....|G#4 .... ....
....|.E|G#4 .... ....|G#4 ..7. ....|G#4 .... ....
....|.E|G#4 .... ....|G#4 .... ....|G#4 ..5. ....
....|.E|G#4 .... ....|G#4 .... ....|G#4 ..7. ....
....|.E|G#4 .... ....|G#4 .... ....|G#4 .... ....
....|.E|G#4 .... ....|G#4 .... ....|G#4 ..5. ....
....|.E|G#4 ..7. ....|G#4 ..3. ....|G#4 .... ....
....|.E|G#4 ..7. ....|G#4 .... ....|G#4 .... ....
....|.E|G#4 .... ....|G#4 .... ....|G#4 .... ....
....|.E|G#4 ..7. ....|G#4 .... ....|G#4 .... ....
....|.E|G#4 .... ....|G#4 .... ....|G#4 ..3. ....
....|.E|D-1 .... ....|G#4 .... ....|G#4 ..7. ....
....|.E|G#4 .... ....|G#4 .... ....|G#4 .... ....
....|.E|G#4 .... ....|G#4 .... ....|G#4 .... ....
....|.E|G#4 .... ....|G#4 ..5. ....|G#4 .... ....
....|.E|G#4 ..3. ....|G#4 .... ....|D-1 .... ....
....|.E|G#4 ..7. ....|G#4 .... ....|B-1 .... ....
....|.E|G#4 .... ....|G#4 ..5. ....|C-1 .... ....
....|.E|G#4 .... ....|G#4 .... ....|F-2 .... ....
....|.E|G#4 .... ....|G#4 .... ....|C-4 .... ....
....|.E|D-1 .... ....|G#4 .... ....|C-4 .... ....
....|.E|G#4 .... ....|G#4 .... ....|A-2 .... ....
....|.E|G#4 .... ....|G#4 ..3. ....|A#3 .... ....
....|.E|G#4 .... ....|G#4 .... ....|F#3 .... ....
....|12|G#4 ..5. ....|G#4 .... ....|C#2 .... ....
....|18|G#4 ..7. ....|G#4 .... ....|G#4 .... ....
....|.E|G#4 .... ....|G#4 .... ....|G#4 .... ....
....|.E|G#4 ..5. ....|B-1 .... ....|G#4 ..3. ....
....|.E|G#4 .... ....|C-1 .... ....|G#4 ..7. ....
....|.E|G#4 .... ....|F-2 .... ....|G#4 ..2. ....
....|.E|G#4 .... ....|C-4 .... ....|G#4 .... ....
....|.E|G#4 .... ....|C-4 .... ....|G#4 .... ....
....|.E|G#4 ..3. ....|A-2 .... ....|G#4 .... ....
....|.E|G#4 ..7. ....|A#3 .... ....|G#4 .... ....
....|.E|G#4 .... ....|F#3 .... ....|G#4 .... ....
....|.E|G#4 .... ....|C#2 .... ....|G#4 ..3. ....
....|.E|G#4 .... ....|G#4 .... ....|D-1 .... ....
....|.E|D-1 .... ....|G#4 .... ....|G#4 .... ....
....|.E|B-1 .... ....|G#4 .... ....|G#4 ..6. ....
....|.E|C-1 .... ....|G#4 ..2. ....|G#4 .... ....
....|.E|F-2 .... ....|G#4 ..6. ....|G#4 .... ....
....|.E|C-4 .... ....|G#4 .... ....|G#4 .... ....
....|.E|C-4 .... ....|G#4 ..5. ....|G#4 .... ....
....|.E|A-2 .... ....|G#4 .... ....|G#4 .... ....
....|.E|A#3 .... ....|G#4 .... ....|G#4 ..3. ....
....|.E|F#3 .... ....|G#4 .... ....|G#4 .... ....
....|.E|C#2 .... ....|G#4 .... ....|G#4 ..3. ....
....|.E|G#4 .... ....|G#4 ..3. ....|G#4 .... ....
....|.E|G#4 .... ....|G#4 ..3. ....|G#4 .... ....
....|.E|G#4 ..3. ....|G#4 .... ....|G#4 .... ....
....|.E|G#4 ..7. ....|G#4 .... ....|G#4 .... ....
....|.E|G#4 ..2. ....|G#4 .... ....|G#4 .... ....
....|.E|G#4 .... ....|D-1 .... ....|G#4 ..3. ....
....|.E|G#4 .... ....|G#4 .... ....|G#4 .... ....
....|.E|G#4 .... ....|G#4 .... ....|G#4 ..3. ....
....|.E|G#4 .... ....|G#4 .... ....|G#4 .... ....
....|.E|G#4 .... ....|G#4 ..7. ....|G#4 .... ....
....|.E|G#4 ..3. ....|G#4 ..3. ....|G#4 .... ....
....|.E|D-1 .... ....|G#4 .... ....|G#4 .... ....
....|.E|G#4 .... ....|G#4 ..7. ....|G#4 .... ....
....|.E|G#4 ..6. ....|G#4 .... ....|G#4 ..3. ....
....|.E|G#4 .... ....|D-1 .... ....|G#4 .... ....
....|.E|G#4 .... ....|G#4 .... ....|G#4 ..3. ....
....|.E|G#4 .... ....|G#4 .... ....|G#4 .... ....
....|.E|G#4 .... ....|G#4 .... ....|G#4 .... ....
....|.E|G#4 .... ....|G#4 ..3. ....|G#4 .... ....
....|.E|G#4 ..3. ....|G#4 ..3. ....|G#4 .... ....
....|.E|G#4 .... ....|G#4 .... ....|G#4 .... ....
....|.E|G#4 ..3. ....|G#4 .... ....|G#4 ..3. ....
....|.E|G#4 .... ....|G#4 .... ....|G#4 .... ....
....|.E|G#4 .... ....|G#4 .... ....|G#4 ..3. ....
....|.E|G#4 .... ....|G#4 .... ....|G#4 .... ....
....|.E|G#4 .... ....|G#4 .... ....|G#4 .... ....
....|.E|G#4 .... ....|G#4 ..3. ....|G#4 .... ....
....|.E|G#4 ..3. ....|G#4 ..3. ....|G#4 .... ....
....|.E|G#4 .... ....|G#4 .... ....|G#4 .... ....
....|.E|G#4 ..3. ....|G#4 ..3. ....|G#4 ..3. ....
....|.E|G#4 .... ....|G#4 .... ....|G#4 ..6. ....
....|.E|G#4 .... ....|D-1 .... ....|G#4 ..3. ....
....|.E|G#4 .... ....|G#4 .... ....|G#4 .... ....
....|.E|G#4 .... ....|G#4 .... ....|G#4 .... ....
....|.E|G#4 .... ....|G#4 .... ....|G#4 .... ....
....|.E|G#4 ..3. ....|G#4 ..3. ....|G#4 .... ....
....|.E|G#4 .... ....|G#4 ..3. ....|G#4 .... ....
....|.E|G#4 ..3. ....|G#4 .... ....|G#4 ..3. ....
....|.E|G#4 .... ....|G#4 .... ....|G#4 ..5. ....
....|.E|G#4 .... ....|G#4 .... ....|G#4 ..3. ....
....|.E|G#4 .... ....|D-1 .... ....|G#4 .... ....
....|.E|G#4 .... ....|G#4 .... ....|G#4 .... ....
....|.E|G#4 .... ....|G#4 .... ....|G#4 .... ....
....|18|G#4 ..3. ....|G#4 .... ....|G#4 .... ....
....|.E|G#4 .... ....|G#4 ..7. ....|G#4 .... ....
....|.E|G#4 ..3. ....|G#4 ..3. ....|G#4 ..3. ....
....|.E|G#4 .... ....|G#4 .... ....|G#4 .... ....
....|.E|G#4 .... ....|G#4 ..7. ....|G#4 ..2. ....
....|.E|G#4 .... ....|G#4 .... ....|G#4 .... ....
....|.E|G#4 .... ....|G#4 .... ....|G#4 .... ....
....|.E|G#4 .... ....|G#4 .... ....|G#4 .... ....
....|.E|G#4 ..3. ....|G#4 .... ....|G#4 .... ....

[Pattern17]
....|.E|G#4 .... ....|G#4 .... ....|G#4 .... ....
....|.E|G#4 .... ....|G#4 .... ....|G#4 .... ....
....|.E|G#4 .... ....|G#4 .... ....|G#4 .... ....
....|.E|G#4 ..1. ....|G#4 .... ....|G#4 ..1. ....
....|.E|G#4 ..1. ....|G#4 ..1. ....|G#4 ..1. ....
....|.E|G#4 .... ....|G#4 ..1. ....|G#4 .... ....
....|.E|G#4 ..1. ....|G#4 .... ....|G#4 ..1. ....
....|.E|G#4 .... ....|G#4 ..1. ....|G#4 .... ....
....|.E|D-1 .... ....|G#4 .... ....|D-1 .... ....
....|.E|G#4 .... ....|D-1 .... ....|G#4 .... ....
....|.E|G#4 .... ....|G#4 .... ....|G#4 .... ....
....|.E|G#4 .... ....|G#4 .... ....|G#4 .... ....
....|.E|G#4 ..3. ....|G#4 .... ....|G#4 ..3. ....
....|.E|G#4 ..1. ....|G#4 ..3. ....|G#4 ..1. ....
....|.E|G#4 .... ....|G#4 ..1. ....|G#4 .... ....
....|.E|G#4 .... ....|G#4 .... ....|G#4 .... ....
....|.E|G#4 .... ....|G#4 .... ....|G#4 .... ....
....|.E|D-1 .... ....|G#4 .... ....|D-1 .... ....
....|.E|G#4 .... ....|D-1 .... ....|G#4 .... ....
....|.E|G#4 .... ....|G#4 .... ....|G#4 .... ....
....|.E|G#4 .... ....|G#4 .... ....|G#4 .... ....
....|.E|G#4 ..7. ....|G#4 .... ....|G#4 ..7. ....
....|.E|G#4 ..1. ....|G#4 ..7. ....|G#4 ..1. ....
....|.E|G#4 .... ....|G#4 ..1. ....|G#4 .... ....
....|.E|G#4 ..7. ....|G#4 .... ....|G#4 ..7. ....
....|.E|G#4 .... ....|G#4 ..7. ....|G#4 .... ....
....|.E|G#4 .... ....|G#4 .... ....|G#4 .... ....
....|.E|G#4 .... ....|G#4 .... ....|G#4 .... ....
....|.E|G#4 .... ....|G#4 .... ....|G#4 .... ....
....|.E|G#4 ..3. ....|G#4 .... ....|G#4 ..3. ....
....|.E|G#4 ..1. ....|G#4 ..3. ....|G#4 ..1. ....
....|.E|G#4 .... ....|G#4 ..1. ....|G#4 .... ....
....|.E|G#4 .... ....|G#4 .... ....|G#4 .... ....
....|.E|G#4 .... ....|G#4 .... ....|G#4 .... ....
....|.E|D-1 .... ....|G#4 .... ....|D-1 .... ....
....|.E|G#4 .... ....|D-1 .... ....|G#4 .... ....
....|.E|G#4 .... ....|G#4 .... ....|G#4 .... ....
....|.E|G#4 .... ....|G#4 .... ....|G#4 .... ....
....|.E|G#4 ..1. ....|G#4 .... ....|G#4 ..1. ....
....|.E|G#4 ..1. ....|G#4 ..1. ....|G#4 ..1. ....
....|.E|G#4 .... ....|G#4 ..1. ....|G#4 .... ....
....|.E|G#4 ..1. ....|G#4 .... ....|G#4 ..1. ....
....|.E|G#4 .... ....|G#4 ..1. ....|G#4 .... ....
....|.E|G#4 .... ....|G#4 .... ....|G#4 .... ....
....|.E|G#4 .... ....|G#4 .... ....|G#4 .... ....
....|.E|G#4 .... ....|G#4 .... ....|G#4 .... ....
....|.E|G#4 ..3. ....|G#4 .... ....|G#4 ..3. ....
....|.E|G#4 ..1. ....|G#4 ..3. ....|G#4 ..1. ....
....|.E|G#4 .... ....|G#4 ..1. ....|G#4 .... ....
....|.E|G#4 .... ....|G#4 .... ....|G#4 .... ....
....|.E|G#4 .... ....|G#4 .... ....|G#4 .... ....
....|.E|D-1 .... ....|G#4 .... ....|D-1 .... ....
....|.E|G#4 .... ....|D-1 .... ....|G#4 .... ....
....|.E|G#4 .... ....|G#4 .... ....|G#4 .... ....
....|.E|G#4 .... ....|G#4 .... ....|G#4 .... ....
....|.E|G#4 ..6. ....|G#4 .... ....|G#4 ..6. ....
....|.E|G#4 ..1. ....|G#4 ..6. ....|G#4 ..1. ....
....|.E|G#4 .... ....|G#4 ..1. ....|G#4 .... ....
....|.E|G#4 ..6. ....|G#4 .... ....|G#4 ..6. ....
....|.E|G#4 .... ....|G#4 ..6. ....|G#4 .... ....
....|.E|D-1 .... ....|G#4 .... ....|D-1 .... ....
....|.E|G#4 .... ....|D-1 .... ....|G#4 .... ....
....|.E|G#4 .... ....|G#4 .... ....|G#4 .... ....
....|.E|G#4 .... ....|G#4 .... ....|G#4 .... ....
....|.E|G#4 ..3. ....|G#4 .... ....|G#4 ..3. ....
....|.E|G#4 ..1. ....|G#4 ..3. ....|G#4 ..1. ....
....|.E|G#4 .... ....|G#4 ..1. ....|G#4 .... ....
....|.E|G#4 .... ....|G#4 .... ....|G#4 .... ....
....|.E|G#4 .... ....|G#4 .... ....|G#4 .... ....
....|.E|G#4 .... ....|G#4 .... ....|G#4 .... ....
....|.E|G#4 .... ....|G#4 .... ....|G#4 .... ....
....|.E|G#4 .... ....|G#4 .... ....|G#4 .... ....
....|.E|G#4 ..1. ....|G#4 .... ....|G#4 ..1. ....
....|.E|G#4 ..1. ....|G#4 ..1. ....|G#4 ..1. ....
....|.E|G#4 .... ....|G#4 ..1. ....|G#4 .... ....
....|.E|G#4 ..1. ....|G#4 .... ....|G#4 ..1. ....
....|.E|G#4 .... ....|G#4 ..1. ....|G#4 .... ....
....|.E|D-1 .... ....|G#4 .... ....|D-1 .... ....
....|.E|G#4 .... ....|D-1 .... ....|G#4 .... ....
....|.E|G#4 .... ....|G#4 .... ....|G#4 .... ....
....|.E|G#4 .... ....|G#4 .... ....|G#4 .... ....
....|.E|G#4 ..3. ....|G#4 .... ....|G#4 ..3. ....
....|.E|G#4 ..1. ....|G#4 ..3. ....|G#4 ..1. ....
....|.E|G#4 .... ....|G#4 ..1. ....|G#4 .... ....
....|.E|G#4 .... ....|G#4 .... ....|G#4 .... ....
....|.E|G#4 .... ....|G#4 .... ....|G#4 .... ....
....|.E|D-1 .... ....|G#4 .... ....|D-1 .... ....
....|.E|G#4 .... ....|D-1 .... ....|G#4 .... ....
....|.E|G#4 .... ....|G#4 .... ....|G#4 .... ....
....|.E|G#4 .... ....|G#4 .... ....|G#4 .... ....
....|.E|G#4 ..6. ....|G#4 .... ....|G#4 ..6. ....
....|.E|G#4 ..1. ....|G#4 ..6. ....|G#4 ..1. ....
....|.E|G#4 .... ....|G#4 ..1. ....|G#4 .... ....
....|.E|G#4 ..6. ....|G#4 .... ....|G#4 ..6. ....
....|.E|G#4 .... ....|G#4 ..6. ....|G#4 .... ....
....|.E|G#4 .... ....|G#4 .... ....|G#4 .... ....
....|.E|G#4 .... ....|G#4 .... ....|G#4 .... ....
....|.E|G#4 .... ....|G#4 .... ....|G#4 .... ....
....|.E|G#4 ..3. ....|G#4 .... ....|G#4 ..3. ....
....|.E|G#4 ..1. ....|G#4 ..3. ....|G#4 ..1. ....
....|.E|G#4 .... ....|G#4 ..1. ....|G#4 .... ....
....|.E|G#4 .... ....|G#4 .... ....|G#4 .... ....
....|.E|G#4 .... ....|G#4 .... ....|G#4 .... ....
....|.E|D-1 .... ....|G#4 .... ....|D-1 .... ....
....|.E|G#4 .... ....|D-1 .... ....|G#4 .... ....
....|.E|G#4 .... ....|G#4 .... ....|G#4 .... ....
....|.E|G#4 .... ....|G#4 .... ....|G#4 .... ....
....|.E|G#4 ..7. ....|G#4 .... ....|G#4 ..7. ....
....|.E|G#4 ..7. ....|G#4 ..7. ....|G#4 ..7. ....
....|.E|G#4 .... ....|G#4 ..7. ....|G#4 .... ....
....|.E|G#4 ..7. ....|G#4 .... ....|G#4 ..7. ....
....|.E|G#4 .... ....|G#4 ..7. ....|G#4 .... ....
....|.E|G#4 .... ....|G#4 .... ....|G#4 .... ....
....|.E|G#4 .... ....|G#4 .... ....|G#4 .... ....
....|.E|G#4 .... ....|G#4 .... ....|G#4 .... ....
....|.E|G#4 ..3. ....|G#4 .... ....|G#4 ..3. ....
....|.E|G#4 ..7. ....|G#4 ..3. ....|G#4 ..7. ....
....|.E|G#4 .... ....|G#4 ..7. ....|G#4 .... ....
....|.E|G#4 .... ....|G#4 .... ....|G#4 .... ....
....|.E|G#4 .... ....|G#4 .... ....|G#4 .... ....
....|.E|D-1 .... ....|G#4 .... ....|D-1 .... ....
....|.E|G#4 .... ....|D-1 .... ....|G#4 .... ....
....|.E|G#4 .... ....|G#4 .... ....|G#4 .... ....
....|.E|G#4 .... ....|G#4 .... ....|G#4 .... ....
....|.E|G#4 ..5. ....|G#4 .... ....|G#4 ..5. ....
....|.E|G#4 ..7. ....|G#4 ..5. ....|G#4 ..7. ....
....|.E|G#4 .... ....|G#4 ..7. ....|G#4 .... ....
....|.E|G#4 ..5. ....|G#4 .... ....|G#4 ..5. ....
....|.E|G#4 .... ....|G#4 ..5. ....|G#4 .... ....
....|.E|D-1 .... ....|G#4 .... ....|D-1 .... ....
....|.E|G#4 .... ....|D-1 .... ....|G#4 .... ....
....|.E|G#4 .... ....|G#4 .... ....|G#4 .... ....
....|.E|G#4 .... ....|G#4 .... ....|G#4 .... ....
....|.E|G#4 ..3. ....|G#4 .... ....|G#4 ..3. ....
....|.E|G#4 ..7. ....|G#4 ..3. ....|G#4 ..7. ....
....|.E|G#4 .... ....|G#4 ..7. ....|G#4 .... ....
....|.E|G#4 .... ....|G#4 .... ....|G#4 .... ....
....|.E|G#4 .... ....|G#4 .... ....|G#4 .... ....
....|.E|G#4 .... ....|G#4 .... ....|G#4 .... ....
....|.E|G#4 .... ....|G#4 .... ....|G#4 .... ....
....|.E|G#4 .... ....|G#4 .... ....|G#4 .... ....
....|.E|G#4 ..7. ....|G#4 .... ....|G#4 ..7. ....
....|.E|G#4 ..7. ....|G#4 ..7. ....|G#4 ..7. ....
....|.E|G#4 .... ....|G#4 ..7. ....|G#4 .... ....
....|.E|G#4 ..7. ....|G#4 .... ....|G#4 ..7. ....
....|.E|G#4 .... ....|G#4 ..7. ....|G#4 .... ....
....|.E|D-1 .... ....|G#4 .... ....|D-1 .... ....
....|.E|G#4 .... ....|D-1 .... ....|G#4 .... ....
....|.E|G#4 .... ....|G#4 .... ....|G#4 .... ....
....|.E|G#4 .... ....|G#4 .... ....|G#4 .... ....
....|.E|G#4 ..3. ....|G#4 .... ....|G#4 ..3. ....
....|.E|G#4 ..7. ....|G#4 ..3. ....|G#4 ..7. ....
....|.E|G#4 .... ....|G#4 ..7. ....|G#4 .... ....
....|.E|G#4 .... ....|G#4 .... ....|G#4 .... ....
....|.E|G#4 .... ....|G#4 .... ....|G#4 .... ....
....|.E|D-1 .... ....|G#4 .... ....|D-1 .... ....
....|.E|G#4 .... ....|D-1 .... ....|G#4 .... ....
....|.E|G#4 .... ....|G#4 .... ....|G#4 .... ....
....|.E|G#4 .... ....|G#4 .... ....|G#4 .... ....
....|.E|G#4 ..5. ....|G#4 .... ....|G#4 ..5. ....
....|.E|G#4 ..7. ....|G#4 ..5. ....|G#4 ..7. ....
....|.E|G#4 .... ....|G#4 ..7. ....|G#4 .... ....
....|.E|G#4 ..5. ....|G#4 .... ....|G#4 ..5. ....
....|.E|G#4 .... ....|G#4 ..5. ....|G#4 .... ....
....|.E|G#4 .... ....|G#4 .... ....|G#4 .... ....
....|.E|G#4 .... ....|G#4 .... ....|G#4 .... ....
....|.E|G#4 .... ....|G#4 .... ....|G#4 .... ....
....|.E|G#4 ..3. ....|G#4 .... ....|G#4 ..3. ....
....|.E|G#4 ..7. ....|G#4 ..3. ....|G#4 ..7. ....
....|.E|G#4 .... ....|G#4 ..7. ....|G#4 .... ....
....|.E|G#4 .... ....|G#4 .... ....|G#4 .... ....
....|.E|G#4 .... ....|G#4 .... ....|G#4 .... ....
....|.E|D-1 .... ....|G#4 .... ....|D-1 .... ....
....|.E|B-1 .... ....|D-1 .... ....|B-1 .... ....
....|.E|C-1 .... ....|B-1 .... ....|C-1 .... ....
....|.E|F-2 .... ....|C-1 .... ....|F-2 .... ....
....|.E|C-4 .... ....|F-2 .... ....|C-4 .... ....
....|.E|C-4 .... ....|C-4 .... ....|C-4 .... ....
....|.E|A-2 .... ....|C-4 .... ....|A-2 .... ....
....|.E|A#3 .... ....|A-2 .... ....|A#3 .... ....
....|.E|F#3 .... ....|A#3 .... ....|F#3 .... ....
....|12|C#2 .... ....|F#3 .... ....|C#2 .... ....
....|18|G#4 .... ....|C#2 .... ....|G#4 .... ....
....|.E|G#4 .... ....|G#4 .... ....|G#4 .... ....
....|.E|G#4 ..3. ....|G#4 .... ....|G#4 ..3. ....
....|.E|G#4 ..7. ....|G#4 ..3. ....|G#4 ..7. ....
....|.E|G#4 ..2. ....|G#4 ..7. ....|G#4 ..2. ....
....|.E|G#4 .... ....|G#4 ..2. ....|G#4 .... ....
....|.E|G#4 .... ....|G#4 .... ....|G#4 .... ....
....|.E|G#4 .... ....|G#4 .... ....|G#4 .... ....
....|.E|G#4 .... ....|G#4 .... ....|G#4 .... ....
....|.E|G#4 .... ....|G#4 .... ....|G#4 .... ....
....|.E|G#4 ..3. ....|G#4 .... ....|G#4 ..3. ....
....|.E|D-1 .... ....|G#4 ..3. ....|D-1 .... ....
....|.E|G#4 .... ....|D-1 .... ....|G#4 .... ....
....|.E|G#4 ..6. ....|G#4 .... ....|G#4 ..6. ....
....|.E|G#4 .... ....|G#4 ..6. ....|G#4 .... ....
....|.E|G#4 .... ....|G#4 .... ....|G#4 .... ....
....|.E|G#4 .... ....|G#4 .... ....|G#4 .... ....
....|.E|G#4 .... ....|G#4 .... ....|G#4 .... ....
....|.E|G#4 .... ....|G#4 .... ....|G#4 .... ....
....|.E|G#4 ..3. ....|G#4 .... ....|G#4 ..3. ....
....|.E|G#4 .... ....|G#4 ..3. ....|G#4 .... ....
....|.E|G#4 ..3. ....|G#4 .... ....|G#4 ..3. ....
....|.E|G#4 .... ....|G#4 ..3. ....|G#4 .... ....
....|.E|G#4 .... ....|G#4 .... ....|G#4 .... ....
....|.E|G#4 .... ....|G#4 .... ....|G#4 .... ....
....|.E|G#4 .... ....|G#4 .... ....|G#4 .... ....
....|.E|G#4 .... ....|G#4 .... ....|G#4 .... ....
....|.E|G#4 ..3. ....|G#4 .... ....|G#4 ..3. ....
....|.E|G#4 .... ....|G#4 ..3. ....|G#4 .... ....
....|.E|G#4 ..3. ....|G#4 .... ....|G#4 ..3. ....
....|.E|G#4 .... ....|G#4 ..3. ....|G#4 .... ....
....|.E|G#4 .... ....|G#4 .... ....|G#4 .... ....
....|.E|G#4 .... ....|G#4 .... ....|G#4 .... ....
....|.E|G#4 .... ....|G#4 .... ....|G#4 .... ....
....|.E|G#4 .... ....|G#4 .... ....|G#4 .... ....
....|.E|G#4 ..3. ....|G#4 .... ....|G#4 ..3. ....
....|.E|G#4 .... ....|G#4 ..3. ....|G#4 .... ....
....|.E|G#4 ..3. ....|G#4 .... ....|G#4 ..3. ....
....|.E|G#4 .... ....|G#4 ..3. ....|G#4 .... ....
....|.E|G#4 .... ....|G#4 .... ....|G#4 .... ....
....|.E|G#4 .... ....|G#4 .... ....|G#4 .... ....
....|.E|G#4 .... ....|G#4 .... ....|G#4 .... ....
....|.E|G#4 .... ....|G#4 .... ....|G#4 .... ....
....|.E|G#4 ..3. ....|G#4 .... ....|G#4 ..3. ....
....|.E|G#4 .... ....|G#4 ..3. ....|G#4 .... ....
....|.E|G#4 ..3. ....|G#4 .... ....|G#4 ..3. ....
....|.E|G#4 .... ....|G#4 ..3. ....|G#4 .... ....
....|.E|G#4 .... ....|G#4 .... ....|G#4 .... ....
....|.E|G#4 .... ....|G#4 .... ....|G#4 .... ....
....|.E|G#4 .... ....|G#4 .... ....|G#4 .... ....
....|.E|G#4 .... ....|G#4 .... ....|G#4 .... ....
....|.E|G#4 ..3. ....|G#4 .... ....|G#4 ..3. ....
....|.E|G#4 ..6. ....|G#4 ..3. ....|G#4 ..6. ....
....|.E|G#4 ..3. ....|G#4 ..6. ....|G#4 ..3. ....
....|.E|G#4 .... ....|G#4 ..3. ....|G#4 .... ....
....|.E|G#4 .... ....|G#4 .... ....|G#4 .... ....
....|.E|G#4 .... ....|G#4 .... ....|G#4 .... ....
....|.E|G#4 .... ....|G#4 .... ....|G#4 .... ....
....|.E|G#4 .... ....|G#4 .... ....|G#4 .... ....
....|.E|G#4 ..3. ....|G#4 .... ....|G#4 ..3. ....
....|.E|G#4 ..5. ....|G#4 ..3. ....|G#4 ..5. ....
....|.E|G#4 ..3. ....|G#4 ..5. ....|G#4 ..3. ....
....|.E|G#4 .... ....|G#4 ..3. ....|G#4 .... ....
....|.E|G#4 .... ....|G#4 .... ....|G#4 .... ....
....|.E|G#4 .... ....|G#4 .... ....|G#4 .... ....
....|18|G#4 .... ....|G#4 .... ....|G#4 .... ....
....|.E|G#4 .... ....|G#4 .... ....|G#4 .... ....
....|.E|G#4 ..3. ....|G#4 .... ....|G#4 ..3. ....
....|.E|G#4 .... ....|G#4 ..3. ....|G#4 .... ....
....|.E|G#4 ..2. ....|G#4 .... ....|G#4 ..2. ....
....|.E|G#4 .... ....|G#4 ..2. ....|G#4 .... ....
....|.E|G#4 .... ....|G#4 .... ....|G#4 .... ....
....|.E|G#4 .... ....|G#4 .... ....|G#4 .... ....
....|.E|G#4 .... ....|G#4 .... ....|G#4 .... ....

[Pattern18]
....|.E|G#4 .... ....|G#4 .... ....|G#4 .... ....
....|.E|G#4 .... ....|G#4 .... ....|G#4 .... ....
....|.E|G#4 ..6. ....|G#4 .... ....|G#4 .... ....
....|.E|G#4 .... ....|G#4 .... ....|G#4 ..3. ....
....|.E|G#4 .... ....|D-1 .... ....|G#4 .... ....
....|.E|G#4 .... ....|G#4 .... ....|G#4 .... ....
....|.E|G#4 ..5. ....|G#4 .... ....|G#4 .... ....
....|.E|G#4 .... ....|G#4 .... ....|G#4 .... ....
....|.E|G#4 ..3. ....|G#4 ..7. ....|G#4 .... ....
....|.E|G#4 .... ....|G#4 ..1. ....|G#4 .... ....
....|.E|G#4 ..6. ....|G#4 .... ....|G#4 .... ....
....|.E|G#4 .... ....|G#4 ..7. ....|G#4 ..7. ....
....|.E|G#4 ..3. ....|G#4 .... ....|G#4 .... ....
....|.E|G#4 .... ....|D-1 .... ....|G#4 .... ....
....|.E|G#4 ..4. ....|G#4 .... ....|G#4 ..7. ....
....|.E|G#4 .... ....|G#4 .... ....|G#4 .... ....
....|.E|G#4 ..3. ....|G#4 .... ....|G#4 .... ....
....|.E|G#4 ..3. ....|G#4 ..3. ....|G#4 .... ....
....|.E|G#4 ..6. ....|G#4 ..1. ....|G#4 .... ....
....|.E|G#4 .... ....|G#4 .... ....|G#4 ..3. ....
....|.E|G#4 .... ....|G#4 .... ....|G#4 .... ....
....|.E|G#4 .... ....|G#4 .... ....|G#4 .... ....
....|.E|G#4 ..5. ....|G#4 .... ....|G#4 .... ....
....|.E|G#4 .... ....|G#4 .... ....|G#4 .... ....
....|.E|G#4 ..3. ....|G#4 .... ....|G#4 .... ....
....|.E|G#4 ..4. ....|G#4 ..1. ....|G#4 .... ....
....|.E|G#4 ..6. ....|G#4 ..1. ....|G#4 .... ....
....|.E|G#4 .... ....|G#4 .... ....|G#4 ..2. ....
....|.E|G#4 ..3. ....|G#4 ..1. ....|G#4 ..3. ....
....|.E|G#4 .... ....|G#4 .... ....|G#4 .... ....
....|.E|G#4 ..4. ....|D-1 .... ....|G#4 ..2. ....
....|.E|G#4 .... ....|G#4 .... ....|G#4 .... ....
....|.E|G#4 ..3. ....|G#4 .... ....|G#4 .... ....
....|.E|G#4 .... ....|G#4 .... ....|G#4 .... ....
....|.E|G#4 ..6. ....|G#4 ..3. ....|G#4 .... ....
....|.E|G#4 .... ....|G#4 ..1. ....|G#4 ..3. ....
....|.E|G#4 .... ....|G#4 .... ....|G#4 .... ....
....|.E|G#4 .... ....|G#4 .... ....|G#4 .... ....
....|.E|G#4 ..5. ....|G#4 .... ....|G#4 .... ....
....|.E|G#4 .... ....|D-1 .... ....|G#4 .... ....
....|.E|G#4 ..3. ....|G#4 .... ....|G#4 .... ....
....|.E|G#4 .... ....|G#4 .... ....|G#4 .... ....
....|.E|G#4 ..6. ....|G#4 .... ....|G#4 .... ....
....|.E|G#4 .... ....|G#4 ..7. ....|G#4 ..7. ....
....|.E|G#4 ..3. ....|G#4 ..1. ....|G#4 .... ....
....|.E|G#4 .... ....|G#4 .... ....|G#4 .... ....
....|.E|G#4 ..4. ....|G#4 ..7. ....|G#4 ..7. ....
....|.E|G#4 .... ....|G#4 .... ....|G#4 .... ....
....|.E|G#4 ..3. ....|G#4 .... ....|G#4 .... ....
....|.E|G#4 ..3. ....|G#4 .... ....|G#4 .... ....
....|.E|G#4 ..6. ....|G#4 .... ....|G#4 .... ....
....|.E|G#4 .... ....|G#4 ..3. ....|G#4 ..3. ....
....|.E|G#4 .... ....|G#4 ..1. ....|G#4 .... ....
....|.E|G#4 .... ....|G#4 .... ....|G#4 .... ....
....|.E|G#4 ..5. ....|G#4 .... ....|G#4 .... ....
....|.E|G#4 .... ....|G#4 .... ....|G#4 .... ....
....|.E|G#4 ..3. ....|D-1 .... ....|G#4 .... ....
....|.E|G#4 .... ....|G#4 .... ....|G#4 .... ....
....|.E|G#4 ..6. ....|G#4 .... ....|G#4 .... ....
....|.E|G#4 .... ....|G#4 .... ....|G#4 ..3. ....
....|.E|G#4 ..3. ....|G#4 ..1. ....|G#4 ..4. ....
....|.E|G#4 .... ....|G#4 ..1. ....|G#4 .... ....
....|.E|G#4 ..4. ....|G#4 .... ....|G#4 ..3. ....
....|.E|G#4 .... ....|G#4 ..1. ....|G#4 .... ....
....|.E|G#4 ..3. ....|G#4 .... ....|G#4 .... ....
....|.E|G#4 ..4. ....|G#4 .... ....|G#4 .... ....
....|.E|G#4 ..6. ....|G#4 .... ....|G#4 .... ....
....|.E|G#4 .... ....|G#4 .... ....|G#4 ..3. ....
....|.E|G#4 .... ....|G#4 ..3. ....|G#4 .... ....
....|.E|G#4 .... ....|G#4 ..1. ....|G#4 .... ....
....|.E|G#4 ..5. ....|G#4 .... ....|G#4 .... ....
....|.E|G#4 .... ....|G#4 .... ....|G#4 .... ....
....|.E|G#4 ..3. ....|G#4 .... ....|G#4 .... ....
....|.E|G#4 .... ....|D-1 .... ....|G#4 .... ....
....|.E|G#4 ..6. ....|G#4 .... ....|G#4 .... ....
....|.E|G#4 .... ....|G#4 .... ....|G#4 ..6. ....
....|.E|G#4 ..3. ....|G#4 .... ....|G#4 .... ....
....|.E|G#4 .... ....|G#4 ..6. ....|G#4 .... ....
....|.E|B-1 .... ....|G#4 ..1. ....|G#4 ..6. ....
....|.E|C-1 .... ....|G#4 .... ....|G#4 .... ....
....|.E|F-2 .... ....|G#4 ..6. ....|G#4 .... ....
....|.E|C-4 .... ....|G#4 .... ....|G#4 .... ....
....|.E|C-4 .... ....|D-1 .... ....|G#4 .... ....
....|.E|A-2 .... ....|G#4 .... ....|G#4 ..3. ....
....|.E|A#3 .... ....|G#4 .... ....|G#4 .... ....
....|.E|F#3 .... ....|G#4 .... ....|G#4 .... ....
....|.E|C#2 .... ....|G#4 ..3. ....|G#4 .... ....
....|.E|G#4 ..3. ....|G#4 ..1. ....|G#4 .... ....
....|.E|G#4 .... ....|G#4 .... ....|G#4 .... ....
....|.E|G#4 ..3. ....|G#4 .... ....|G#4 .... ....
....|.E|G#4 ..5. ....|G#4 .... ....|G#4 .... ....
....|.E|G#4 ..7. ....|G#4 .... ....|G#4 ..4. ....
....|.E|G#4 .... ....|G#4 .... ....|G#4 ..5. ....
....|.E|G#4 .... ....|G#4 .... ....|G#4 .... ....
....|.E|G#4 .... ....|G#4 ..1. ....|G#4 ..4. ....
....|.E|G#4 .... ....|G#4 ..1. ....|G#4 .... ....
....|.E|G#4 .... ....|G#4 .... ....|G#4 .... ....
....|.E|G#4 ..3. ....|G#4 ..1. ....|G#4 .... ....
....|.E|G#4 .... ....|G#4 .... ....|G#4 .... ....
....|.E|G#4 ..7. ....|D-1 .... ....|G#4 ..3. ....
....|.E|G#4 .... ....|G#4 .... ....|G#4 .... ....
....|.E|G#4 ..3. ....|G#4 .... ....|G#4 .... ....
....|.E|G#4 .... ....|G#4 .... ....|G#4 .... ....
....|.E|G#4 ..3. ....|G#4 ..3. ....|G#4 .... ....
....|.E|G#4 .... ....|G#4 ..1. ....|G#4 .... ....
....|.E|G#4 ..3. ....|G#4 .... ....|G#4 .... ....
....|.E|G#4 .... ....|G#4 .... ....|G#4 .... ....
....|.E|G#4 ..7. ....|G#4 .... ....|G#4 ..6. ....
....|.E|G#4 .... ....|D-1 .... ....|G#4 .... ....
....|.E|G#4 .... ....|G#4 .... ....|G#4 .... ....
....|.E|G#4 .... ....|G#4 .... ....|G#4 ..6. ....
....|.E|G#4 .... ....|G#4 .... ....|G#4 .... ....
....|.E|G#4 .... ....|G#4 ..6. ....|G#4 .... ....
....|.E|G#4 ..3. ....|G#4 ..1. ....|G#4 .... ....
....|.E|G#4 .... ....|G#4 .... ....|G#4 .... ....
....|.E|G#4 ..7. ....|G#4 ..6. ....|G#4 ..3. ....
....|.E|G#4 .... ....|G#4 .... ....|G#4 .... ....
....|.E|G#4 ..3. ....|G#4 .... ....|G#4 .... ....
....|.E|G#4 .... ....|G#4 .... ....|G#4 .... ....
....|.E|G#4 ..3. ....|G#4 .... ....|G#4 .... ....
....|.E|G#4 .... ....|G#4 ..3. ....|G#4 .... ....
....|.E|G#4 ..3. ....|G#4 ..1. ....|G#4 .... ....
....|.E|G#4 .... ....|G#4 .... ....|G#4 .... ....
....|.E|G#4 ..7. ....|G#4 .... ....|G#4 ..5. ....
....|.E|G#4 .... ....|G#4 .... ....|G#4 ..6. ....
....|.E|G#4 .... ....|D-1 .... ....|G#4 .... ....
....|.E|G#4 .... ....|G#4 .... ....|G#4 ..5. ....
....|.E|G#4 .... ....|G#4 .... ....|G#4 .... ....
....|.E|G#4 .... ....|G#4 .... ....|G#4 .... ....
....|.E|G#4 ..3. ....|G#4 ..7. ....|G#4 .... ....
....|.E|G#4 .... ....|G#4 ..7. ....|G#4 .... ....
....|.E|G#4 ..7. ....|G#4 .... ....|G#4 ..3. ....
....|.E|G#4 .... ....|G#4 ..7. ....|G#4 .... ....
....|.E|G#4 ..3. ....|G#4 .... ....|G#4 .... ....
....|.E|G#4 .... ....|G#4 .... ....|G#4 .... ....
....|.E|G#4 ..3. ....|G#4 .... ....|G#4 .... ....
....|.E|G#4 .... ....|G#4 .... ....|G#4 .... ....
....|.E|G#4 ..3. ....|G#4 ..3. ....|G#4 .... ....
....|.E|G#4 ..6. ....|G#4 ..7. ....|G#4 .... ....
....|.E|G#4 ..7. ....|G#4 .... ....|G#4 ..5. ....
....|.E|G#4 .... ....|G#4 .... ....|G#4 .... ....
....|.E|G#4 .... ....|G#4 .... ....|G#4 .... ....
....|.E|G#4 .... ....|D-1 .... ....|G#4 ..5. ....
....|.E|G#4 .... ....|G#4 .... ....|G#4 .... ....
....|.E|G#4 .... ....|G#4 .... ....|G#4 .... ....
....|.E|G#4 ..3. ....|G#4 .... ....|G#4 .... ....
....|.E|G#4 .... ....|G#4 ..5. ....|G#4 .... ....
....|.E|G#4 ..7. ....|G#4 ..7. ....|G#4 ..3. ....
....|.E|G#4 .... ....|G#4 .... ....|G#4 .... ....
....|.E|G#4 ..3. ....|G#4 ..5. ....|G#4 .... ....
....|.E|G#4 .... ....|G#4 .... ....|G#4 .... ....
....|.E|G#4 ..3. ....|D-1 .... ....|G#4 .... ....
....|.E|G#4 .... ....|G#4 .... ....|G#4 .... ....
....|.E|G#4 ..3. ....|G#4 .... ....|G#4 .... ....
....|.E|G#4 ..4. ....|G#4 .... ....|G#4 .... ....
....|.E|G#4 ..7. ....|G#4 ..3. ....|G#4 ..7. ....
....|.E|G#4 .... ....|G#4 ..7. ....|G#4 .... ....
....|.E|G#4 .... ....|G#4 .... ....|G#4 .... ....
....|.E|G#4 .... ....|G#4 .... ....|G#4 ..7. ....
....|.E|G#4 .... ....|G#4 .... ....|G#4 .... ....
....|.E|G#4 .... ....|G#4 .... ....|G#4 .... ....
....|.E|G#4 ..3. ....|G#4 .... ....|G#4 .... ....
....|.E|G#4 .... ....|G#4 .... ....|G#4 .... ....
....|.E|G#4 ..7. ....|G#4 ..7. ....|G#4 ..3. ....
....|.E|G#4 .... ....|G#4 ..7. ....|G#4 .... ....
....|.E|G#4 ..3. ....|G#4 .... ....|G#4 .... ....
....|.E|G#4 .... ....|G#4 ..7. ....|G#4 .... ....
....|.E|G#4 ..3. ....|G#4 .... ....|G#4 .... ....
....|.E|G#4 .... ....|D-1 .... ....|G#4 .... ....
....|.E|G#4 ..3. ....|G#4 .... ....|G#4 .... ....
....|.E|G#4 .... ....|G#4 .... ....|G#4 .... ....
....|.E|G#4 ..7. ....|G#4 .... ....|G#4 ..5. ....
....|.E|G#4 .... ....|G#4 ..3. ....|G#4 .... ....
....|.E|G#4 .... ....|G#4 ..7. ....|G#4 .... ....
....|.E|G#4 .... ....|G#4 .... ....|G#4 ..5. ....
....|.E|G#4 .... ....|G#4 .... ....|G#4 .... ....
....|.E|G#4 .... ....|G#4 .... ....|G#4 .... ....
....|.E|G#4 ..3. ....|D-1 .... ....|G#4 .... ....
....|.E|G#4 .... ....|G#4 .... ....|G#4 .... ....
....|.E|G#4 ..7. ....|G#4 .... ....|G#4 ..3. ....
....|.E|G#4 .... ....|G#4 .... ....|G#4 .... ....
....|.E|G#4 ..3. ....|G#4 ..5. ....|G#4 .... ....
....|.E|G#4 .... ....|G#4 ..7. ....|G#4 .... ....
....|.E|G#4 ..1. ....|G#4 .... ....|G#4 .... ....
....|.E|G#4 .... ....|G#4 ..5. ....|B-1 .... ....
....|.E|G#4 ..3. ....|G#4 .... ....|C-1 .... ....
....|.E|G#4 ..3. ....|G#4 .... ....|F-2 .... ....
....|.E|G#4 ..4. ....|G#4 .... ....|C-4 .... ....
....|.E|G#4 .... ....|G#4 .... ....|C-4 .... ....
....|.E|G#4 .... ....|G#4 ..3. ....|A-2 .... ....
....|.E|G#4 .... ....|G#4 ..7. ....|A#3 .... ....
....|.E|G#4 ..4. ....|G#4 .... ....|F#3 .... ....
....|11|G#4 .... ....|G#4 .... ....|C#2 .... ....
....|.E|G#4 ..3. ....|G#4 .... ....|G#4 .... ....
....|.E|G#4 .... ....|D-1 .... ....|G#4 .... ....
....|.E|G#4 ..6. ....|B-1 .... ....|G#4 .... ....
....|15|G#4 .... ....|C-1 .... ....|G#4 ..2. ....
....|.E|G#4 .... ....|F-2 .... ....|G#4 ..6. ....
....|.E|G#4 .... ....|C-4 .... ....|G#4 .... ....
....|.E|G#4 ..1. ....|C-4 .... ....|G#4 ..5. ....
....|.E|G#4 .... ....|A-2 .... ....|G#4 .... ....
....|.E|G#4 ..3. ....|A#3 .... ....|G#4 .... ....
....|.E|G#4 ..2. ....|F#3 .... ....|G#4 .... ....
....|.E|G#4 ..5. ....|C#2 .... ....|G#4 .... ....
....|.E|G#4 .... ....|G#4 .... ....|G#4 ..3. ....
....|.E|G#4 .... ....|G#4 .... ....|G#4 ..3. ....
....|.E|G#4 .... ....|G#4 ..3. ....|G#4 .... ....
....|.E|G#4 ..3. ....|G#4 ..7. ....|G#4 .... ....
....|.E|G#4 .... ....|G#4 ..2. ....|G#4 .... ....
....|.E|G#4 ..3. ....|G#4 .... ....|D-1 .... ....
....|.E|G#4 .... ....|G#4 .... ....|G#4 .... ....
....|.E|G#4 ..7. ....|G#4 .... ....|G#4 .... ....
....|.E|G#4 .... ....|G#4 .... ....|G#4 .... ....
....|.E|G#4 .... ....|G#4 .... ....|G#4 ..7. ....
....|.E|G#4 .... ....|G#4 ..3. ....|G#4 ..3. ....
....|.E|B-1 .... ....|D-1 .... ....|G#4 .... ....
....|.E|C-1 .... ....|G#4 .... ....|G#4 ..7. ....
....|.E|F-2 .... ....|G#4 ..6. ....|G#4 .... ....
....|.E|C-4 .... ....|G#4 .... ....|D-1 .... ....
....|.E|C-4 .... ....|G#4 .... ....|G#4 .... ....
....|.E|A-2 .... ....|G#4 .... ....|G#4 .... ....
....|.E|A#3 .... ....|G#4 .... ....|G#4 .... ....
....|.E|F#3 .... ....|G#4 .... ....|G#4 ..3. ....
....|.E|C#2 .... ....|G#4 ..3. ....|G#4 ..3. ....
....|.E|G#4 ..1. ....|G#4 .... ....|G#4 .... ....
....|.E|G#4 .... ....|G#4 ..3. ....|G#4 .... ....
....|.E|G#4 ..3. ....|G#4 .... ....|G#4 .... ....
....|.E|G#4 ..6. ....|G#4 .... ....|G#4 .... ....
....|.E|G#4 ..4. ....|G#4 .... ....|G#4 .... ....
....|.E|G#4 .... ....|G#4 .... ....|G#4 .... ....
....|.E|G#4 .... ....|G#4 .... ....|G#4 ..3. ....
....|.E|G#4 .... ....|G#4 ..3. ....|G#4 ..3. ....
....|.E|G#4 ..4. ....|G#4 .... ....|G#4 .... ....
....|.E|G#4 .... ....|G#4 ..3. ....|G#4 ..3. ....
....|.E|G#4 ..3. ....|G#4 .... ....|G#4 .... ....
....|.E|G#4 .... ....|G#4 .... ....|D-1 .... ....
....|.E|G#4 ..4. ....|G#4 .... ....|G#4 .... ....
....|.E|G#4 .... ....|G#4 .... ....|G#4 .... ....
....|.E|G#4 ..3. ....|G#4 .... ....|G#4 .... ....
....|.E|G#4 .... ....|G#4 ..3. ....|G#4 ..3. ....
....|.E|G#4 ..1. ....|G#4 .... ....|G#4 ..3. ....
....|.E|G#4 .... ....|G#4 ..3. ....|G#4 .... ....
....|.E|G#4 ..3. ....|G#4 .... ....|G#4 .... ....
....|.E|G#4 .... ....|G#4 .... ....|G#4 .... ....
....|.E|G#4 ..4. ....|G#4 .... ....|D-1 .... ....
....|.E|G#4 .... ....|G#4 .... ....|G#4 .... ....
....|.E|G#4 .... ....|G#4 .... ....|G#4 .... ....
....|.E|G#4 .... ....|G#4 ..3. ....|G#4 .... ....
....|.E|G#4 ..4. ....|G#4 .... ....|G#4 ..7. ....
....|.E|G#4 .... ....|G#4 ..3. ....|G#4 ..3. ....
....|.E|G#4 ..3. ....|G#4 .... ....|G#4 .... ....
....|.E|G#4 .... ....|G#4 .... ....|G#4 ..7. ....
....|.E|G#4 ..4. ....|G#4 .... ....|G#4 .... ....
....|.E|G#4 .... ....|G#4 .... ....|G#4 .... ....
....|.E|G#4 ..3. ....|G#4 .... ....|G#4 .... ....
....|.E|G#4 .... ....|G#4 ..3. ....|G#4 .... ....

[Pattern25]
....|.E|G#4 .... ....|G#4 .... ....|G#4 .... ....
....|.E|D-1 .... ....|G#4 .... ....|G#4 .... ....
....|.E|G#4 .... ....|G#4 .... ....|G#4 .... ....
....|.E|G#4 .... ....|G#4 ..1. ....|G#4 ..3. ....
....|.E|G#4 .... ....|G#4 ..1. ....|G#4 .... ....
....|.E|G#4 ..3. ....|G#4 .... ....|G#4 .... ....
....|.E|G#4 ..7. ....|G#4 ..1. ....|G#4 .... ....
....|.E|G#4 .... ....|G#4 .... ....|G#4 .... ....
....|.E|G#4 .... ....|D-1 .... ....|G#4 .... ....
....|.E|G#4 .... ....|G#4 .... ....|G#4 .... ....
....|.E|G#4 .... ....|G#4 .... ....|G#4 .... ....
....|.E|G#4 .... ....|G#4 .... ....|G#4 ..7. ....
....|.E|G#4 .... ....|G#4 ..3. ....|G#4 .... ....
....|.E|G#4 ..7. ....|G#4 ..1. ....|G#4 .... ....
....|.E|G#4 ..7. ....|G#4 .... ....|G#4 ..7. ....
....|.E|G#4 .... ....|G#4 .... ....|G#4 .... ....
....|.E|G#4 ..7. ....|G#4 .... ....|G#4 .... ....
....|.E|G#4 .... ....|D-1 .... ....|G#4 .... ....
....|.E|D-1 .... ....|G#4 .... ....|G#4 .... ....
....|.E|G#4 .... ....|G#4 .... ....|G#4 ..3. ....
....|.E|G#4 .... ....|G#4 .... ....|G#4 .... ....
....|.E|G#4 .... ....|G#4 ..7. ....|G#4 .... ....
....|.E|G#4 ..3. ....|G#4 ..1. ....|G#4 .... ....
....|.E|G#4 ..7. ....|G#4 .... ....|G#4 .... ....
....|.E|G#4 .... ....|G#4 ..7. ....|G#4 .... ....
....|.E|G#4 .... ....|G#4 .... ....|G#4 .... ....
....|.E|G#4 .... ....|G#4 .... ....|G#4 .... ....
....|.E|D-1 .... ....|G#4 .... ....|G#4 ..2. ....
....|.E|G#4 .... ....|G#4 .... ....|G#4 ..3. ....
....|.E|G#4 .... ....|G#4 ..3. ....|G#4 .... ....
....|.E|G#4 .... ....|G#4 ..1. ....|G#4 ..2. ....
....|.E|G#4 ..5. ....|G#4 .... ....|G#4 .... ....
....|.E|G#4 ..7. ....|G#4 .... ....|G#4 .... ....
....|.E|G#4 .... ....|G#4 .... ....|G#4 .... ....
....|.E|G#4 ..5. ....|D-1 .... ....|G#4 .... ....
....|.E|G#4 .... ....|G#4 .... ....|G#4 ..3. ....
....|.E|G#4 .... ....|G#4 .... ....|G#4 .... ....
....|.E|G#4 .... ....|G#4 .... ....|G#4 .... ....
....|.E|G#4 .... ....|G#4 ..1. ....|G#4 .... ....
....|.E|G#4 ..3. ....|G#4 ..1. ....|G#4 .... ....
....|.E|G#4 ..7. ....|G#4 .... ....|G#4 .... ....
....|.E|G#4 .... ....|G#4 ..1. ....|G#4 .... ....
....|.E|G#4 .... ....|G#4 .... ....|G#4 .... ....
....|.E|G#4 .... ....|G#4 .... ....|G#4 ..7. ....
....|.E|D-1 .... ....|G#4 .... ....|G#4 .... ....
....|.E|B-1 .... ....|G#4 .... ....|G#4 .... ....
....|.E|C-1 .... ....|G#4 ..3. ....|G#4 ..7. ....
....|.E|F-2 .... ....|G#4 ..1. ....|G#4 .... ....
....|.E|C-4 .... ....|G#4 .... ....|G#4 .... ....
....|.E|C-4 .... ....|G#4 .... ....|G#4 .... ....
....|.E|A-2 .... ....|G#4 .... ....|G#4 .... ....
....|.E|A#3 .... ....|D-1 .... ....|G#4 ..3. ....
....|.E|F#3 .... ....|G#4 .... ....|G#4 .... ....
....|.E|C#2 .... ....|G#4 .... ....|G#4 .... ....
....|.E|G#4 .... ....|G#4 .... ....|G#4 .... ....
....|.E|G#4 .... ....|G#4 ..6. ....|G#4 .... ....
....|.E|G#4 ..3. ....|G#4 ..1. ....|G#4 .... ....
....|.E|G#4 ..7. ....|G#4 .... ....|G#4 .... ....
....|.E|G#4 ..2. ....|G#4 ..6. ....|G#4 .... ....
....|.E|G#4 .... ....|G#4 .... ....|G#4 ..3. ....
....|.E|G#4 .... ....|D-1 .... ....|G#4 ..4. ....
....|.E|G#4 .... ....|G#4 .... ....|G#4 .... ....
....|.E|G#4 .... ....|G#4 .... ....|G#4 ..3. ....
....|.E|G#4 .... ....|G#4 .... ....|G#4 .... ....
....|.E|G#4 ..3. ....|G#4 ..3. ....|G#4 .... ....
....|.E|D-1 .... ....|G#4 ..1. ....|G#4 .... ....
....|.E|G#4 .... ....|G#4 .... ....|G#4 .... ....
....|.E|G#4 ..6. ....|G#4 .... ....|G#4 ..3. ....
....|.E|G#4 .... ....|G#4 .... ....|G#4 .... ....
....|.E|G#4 .... ....|G#4 .... ....|G#4 .... ....
....|.E|G#4 .... ....|G#4 .... ....|G#4 .... ....
....|.E|G#4 .... ....|G#4 .... ....|G#4 .... ....
....|.E|G#4 .... ....|G#4 ..1. ....|G#4 .... ....
....|.E|G#4 ..3. ....|G#4 ..1. ....|G#4 .... ....
....|.E|G#4 .... ....|G#4 .... ....|G#4 .... ....
....|.E|G#4 ..3. ....|G#4 ..1. ....|G#4 ..6. ....
....|.E|G#4 .... ....|G#4 .... ....|G#4 .... ....
....|.E|G#4 .... ....|D-1 .... ....|G#4 .... ....
....|.E|G#4 .... ....|G#4 .... ....|G#4 ..6. ....
....|.E|G#4 .... ....|G#4 .... ....|G#4 .... ....
....|.E|G#4 .... ....|G#4 .... ....|G#4 .... ....
....|.E|G#4 ..3. ....|G#4 ..3. ....|G#4 .... ....
....|.E|G#4 .... ....|G#4 ..1. ....|G#4 .... ....
....|.E|G#4 ..3. ....|G#4 .... ....|G#4 ..3. ....
....|.E|G#4 .... ....|G#4 .... ....|G#4 .... ....
....|.E|G#4 .... ....|G#4 .... ....|G#4 .... ....
....|.E|G#4 .... ....|D-1 .... ....|G#4 .... ....
....|.E|G#4 .... ....|G#4 .... ....|G#4 .... ....
....|.E|G#4 .... ....|G#4 .... ....|G#4 .... ....
....|.E|G#4 ..3. ....|G#4 .... ....|G#4 .... ....
....|.E|G#4 .... ....|G#4 ..6. ....|G#4 .... ....
....|.E|G#4 ..3. ....|G#4 ..1. ....|G#4 ..4. ....
....|.E|G#4 .... ....|G#4 .... ....|G#4 ..5. ....
....|.E|G#4 .... ....|G#4 ..6. ....|G#4 .... ....
....|.E|G#4 .... ....|G#4 .... ....|G#4 ..4. ....
....|.E|G#4 .... ....|G#4 .... ....|G#4 .... ....
....|.E|G#4 .... ....|G#4 .... ....|G#4 .... ....
....|.E|G#4 ..3. ....|G#4 .... ....|G#4 .... ....
....|.E|G#4 .... ....|G#4 ..3. ....|G#4 .... ....
....|.E|G#4 ..3. ....|G#4 ..1. ....|G#4 ..3. ....
....|.E|G#4 .... ....|G#4 .... ....|G#4 .... ....
....|.E|G#4 .... ....|G#4 .... ....|G#4 .... ....
....|.E|G#4 .... ....|G#4 .... ....|G#4 .... ....
....|.E|G#4 .... ....|D-1 .... ....|G#4 .... ....
....|.E|G#4 .... ....|G#4 .... ....|G#4 .... ....
....|.E|G#4 ..3. ....|G#4 .... ....|G#4 .... ....
....|.E|G#4 ..6. ....|G#4 .... ....|G#4 .... ....
....|.E|G#4 ..3. ....|G#4 ..7. ....|G#4 ..6. ....
....|.E|G#4 .... ....|G#4 ..7. ....|G#4 .... ....
....|.E|G#4 .... ....|G#4 .... ....|G#4 .... ....
....|.E|G#4 .... ....|G#4 ..7. ....|G#4 ..6. ....
....|.E|G#4 .... ....|G#4 .... ....|G#4 .... ....
....|.E|G#4 .... ....|G#4 .... ....|G#4 .... ....
....|.E|G#4 ..3. ....|G#4 .... ....|G#4 .... ....
....|.E|G#4 ..5. ....|G#4 .... ....|G#4 .... ....
....|.E|G#4 ..3. ....|G#4 ..3. ....|G#4 ..3. ....
....|.E|G#4 .... ....|G#4 ..7. ....|G#4 .... ....
....|.E|G#4 .... ....|G#4 .... ....|G#4 .... ....
....|.E|G#4 .... ....|G#4 .... ....|G#4 .... ....
....|.E|G#4 .... ....|G#4 .... ....|G#4 .... ....
....|.E|G#4 .... ....|D-1 .... ....|G#4 .... ....
....|.E|G#4 ..3. ....|G#4 .... ....|G#4 .... ....
....|.E|G#4 .... ....|G#4 .... ....|G#4 .... ....
....|.E|G#4 ..2. ....|G#4 .... ....|G#4 ..5. ....
....|.E|G#4 .... ....|G#4 ..5. ....|G#4 ..6. ....
....|.E|G#4 .... ....|G#4 ..7. ....|G#4 .... ....
....|.E|G#4 .... ....|G#4 .... ....|G#4 ..5. ....
....|.E|G#4 .... ....|G#4 ..5. ....|G#4 .... ....
....|.E|G#4 .... ....|G#4 .... ....|G#4 .... ....
....|.E|G#4 ..3. ....|D-1 .... ....|G#4 .... ....
....|.E|G#4 .... ....|G#4 .... ....|G#4 .... ....
....|.E|G#4 ..6. ....|G#4 .... ....|G#4 ..3. ....
....|.E|G#4 .... ....|G#4 .... ....|G#4 .... ....
....|.E|G#4 .... ....|G#4 ..3. ....|G#4 .... ....
....|.E|G#4 .... ....|G#4 ..7. ....|G#4 .... ....
....|.E|G#4 .... ....|G#4 .... ....|G#4 .... ....
....|.E|G#4 .... ....|G#4 .... ....|G#4 .... ....
....|.E|G#4 ..3. ....|G#4 .... ....|G#4 .... ....
....|.E|G#4 ..3. ....|G#4 .... ....|G#4 .... ....
....|.E|G#4 ..3. ....|G#4 .... ....|G#4 ..5. ....
....|.E|G#4 .... ....|G#4 .... ....|G#4 .... ....
....|.E|G#4 .... ....|G#4 ..7. ....|G#4 .... ....
....|.E|G#4 .... ....|G#4 ..7. ....|G#4 ..5. ....
....|.E|G#4 .... ....|G#4 .... ....|G#4 .... ....
....|.E|G#4 .... ....|G#4 ..7. ....|G#4 .... ....
....|.E|G#4 ..3. ....|G#4 .... ....|G#4 .... ....
....|.E|G#4 .... ....|D-1 .... ....|G#4 .... ....
....|.E|G#4 ..3. ....|G#4 .... ....|G#4 ..3. ....
....|.E|G#4 .... ....|G#4 .... ....|G#4 .... ....
....|.E|G#4 .... ....|G#4 .... ....|G#4 .... ....
....|.E|G#4 .... ....|G#4 ..3. ....|G#4 .... ....
....|.E|G#4 .... ....|G#4 ..7. ....|G#4 .... ....
....|.E|G#4 .... ....|G#4 .... ....|G#4 .... ....
....|.E|G#4 ..3. ....|G#4 .... ....|G#4 .... ....
....|.E|G#4 ..6. ....|G#4 .... ....|G#4 .... ....
....|.E|G#4 ..3. ....|D-1 .... ....|G#4 ..7. ....
....|.E|G#4 .... ....|G#4 .... ....|G#4 .... ....
....|.E|G#4 .... ....|G#4 .... ....|G#4 .... ....
....|.E|G#4 .... ....|G#4 .... ....|G#4 ..7. ....
....|.E|G#4 .... ....|G#4 ..5. ....|G#4 .... ....
....|.E|G#4 .... ....|G#4 ..7. ....|G#4 .... ....
....|.E|G#4 ..3. ....|G#4 .... ....|G#4 .... ....
....|.E|G#4 .... ....|G#4 ..5. ....|G#4 .... ....
....|.E|G#4 ..3. ....|G#4 .... ....|G#4 ..3. ....
....|.E|G#4 .... ....|G#4 .... ....|G#4 .... ....
....|.E|G#4 .... ....|G#4 .... ....|G#4 .... ....
....|.E|G#4 .... ....|G#4 .... ....|G#4 .... ....
....|.E|G#4 .... ....|G#4 ..3. ....|G#4 .... ....
....|.E|G#4 .... ....|G#4 ..7. ....|G#4 .... ....
....|.E|G#4 ..3. ....|G#4 .... ....|G#4 .... ....
....|.E|G#4 ..3. ....|G#4 .... ....|G#4 .... ....
....|.E|G#4 ..3. ....|G#4 .... ....|G#4 ..5. ....
....|.E|G#4 .... ....|D-1 .... ....|G#4 .... ....
....|.E|G#4 .... ....|B-1 .... ....|G#4 .... ....
....|.E|G#4 .... ....|C-1 .... ....|G#4 ..5. ....
....|.E|G#4 .... ....|F-2 .... ....|G#4 .... ....
....|.E|G#4 .... ....|C-4 .... ....|G#4 .... ....
....|.E|G#4 ..3. ....|C-4 .... ....|G#4 .... ....
....|.E|G#4 .... ....|A-2 .... ....|G#4 .... ....
....|.E|G#4 ..3. ....|A#3 .... ....|G#4 ..3. ....
....|.E|G#4 .... ....|F#3 .... ....|G#4 .... ....
....|.E|G#4 .... ....|C#2 .... ....|G#4 .... ....
....|.E|G#4 .... ....|G#4 .... ....|G#4 .... ....
....|.E|B-1 .... ....|G#4 .... ....|G#4 .... ....
....|.E|C-1 .... ....|G#4 ..3. ....|B-1 .... ....
....|.E|F-2 .... ....|G#4 ..7. ....|C-1 .... ....
....|.E|C-4 .... ....|G#4 ..2. ....|F-2 .... ....
....|.E|C-4 .... ....|G#4 .... ....|C-4 .... ....
....|.E|A-2 .... ....|G#4 .... ....|C-4 .... ....
....|.E|A#3 .... ....|G#4 .... ....|A-2 .... ....
....|.E|F#3 .... ....|G#4 .... ....|A#3 .... ....
....|.E|C#2 .... ....|G#4 .... ....|F#3 .... ....
....|11|G#4 .... ....|G#4 ..3. ....|C#2 .... ....
....|.E|G#4 .... ....|D-1 .... ....|G#4 .... ....
....|.E|G#4 ..3. ....|G#4 .... ....|G#4 .... ....
....|.E|G#4 ..6. ....|G#4 ..6. ....|G#4 .... ....
....|15|G#4 ..2. ....|G#4 .... ....|G#4 ..2. ....
....|.E|G#4 .... ....|G#4 .... ....|G#4 ..6. ....
....|.E|G#4 .... ....|G#4 .... ....|G#4 .... ....
....|.E|G#4 .... ....|G#4 .... ....|G#4 ..5. ....
....|.E|G#4 .... ....|G#4 .... ....|G#4 .... ....
....|.E|G#4 .... ....|G#4 ..3. ....|G#4 .... ....
....|.E|G#4 ..3. ....|G#4 .... ....|G#4 .... ....
....|.E|D-1 .... ....|G#4 ..3. ....|G#4 .... ....
....|.E|G#4 .... ....|G#4 .... ....|G#4 ..3. ....
....|.E|G#4 ..6. ....|G#4 .... ....|G#4 ..3. ....
....|.E|G#4 .... ....|G#4 .... ....|G#4 .... ....
....|.E|G#4 .... ....|G#4 .... ....|G#4 .... ....
....|.E|G#4 .... ....|G#4 .... ....|G#4 .... ....
....|.E|G#4 .... ....|G#4 ..3. ....|D-1 .... ....
....|.E|G#4 .... ....|G#4 .... ....|G#4 .... ....
....|.E|G#4 ..3. ....|G#4 ..3. ....|G#4 .... ....
....|.E|G#4 ..5. ....|G#4 .... ....|G#4 .... ....
....|.E|G#4 ..2. ....|G#4 .... ....|G#4 ..7. ....
....|.E|G#4 .... ....|G#4 .... ....|G#4 ..3. ....
....|.E|G#4 .... ....|G#4 .... ....|G#4 .... ....
....|.E|G#4 .... ....|G#4 .... ....|G#4 ..7. ....
....|.E|G#4 .... ....|G#4 ..3. ....|G#4 .... ....
....|.E|G#4 .... ....|G#4 .... ....|D-1 .... ....
....|.E|G#4 ..3. ....|G#4 ..3. ....|G#4 .... ....
....|.E|D-1 .... ....|G#4 .... ....|G#4 .... ....
....|.E|G#4 .... ....|G#4 .... ....|G#4 .... ....
....|.E|G#4 ..6. ....|G#4 .... ....|G#4 ..3. ....
....|.E|G#4 .... ....|G#4 .... ....|G#4 ..3. ....
....|.E|G#4 .... ....|G#4 .... ....|G#4 .... ....
....|.E|G#4 .... ....|G#4 ..3. ....|G#4 .... ....
....|.E|G#4 .... ....|G#4 .... ....|G#4 .... ....
....|.E|G#4 .... ....|G#4 ..3. ....|G#4 .... ....
....|.E|G#4 ..3. ....|G#4 .... ....|G#4 .... ....
....|.E|G#4 ..3. ....|G#4 .... ....|G#4 .... ....
....|.E|G#4 ..2. ....|G#4 .... ....|G#4 ..3. ....
....|.E|G#4 .... ....|G#4 .... ....|G#4 ..3. ....
....|.E|G#4 .... ....|G#4 .... ....|G#4 .... ....
....|.E|G#4 .... ....|G#4 ..3. ....|G#4 ..3. ....
....|.E|G#4 .... ....|G#4 ..6. ....|G#4 .... ....
....|.E|G#4 .... ....|G#4 ..3. ....|D-1 .... ....
....|.E|G#4 ..3. ....|G#4 .... ....|G#4 .... ....
....|.E|D-1 .... ....|G#4 .... ....|G#4 .... ....
....|.E|G#4 .... ....|G#4 .... ....|G#4 .... ....
....|.E|G#4 ..6. ....|G#4 .... ....|G#4 ..3. ....
....|.E|G#4 .... ....|G#4 .... ....|G#4 ..3. ....
....|.E|G#4 .... ....|G#4 ..3. ....|G#4 .... ....
....|.E|G#4 .... ....|G#4 ..5. ....|G#4 .... ....
....|.E|G#4 .... ....|G#4 ..3. ....|G#4 .... ....
....|.E|G#4 .... ....|G#4 .... ....|D-1 .... ....
....|.E|G#4 ..3. ....|G#4 .... ....|G#4 .... ....
....|.E|G#4 .... ....|G#4 .... ....|G#4 .... ....
....|.E|G#4 ..1. ....|G#4 .... ....|G#4 .... ....
....|.E|G#4 .... ....|G#4 .... ....|G#4 ..7. ....
....|.E|G#4 .... ....|G#4 ..3. ....|G#4 ..3. ....
....|.E|G#4 .... ....|G#4 .... ....|G#4 .... ....
....|.E|G#4 .... ....|G#4 ..2. ....|G#4 ..7. ....
....|.E|G#4 .... ....|G#4 .... ....|G#4 .... ....
....|.E|G#4 ..3. ....|G#4 .... ....|G#4 .... ....
....|.E|G#4 ..6. ....|G#4 .... ....|G#4 .... ....
....|.E|G#4 ..1. ....|G#4 .... ....|G#4 .... ....

[Pattern26]
....|.E|G#4 .... ....|G#4 .... ....|G#4 .... ....
....|.E|G#4 .... ....|G#4 .... ....|G#4 ..7. ....
....|.E|G#4 .... ....|G#4 .... ....|G#4 ..1. ....
....|.E|G#4 ..1. ....|G#4 ..1. ....|G#4 .... ....
....|.E|G#4 ..1. ....|G#4 ..1. ....|G#4 ..7. ....
....|.E|G#4 .... ....|G#4 .... ....|G#4 .... ....
....|.E|G#4 ..1. ....|G#4 ..1. ....|D-1 .... ....
....|.E|G#4 .... ....|G#4 .... ....|G#4 .... ....
....|.E|D-1 .... ....|D-1 .... ....|G#4 .... ....
....|.E|G#4 .... ....|G#4 .... ....|G#4 .... ....
....|.E|G#4 .... ....|G#4 .... ....|G#4 ..3. ....
....|.E|G#4 .... ....|G#4 .... ....|G#4 ..1. ....
....|.E|G#4 ..3. ....|G#4 ..3. ....|G#4 .... ....
....|.E|G#4 ..1. ....|G#4 ..1. ....|G#4 .... ....
....|.E|G#4 .... ....|G#4 .... ....|G#4 .... ....
....|.E|G#4 .... ....|G#4 .... ....|G#4 .... ....
....|.E|G#4 .... ....|G#4 .... ....|G#4 .... ....
....|.E|D-1 .... ....|D-1 .... ....|G#4 .... ....
....|.E|G#4 .... ....|G#4 .... ....|G#4 ..1. ....
....|.E|G#4 .... ....|G#4 .... ....|G#4 ..1. ....
....|.E|G#4 .... ....|G#4 .... ....|G#4 .... ....
....|.E|G#4 ..7. ....|G#4 ..7. ....|G#4 ..1. ....
....|.E|G#4 ..1. ....|G#4 ..1. ....|G#4 .... ....
....|.E|G#4 .... ....|G#4 .... ....|D-1 .... ....
....|.E|G#4 ..7. ....|G#4 ..7. ....|G#4 .... ....
....|.E|G#4 .... ....|G#4 .... ....|G#4 .... ....
....|.E|G#4 .... ....|G#4 .... ....|G#4 .... ....
....|.E|G#4 .... ....|G#4 .... ....|G#4 ..3. ....
....|.E|G#4 .... ....|G#4 .... ....|G#4 ..1. ....
....|.E|G#4 ..3. ....|G#4 ..3. ....|G#4 .... ....
....|.E|G#4 ..1. ....|G#4 ..1. ....|G#4 .... ....
....|.E|G#4 .... ....|G#4 .... ....|G#4 .... ....
....|.E|G#4 .... ....|G#4 .... ....|D-1 .... ....
....|.E|G#4 .... ....|G#4 .... ....|G#4 .... ....
....|.E|D-1 .... ....|D-1 .... ....|G#4 .... ....
....|.E|G#4 .... ....|G#4 .... ....|G#4 .... ....
....|.E|G#4 .... ....|G#4 .... ....|G#4 ..7. ....
....|.E|G#4 .... ....|G#4 .... ....|G#4 ..1. ....
....|.E|G#4 ..1. ....|G#4 ..1. ....|G#4 .... ....
....|.E|G#4 ..1. ....|G#4 ..1. ....|G#4 ..7. ....
....|.E|G#4 .... ....|G#4 .... ....|G#4 .... ....
....|.E|G#4 ..1. ....|G#4 ..1. ....|G#4 .... ....
....|.E|G#4 .... ....|G#4 .... ....|G#4 .... ....
....|.E|G#4 .... ....|G#4 .... ....|G#4 .... ....
....|.E|G#4 .... ....|G#4 .... ....|G#4 ..3. ....
....|.E|G#4 .... ....|G#4 .... ....|G#4 ..1. ....
....|.E|G#4 ..3. ....|G#4 ..3. ....|G#4 .... ....
....|.E|G#4 ..1. ....|G#4 ..1. ....|G#4 .... ....
....|.E|G#4 .... ....|G#4 .... ....|G#4 .... ....
....|.E|G#4 .... ....|G#4 .... ....|D-1 .... ....
....|.E|G#4 .... ....|G#4 .... ....|G#4 .... ....
....|.E|D-1 .... ....|D-1 .... ....|G#4 .... ....
....|.E|G#4 .... ....|G#4 .... ....|G#4 .... ....
....|.E|G#4 .... ....|G#4 .... ....|G#4 ..1. ....
....|.E|G#4 .... ....|G#4 .... ....|G#4 ..1. ....
....|.E|G#4 ..6. ....|G#4 ..6. ....|G#4 .... ....
....|.E|G#4 ..1. ....|G#4 ..1. ....|G#4 ..1. ....
....|.E|G#4 .... ....|G#4 .... ....|G#4 .... ....
....|.E|G#4 ..6. ....|G#4 ..6. ....|G#4 .... ....
....|.E|G#4 .... ....|G#4 .... ....|G#4 .... ....
....|.E|D-1 .... ....|D-1 .... ....|G#4 .... ....
....|.E|G#4 .... ....|G#4 .... ....|G#4 ..3. ....
....|.E|G#4 .... ....|G#4 .... ....|G#4 ..1. ....
....|.E|G#4 .... ....|G#4 .... ....|G#4 .... ....
....|.E|G#4 ..3. ....|G#4 ..3. ....|G#4 .... ....
....|.E|G#4 ..1. ....|G#4 ..1. ....|G#4 .... ....
....|.E|G#4 .... ....|G#4 .... ....|D-1 .... ....
....|.E|G#4 .... ....|G#4 .... ....|G#4 .... ....
....|.E|G#4 .... ....|G#4 .... ....|G#4 .... ....
....|.E|G#4 .... ....|G#4 .... ....|G#4 .... ....
....|.E|G#4 .... ....|G#4 .... ....|G#4 ..6. ....
....|.E|G#4 .... ....|G#4 .... ....|G#4 ..1. ....
....|.E|G#4 ..1. ....|G#4 ..1. ....|G#4 .... ....
....|.E|G#4 ..1. ....|G#4 ..1. ....|G#4 ..6. ....
....|.E|G#4 .... ....|G#4 .... ....|G#4 .... ....
....|.E|G#4 ..1. ....|G#4 ..1. ....|D-1 .... ....
....|.E|G#4 .... ....|G#4 .... ....|G#4 .... ....
....|.E|D-1 .... ....|D-1 .... ....|G#4 .... ....
....|.E|G#4 .... ....|G#4 .... ....|G#4 .... ....
....|.E|G#4 .... ....|G#4 .... ....|G#4 ..3. ....
....|.E|G#4 .... ....|G#4 .... ....|G#4 ..1. ....
....|.E|G#4 ..3. ....|G#4 ..3. ....|G#4 .... ....
....|.E|G#4 ..1. ....|G#4 ..1. ....|G#4 .... ....
....|.E|G#4 .... ....|G#4 .... ....|G#4 .... ....
....|.E|G#4 .... ....|G#4 .... ....|G#4 .... ....
....|.E|G#4 .... ....|G#4 .... ....|G#4 .... ....
....|.E|D-1 .... ....|D-1 .... ....|G#4 .... ....
....|.E|G#4 .... ....|G#4 .... ....|G#4 ..1. ....
....|.E|G#4 .... ....|G#4 .... ....|G#4 ..1. ....
....|.E|G#4 .... ....|G#4 .... ....|G#4 .... ....
....|.E|G#4 ..6. ....|G#4 ..6. ....|G#4 ..1. ....
....|.E|G#4 ..1. ....|G#4 ..1. ....|G#4 .... ....
....|.E|G#4 .... ....|G#4 .... ....|D-1 .... ....
....|.E|G#4 ..6. ....|G#4 ..6. ....|G#4 .... ....
....|.E|G#4 .... ....|G#4 .... ....|G#4 .... ....
....|.E|G#4 .... ....|G#4 .... ....|G#4 .... ....
....|.E|G#4 .... ....|G#4 .... ....|G#4 ..3. ....
....|.E|G#4 .... ....|G#4 .... ....|G#4 ..1. ....
....|.E|G#4 ..3. ....|G#4 ..3. ....|G#4 .... ....
....|.E|G#4 ..1. ....|G#4 ..1. ....|G#4 .... ....
....|.E|G#4 .... ....|G#4 .... ....|G#4 .... ....
....|.E|G#4 .... ....|G#4 .... ....|D-1 .... ....
....|.E|G#4 .... ....|G#4 .... ....|G#4 .... ....
....|.E|D-1 .... ....|D-1 .... ....|G#4 .... ....
....|.E|G#4 .... ....|G#4 .... ....|G#4 .... ....
....|.E|G#4 .... ....|G#4 .... ....|G#4 ..6. ....
....|.E|G#4 .... ....|G#4 .... ....|G#4 ..1. ....
....|.E|G#4 ..7. ....|G#4 ..7. ....|G#4 .... ....
....|.E|G#4 ..7. ....|G#4 ..7. ....|G#4 ..6. ....
....|.E|G#4 .... ....|G#4 .... ....|G#4 .... ....
....|.E|G#4 ..7. ....|G#4 ..7. ....|G#4 .... ....
....|.E|G#4 .... ....|G#4 .... ....|G#4 .... ....
....|.E|G#4 .... ....|G#4 .... ....|G#4 .... ....
....|.E|G#4 .... ....|G#4 .... ....|G#4 ..3. ....
....|.E|G#4 .... ....|G#4 .... ....|G#4 ..1. ....
....|.E|G#4 ..3. ....|G#4 ..3. ....|G#4 .... ....
....|.E|G#4 ..7. ....|G#4 ..7. ....|G#4 .... ....
....|.E|G#4 .... ....|G#4 .... ....|G#4 .... ....
....|.E|G#4 .... ....|G#4 .... ....|D-1 .... ....
....|.E|G#4 .... ....|G#4 .... ....|G#4 .... ....
....|.E|D-1 .... ....|D-1 .... ....|G#4 .... ....
....|.E|G#4 .... ....|G#4 .... ....|G#4 .... ....
....|.E|G#4 .... ....|G#4 .... ....|G#4 ..7. ....
....|.E|G#4 .... ....|G#4 .... ....|G#4 ..7. ....
....|.E|G#4 ..5. ....|G#4 ..5. ....|G#4 .... ....
....|.E|G#4 ..7. ....|G#4 ..7. ....|G#4 ..7. ....
....|.E|G#4 .... ....|G#4 .... ....|G#4 .... ....
....|.E|G#4 ..5. ....|G#4 ..5. ....|G#4 .... ....
....|.E|G#4 .... ....|G#4 .... ....|G#4 .... ....
....|.E|D-1 .... ....|D-1 .... ....|G#4 .... ....
....|.E|G#4 .... ....|G#4 .... ....|G#4 ..3. ....
....|.E|G#4 .... ....|G#4 .... ....|G#4 ..7. ....
....|.E|G#4 .... ....|G#4 .... ....|G#4 .... ....
....|.E|G#4 ..3. ....|G#4 ..3. ....|G#4 .... ....
....|.E|G#4 ..7. ....|G#4 ..7. ....|G#4 .... ....
....|.E|G#4 .... ....|G#4 .... ....|D-1 .... ....
....|.E|G#4 .... ....|G#4 .... ....|G#4 .... ....
....|.E|G#4 .... ....|G#4 .... ....|G#4 .... ....
....|.E|G#4 .... ....|G#4 .... ....|G#4 .... ....
....|.E|G#4 .... ....|G#4 .... ....|G#4 ..5. ....
....|.E|G#4 .... ....|G#4 .... ....|G#4 ..7. ....
....|.E|G#4 ..7. ....|G#4 ..7. ....|G#4 .... ....
....|.E|G#4 ..7. ....|G#4 ..7. ....|G#4 ..5. ....
....|.E|G#4 .... ....|G#4 .... ....|G#4 .... ....
....|.E|G#4 ..7. ....|G#4 ..7. ....|D-1 .... ....
....|.E|G#4 .... ....|G#4 .... ....|G#4 .... ....
....|.E|D-1 .... ....|D-1 .... ....|G#4 .... ....
....|.E|G#4 .... ....|G#4 .... ....|G#4 .... ....
....|.E|G#4 .... ....|G#4 .... ....|G#4 ..3. ....
....|.E|G#4 .... ....|G#4 .... ....|G#4 ..7. ....
....|.E|G#4 ..3. ....|G#4 ..3. ....|G#4 .... ....
....|.E|G#4 ..7. ....|G#4 ..7. ....|G#4 .... ....
....|.E|G#4 .... ....|G#4 .... ....|G#4 .... ....
....|.E|G#4 .... ....|G#4 .... ....|G#4 .... ....
....|.E|G#4 .... ....|G#4 .... ....|G#4 .... ....
....|.E|D-1 .... ....|D-1 .... ....|G#4 .... ....
....|.E|G#4 .... ....|G#4 .... ....|G#4 ..7. ....
....|.E|G#4 .... ....|G#4 .... ....|G#4 ..7. ....
....|.E|G#4 .... ....|G#4 .... ....|G#4 .... ....
....|.E|G#4 ..5. ....|G#4 ..5. ....|G#4 ..7. ....
....|.E|G#4 ..7. ....|G#4 ..7. ....|G#4 .... ....
....|.E|G#4 .... ....|G#4 .... ....|D-1 .... ....
....|.E|G#4 ..5. ....|G#4 ..5. ....|G#4 .... ....
....|.E|G#4 .... ....|G#4 .... ....|G#4 .... ....
....|.E|G#4 .... ....|G#4 .... ....|G#4 .... ....
....|.E|G#4 .... ....|G#4 .... ....|G#4 ..3. ....
....|.E|G#4 .... ....|G#4 .... ....|G#4 ..7. ....
....|.E|G#4 ..3. ....|G#4 ..3. ....|G#4 .... ....
....|.E|G#4 ..7. ....|G#4 ..7. ....|G#4 .... ....
....|.E|G#4 .... ....|G#4 .... ....|G#4 .... ....
....|.E|G#4 .... ....|G#4 .... ....|D-1 .... ....
....|.E|G#4 .... ....|G#4 .... ....|G#4 .... ....
....|.E|D-1 .... ....|D-1 .... ....|G#4 .... ....
....|.E|B-1 .... ....|B-1 .... ....|G#4 .... ....
....|.E|C-1 .... ....|C-1 .... ....|G#4 ..5. ....
....|.E|F-2 .... ....|F-2 .... ....|G#4 ..7. ....
....|.E|C-4 .... ....|C-4 .... ....|G#4 .... ....
....|.E|C-4 .... ....|C-4 .... ....|G#4 ..5. ....
....|.E|A-2 .... ....|A-2 .... ....|G#4 .... ....
....|.E|A#3 .... ....|A#3 .... ....|G#4 .... ....
....|.E|F#3 .... ....|F#3 .... ....|G#4 .... ....
....|.E|C#2 .... ....|C#2 .... ....|G#4 .... ....
....|.E|G#4 .... ....|G#4 .... ....|G#4 ..3. ....
....|.E|G#4 .... ....|G#4 .... ....|G#4 ..7. ....
....|.E|G#4 ..3. ....|G#4 ..3. ....|G#4 .... ....
....|.E|G#4 ..7. ....|G#4 ..7. ....|G#4 .... ....
....|.E|G#4 ..2. ....|G#4 ..2. ....|G#4 .... ....
....|.E|G#4 .... ....|G#4 .... ....|D-1 .... ....
....|.E|G#4 .... ....|G#4 .... ....|B-1 .... ....
....|.E|G#4 .... ....|G#4 .... ....|C-1 .... ....
....|.E|G#4 .... ....|G#4 .... ....|F-2 .... ....
....|.E|G#4 .... ....|G#4 .... ....|C-4 .... ....
....|.E|G#4 ..3. ....|G#4 ..3. ....|C-4 .... ....
....|.E|D-1 .... ....|D-1 .... ....|A-2 .... ....
....|.E|G#4 .... ....|G#4 .... ....|A#3 .... ....
....|.E|G#4 ..6. ....|G#4 ..6. ....|F#3 .... ....
....|12|G#4 .... ....|G#4 .... ....|C#2 .... ....
....|18|G#4 .... ....|G#4 .... ....|G#4 .... ....
....|.E|G#4 .... ....|G#4 .... ....|G#4 .... ....
....|.E|G#4 .... ....|G#4 .... ....|G#4 ..3. ....
....|.E|G#4 .... ....|G#4 .... ....|G#4 ..7. ....
....|.E|G#4 ..3. ....|G#4 ..3. ....|G#4 ..2. ....
....|.E|G#4 .... ....|G#4 .... ....|G#4 .... ....
....|.E|G#4 ..3. ....|G#4 ..3. ....|G#4 .... ....
....|.E|G#4 .... ....|G#4 .... ....|G#4 .... ....
....|.E|G#4 .... ....|G#4 .... ....|G#4 .... ....
....|.E|G#4 .... ....|G#4 .... ....|G#4 .... ....
....|.E|G#4 .... ....|G#4 .... ....|G#4 ..3. ....
....|.E|G#4 .... ....|G#4 .... ....|D-1 .... ....
....|.E|G#4 ..3. ....|G#4 ..3. ....|G#4 .... ....
....|.E|G#4 .... ....|G#4 .... ....|G#4 ..6. ....
....|.E|G#4 ..3. ....|G#4 ..3. ....|G#4 .... ....
....|.E|G#4 .... ....|G#4 .... ....|G#4 .... ....
....|.E|G#4 .... ....|G#4 .... ....|G#4 .... ....
....|.E|G#4 .... ....|G#4 .... ....|G#4 .... ....
....|.E|G#4 .... ....|G#4 .... ....|G#4 .... ....
....|.E|G#4 .... ....|G#4 .... ....|G#4 ..3. ....
....|.E|G#4 ..3. ....|G#4 ..3. ....|G#4 .... ....
....|.E|G#4 .... ....|G#4 .... ....|G#4 ..3. ....
....|.E|G#4 ..3. ....|G#4 ..3. ....|G#4 .... ....
....|.E|G#4 .... ....|G#4 .... ....|G#4 .... ....
....|.E|G#4 .... ....|G#4 .... ....|G#4 .... ....
....|.E|G#4 .... ....|G#4 .... ....|G#4 .... ....
....|.E|G#4 .... ....|G#4 .... ....|G#4 .... ....
....|.E|G#4 .... ....|G#4 .... ....|G#4 ..3. ....
....|.E|G#4 ..3. ....|G#4 ..3. ....|G#4 .... ....
....|.E|G#4 .... ....|G#4 .... ....|G#4 ..3. ....
....|.E|G#4 ..3. ....|G#4 ..3. ....|G#4 .... ....
....|.E|G#4 .... ....|G#4 .... ....|G#4 .... ....
....|.E|G#4 .... ....|G#4 .... ....|G#4 .... ....
....|.E|G#4 .... ....|G#4 .... ....|G#4 .... ....
....|.E|G#4 .... ....|G#4 .... ....|G#4 .... ....
....|.E|G#4 .... ....|G#4 .... ....|G#4 ..3. ....
....|.E|G#4 ..3. ....|G#4 ..3. ....|G#4 .... ....
....|.E|G#4 ..6. ....|G#4 ..6. ....|G#4 ..3. ....
....|.E|G#4 ..3. ....|G#4 ..3. ....|G#4 .... ....
....|.E|G#4 .... ....|G#4 .... ....|G#4 .... ....
....|.E|G#4 .... ....|G#4 .... ....|G#4 .... ....
....|.E|G#4 .... ....|G#4 .... ....|G#4 .... ....
....|.E|G#4 .... ....|G#4 .... ....|G#4 .... ....
....|.E|G#4 .... ....|G#4 .... ....|G#4 ..3. ....
....|.E|G#4 ..3. ....|G#4 ..3. ....|G#4 .... ....
....|.E|G#4 ..5. ....|G#4 ..5. ....|G#4 ..3. ....
....|.E|G#4 ..3. ....|G#4 ..3. ....|G#4 .... ....
....|.E|G#4 .... ....|G#4 .... ....|G#4 .... ....
....|.E|G#4 .... ....|G#4 .... ....|G#4 .... ....
....|.E|G#4 .... ....|G#4 .... ....|G#4 .... ....
....|.E|G#4 .... ....|G#4 .... ....|G#4 .... ....
....|.E|G#4 .... ....|G#4 .... ....|G#4 ..3. ....
....|.E|G#4 ..3. ....|G#4 ..3. ....|G#4 ..6. ....
....|.E|G#4 .... ....|G#4 .... ....|G#4 ..3. ....
....|.E|G#4 ..2. ....|G#4 ..2. ....|G#4 .... ....
....|.E|G#4 .... ....|G#4 .... ....|G#4 .... ....
....|.E|G#4 .... ....|G#4 .... ....|G#4 .... ....
....|.E|G#4 .... ....|G#4 .... ....|G#4 .... ....
....|.E|G#4 .... ....|G#4 .... ....|G#4 .... ....

[Pattern30]
....|.E|G#4 .... ....|G#4 .... ....|G#4 .... ....
....|.E|G#4 .... ....|G#4 .... ....|G#4 .... ....
....|.E|G#4 .... ....|G#4 .... ....|G#4 .... ....
....|.E|G#4 ..1. ....|G#4 ..3. ....|G#4 ..1. ....
....|.E|G#4 ..1. ....|G#4 .... ....|G#4 ..1. ....
....|.E|G#4 .... ....|G#4 .... ....|G#4 .... ....
....|.E|G#4 ..1. ....|G#4 .... ....|G#4 ..1. ....
....|.E|G#4 .... ....|G#4 .... ....|G#4 .... ....
....|.E|D-1 .... ....|G#4 .... ....|D-1 .... ....
....|.E|G#4 .... ....|G#4 .... ....|G#4 .... ....
....|.E|G#4 .... ....|G#4 .... ....|G#4 .... ....
....|.E|G#4 .... ....|G#4 ..7. ....|G#4 .... ....
....|.E|G#4 ..3. ....|G#4 .... ....|G#4 ..3. ....
....|.E|G#4 ..1. ....|G#4 .... ....|G#4 ..1. ....
....|.E|G#4 .... ....|G#4 ..7. ....|G#4 .... ....
....|.E|G#4 .... ....|G#4 .... ....|G#4 .... ....
....|.E|G#4 .... ....|G#4 .... ....|G#4 .... ....
....|.E|D-1 .... ....|G#4 .... ....|D-1 .... ....
....|.E|G#4 .... ....|G#4 .... ....|G#4 .... ....
....|.E|G#4 .... ....|G#4 ..3. ....|G#4 .... ....
....|.E|G#4 .... ....|G#4 .... ....|G#4 .... ....
....|.E|G#4 ..7. ....|G#4 .... ....|G#4 ..7. ....
....|.E|G#4 ..1. ....|G#4 .... ....|G#4 ..1. ....
....|.E|G#4 .... ....|G#4 .... ....|G#4 .... ....
....|.E|G#4 ..7. ....|G#4 .... ....|G#4 ..7. ....
....|.E|G#4 .... ....|G#4 .... ....|G#4 .... ....
....|.E|G#4 .... ....|G#4 .... ....|G#4 .... ....
....|.E|G#4 .... ....|G#4 ..2. ....|G#4 .... ....
....|.E|G#4 .... ....|G#4 ..3. ....|G#4 .... ....
....|.E|G#4 ..3. ....|G#4 .... ....|G#4 ..3. ....
....|.E|G#4 ..1. ....|G#4 ..2. ....|G#4 ..1. ....
....|.E|G#4 .... ....|G#4 .... ....|G#4 .... ....
....|.E|G#4 .... ....|G#4 .... ....|G#4 .... ....
....|.E|G#4 .... ....|G#4 .... ....|G#4 .... ....
....|.E|D-1 .... ....|G#4 .... ....|D-1 .... ....
....|.E|G#4 .... ....|G#4 ..3. ....|G#4 .... ....
....|.E|G#4 .... ....|G#4 .... ....|G#4 .... ....
....|.E|G#4 .... ....|G#4 .... ....|G#4 .... ....
....|.E|G#4 ..1. ....|G#4 .... ....|G#4 ..1. ....
....|.E|G#4 ..1. ....|G#4 .... ....|G#4 ..1. ....
....|.E|G#4 .... ....|G#4 .... ....|G#4 .... ....
....|.E|G#4 ..1. ....|G#4 .... ....|G#4 ..1. ....
....|.E|G#4 .... ....|G#4 .... ....|G#4 .... ....
....|.E|G#4 .... ....|G#4 ..7. ....|G#4 .... ....
....|.E|G#4 .... ....|G#4 .... ....|G#4 .... ....
....|.E|G#4 .... ....|G#4 .... ....|G#4 .... ....
....|.E|G#4 ..3. ....|G#4 ..7. ....|G#4 ..3. ....
....|.E|G#4 ..1. ....|G#4 .... ....|G#4 ..1. ....
....|.E|G#4 .... ....|G#4 .... ....|G#4 .... ....
....|.E|G#4 .... ....|G#4 .... ....|G#4 .... ....
....|.E|G#4 .... ....|G#4 .... ....|G#4 .... ....
....|.E|D-1 .... ....|G#4 ..3. ....|D-1 .... ....
....|.E|G#4 .... ....|G#4 .... ....|G#4 .... ....
....|.E|G#4 .... ....|G#4 .... ....|G#4 .... ....
....|.E|G#4 .... ....|G#4 .... ....|G#4 .... ....
....|.E|G#4 ..6. ....|G#4 .... ....|G#4 ..6. ....
....|.E|G#4 ..1. ....|G#4 .... ....|G#4 ..1. ....
....|.E|G#4 .... ....|G#4 .... ....|G#4 .... ....
....|.E|G#4 ..6. ....|G#4 .... ....|G#4 ..6. ....
....|.E|G#4 .... ....|G#4 ..3. ....|G#4 .... ....
....|.E|D-1 .... ....|G#4 ..4. ....|D-1 .... ....
....|.E|G#4 .... ....|G#4 .... ....|G#4 .... ....
....|.E|G#4 .... ....|G#4 ..3. ....|G#4 .... ....
....|.E|G#4 .... ....|G#4 .... ....|G#4 .... ....
....|.E|G#4 ..3. ....|G#4 .... ....|G#4 ..3. ....
....|.E|G#4 ..1. ....|G#4 .... ....|G#4 ..1. ....
....|.E|G#4 .... ....|G#4 .... ....|G#4 .... ....
....|.E|G#4 .... ....|G#4 ..3. ....|G#4 .... ....
....|.E|G#4 .... ....|G#4 .... ....|G#4 .... ....
....|.E|G#4 .... ....|G#4 .... ....|G#4 .... ....
....|.E|G#4 .... ....|G#4 .... ....|G#4 .... ....
....|.E|G#4 .... ....|G#4 .... ....|G#4 .... ....
....|.E|G#4 ..1. ....|G#4 .... ....|G#4 ..1. ....
....|.E|G#4 ..1. ....|G#4 .... ....|G#4 ..1. ....
....|.E|G#4 .... ....|G#4 .... ....|G#4 .... ....
....|.E|G#4 ..1. ....|G#4 ..6. ....|G#4 ..1. ....
....|.E|G#4 .... ....|G#4 .... ....|G#4 .... ....
....|.E|D-1 .... ....|G#4 .... ....|D-1 .... ....
....|.E|G#4 .... ....|G#4 ..6. ....|G#4 .... ....
....|.E|G#4 .... ....|G#4 .... ....|G#4 .... ....
....|.E|G#4 .... ....|G#4 .... ....|G#4 .... ....
....|.E|G#4 ..3. ....|G#4 .... ....|G#4 ..3. ....
....|.E|G#4 ..1. ....|G#4 .... ....|G#4 ..1. ....
....|.E|G#4 .... ....|G#4 ..3. ....|G#4 .... ....
....|.E|G#4 .... ....|G#4 .... ....|G#4 .... ....
....|.E|G#4 .... ....|G#4 .... ....|G#4 .... ....
....|.E|D-1 .... ....|G#4 .... ....|D-1 .... ....
....|.E|G#4 .... ....|G#4 .... ....|G#4 .... ....
....|.E|G#4 .... ....|G#4 .... ....|G#4 .... ....
....|.E|G#4 .... ....|G#4 .... ....|G#4 .... ....
....|.E|G#4 ..6. ....|G#4 .... ....|G#4 ..6. ....
....|.E|G#4 ..1. ....|G#4 ..4. ....|G#4 ..1. ....
....|.E|G#4 .... ....|G#4 ..5. ....|G#4 .... ....
....|.E|G#4 ..6. ....|G#4 .... ....|G#4 ..6. ....
....|.E|G#4 .... ....|G#4 ..4. ....|G#4 .... ....
....|.E|G#4 .... ....|G#4 .... ....|G#4 .... ....
....|.E|G#4 .... ....|G#4 .... ....|G#4 .... ....
....|.E|G#4 .... ....|G#4 .... ....|G#4 .... ....
....|.E|G#4 ..3. ....|G#4 .... ....|G#4 ..3. ....
....|.E|G#4 ..1. ....|G#4 ..3. ....|G#4 ..1. ....
....|.E|G#4 .... ....|G#4 .... ....|G#4 .... ....
....|.E|G#4 .... ....|G#4 .... ....|G#4 .... ....
....|.E|G#4 .... ....|G#4 .... ....|G#4 .... ....
....|.E|D-1 .... ....|G#4 .... ....|D-1 .... ....
....|.E|G#4 .... ....|G#4 .... ....|G#4 .... ....
....|.E|G#4 .... ....|G#4 .... ....|G#4 .... ....
....|.E|G#4 .... ....|G#4 .... ....|G#4 .... ....
....|.E|G#4 ..7. ....|G#4 ..6. ....|G#4 ..7. ....
....|.E|G#4 ..7. ....|G#4 .... ....|G#4 ..7. ....
....|.E|G#4 .... ....|G#4 .... ....|G#4 .... ....
....|.E|G#4 ..7. ....|G#4 ..6. ....|G#4 ..7. ....
....|.E|G#4 .... ....|G#4 .... ....|G#4 .... ....
....|.E|G#4 .... ....|G#4 .... ....|G#4 .... ....
....|.E|G#4 .... ....|G#4 .... ....|G#4 .... ....
....|.E|G#4 .... ....|G#4 .... ....|G#4 .... ....
....|.E|G#4 ..3. ....|G#4 ..3. ....|G#4 ..3. ....
....|.E|G#4 ..7. ....|G#4 .... ....|G#4 ..7. ....
....|.E|G#4 .... ....|G#4 .... ....|G#4 .... ....
....|.E|G#4 .... ....|G#4 .... ....|G#4 .... ....
....|.E|G#4 .... ....|G#4 .... ....|G#4 .... ....
....|.E|D-1 .... ....|G#4 .... ....|D-1 .... ....
....|.E|G#4 .... ....|G#4 .... ....|G#4 .... ....
....|.E|G#4 .... ....|G#4 .... ....|G#4 .... ....
....|.E|G#4 .... ....|G#4 ..5. ....|G#4 .... ....
....|.E|G#4 ..5. ....|G#4 ..6. ....|G#4 ..5. ....
....|.E|G#4 ..7. ....|G#4 .... ....|G#4 ..7. ....
....|.E|G#4 .... ....|G#4 ..5. ....|G#4 .... ....
....|.E|G#4 ..5. ....|G#4 .... ....|G#4 ..5. ....
....|.E|G#4 .... ....|G#4 .... ....|G#4 .... ....
....|.E|D-1 .... ....|G#4 .... ....|D-1 .... ....
....|.E|G#4 .... ....|G#4 .... ....|G#4 .... ....
....|.E|G#4 .... ....|G#4 ..3. ....|G#4 .... ....
....|.E|G#4 .... ....|G#4 .... ....|G#4 .... ....
....|.E|G#4 ..3. ....|G#4 .... ....|G#4 ..3. ....
....|.E|G#4 ..7. ....|G#4 .... ....|G#4 ..7. ....
....|.E|G#4 .... ....|G#4 .... ....|G#4 .... ....
....|.E|G#4 .... ....|G#4 .... ....|G#4 .... ....
....|.E|G#4 .... ....|G#4 .... ....|G#4 .... ....
....|.E|G#4 .... ....|G#4 .... ....|G#4 .... ....
....|.E|G#4 .... ....|G#4 ..5. ....|G#4 .... ....
....|.E|G#4 .... ....|G#4 .... ....|G#4 .... ....
....|.E|G#4 ..7. ....|G#4 .... ....|G#4 ..7. ....
....|.E|G#4 ..7. ....|G#4 ..5. ....|G#4 ..7. ....
....|.E|G#4 .... ....|G#4 .... ....|G#4 .... ....
....|.E|G#4 ..7. ....|G#4 .... ....|G#4 ..7. ....
....|.E|G#4 .... ....|G#4 .... ....|G#4 .... ....
....|.E|D-1 .... ....|G#4 .... ....|D-1 .... ....
....|.E|G#4 .... ....|G#4 ..3. ....|G#4 .... ....
....|.E|G#4 .... ....|G#4 .... ....|G#4 .... ....
....|.E|G#4 .... ....|G#4 .... ....|G#4 .... ....
....|.E|G#4 ..3. ....|G#4 .... ....|G#4 ..3. ....
....|.E|G#4 ..7. ....|G#4 .... ....|G#4 ..7. ....
....|.E|G#4 .... ....|G#4 .... ....|G#4 .... ....
....|.E|G#4 .... ....|G#4 .... ....|G#4 .... ....
....|.E|G#4 .... ....|G#4 .... ....|G#4 .... ....
....|.E|D-1 .... ....|G#4 ..7. ....|D-1 .... ....
....|.E|G#4 .... ....|G#4 .... ....|G#4 .... ....
....|.E|G#4 .... ....|G#4 .... ....|G#4 .... ....
....|.E|G#4 .... ....|G#4 ..7. ....|G#4 .... ....
....|.E|G#4 ..5. ....|G#4 .... ....|G#4 ..5. ....
....|.E|G#4 ..7. ....|G#4 .... ....|G#4 ..7. ....
....|.E|G#4 .... ....|G#4 .... ....|G#4 .... ....
....|.E|G#4 ..5. ....|G#4 .... ....|G#4 ..5. ....
....|.E|G#4 .... ....|G#4 ..3. ....|G#4 .... ....
....|.E|G#4 .... ....|G#4 .... ....|G#4 .... ....
....|.E|G#4 .... ....|G#4 .... ....|G#4 .... ....
....|.E|G#4 .... ....|G#4 .... ....|G#4 .... ....
....|.E|G#4 ..3. ....|G#4 .... ....|G#4 ..3. ....
....|.E|G#4 ..7. ....|G#4 .... ....|G#4 ..7. ....
....|.E|G#4 .... ....|G#4 .... ....|G#4 .... ....
....|.E|G#4 .... ....|G#4 .... ....|G#4 .... ....
....|.E|G#4 .... ....|G#4 ..5. ....|G#4 .... ....
....|.E|D-1 .... ....|G#4 .... ....|D-1 .... ....
....|.E|B-1 .... ....|G#4 .... ....|B-1 .... ....
....|.E|C-1 .... ....|G#4 ..5. ....|C-1 .... ....
....|.E|F-2 .... ....|G#4 .... ....|F-2 .... ....
....|.E|C-4 .... ....|G#4 .... ....|C-4 .... ....
....|.E|C-4 .... ....|G#4 .... ....|C-4 .... ....
....|.E|A-2 .... ....|G#4 .... ....|A-2 .... ....
....|.E|A#3 .... ....|G#4 ..3. ....|A#3 .... ....
....|.E|F#3 .... ....|G#4 .... ....|F#3 .... ....
....|12|C#2 .... ....|G#4 .... ....|C#2 .... ....
....|18|G#4 .... ....|G#4 .... ....|G#4 .... ....
....|.E|G#4 .... ....|G#4 .... ....|G#4 .... ....
....|.E|G#4 ..3. ....|B-1 .... ....|G#4 ..3. ....
....|.E|G#4 ..7. ....|C-1 .... ....|G#4 ..7. ....
....|.E|G#4 ..2. ....|F-2 .... ....|G#4 ..2. ....
....|.E|G#4 .... ....|C-4 .... ....|G#4 .... ....
....|.E|G#4 .... ....|C-4 .... ....|G#4 .... ....
....|.E|G#4 .... ....|A-2 .... ....|G#4 .... ....
....|.E|G#4 .... ....|A#3 .... ....|G#4 .... ....
....|.E|G#4 .... ....|F#3 .... ....|G#4 .... ....
....|.E|G#4 ..3. ....|C#2 .... ....|G#4 ..3. ....
....|.E|D-1 .... ....|G#4 .... ....|D-1 .... ....
....|.E|G#4 .... ....|G#4 .... ....|G#4 .... ....
....|.E|G#4 ..6. ....|G#4 .... ....|G#4 ..6. ....
....|.E|G#4 .... ....|G#4 ..2. ....|G#4 .... ....
....|.E|G#4 .... ....|G#4 ..6. ....|G#4 .... ....
....|.E|G#4 .... ....|G#4 .... ....|G#4 .... ....
....|.E|G#4 .... ....|G#4 ..5. ....|G#4 .... ....
....|.E|G#4 .... ....|G#4 .... ....|G#4 .... ....
....|.E|G#4 ..3. ....|G#4 .... ....|G#4 ..3. ....
....|.E|G#4 .... ....|G#4 .... ....|G#4 .... ....
....|.E|G#4 ..3. ....|G#4 .... ....|G#4 ..3. ....
....|.E|G#4 .... ....|G#4 ..3. ....|G#4 .... ....
....|.E|G#4 .... ....|G#4 ..3. ....|G#4 .... ....
....|.E|G#4 .... ....|G#4 .... ....|G#4 .... ....
....|.E|G#4 .... ....|G#4 .... ....|G#4 .... ....
....|.E|G#4 .... ....|G#4 .... ....|G#4 .... ....
....|.E|G#4 ..3. ....|D-1 .... ....|G#4 ..3. ....
....|.E|G#4 .... ....|G#4 .... ....|G#4 .... ....
....|.E|G#4 ..3. ....|G#4 .... ....|G#4 ..3. ....
....|.E|G#4 .... ....|G#4 .... ....|G#4 .... ....
....|.E|G#4 .... ....|G#4 ..7. ....|G#4 .... ....
....|.E|G#4 .... ....|G#4 ..3. ....|G#4 .... ....
....|.E|G#4 .... ....|G#4 .... ....|G#4 .... ....
....|.E|G#4 .... ....|G#4 ..7. ....|G#4 .... ....
....|.E|G#4 ..3. ....|G#4 .... ....|G#4 ..3. ....
....|.E|G#4 .... ....|D-1 .... ....|G#4 .... ....
....|.E|G#4 ..3. ....|G#4 .... ....|G#4 ..3. ....
....|.E|G#4 .... ....|G#4 .... ....|G#4 .... ....
....|.E|G#4 .... ....|G#4 .... ....|G#4 .... ....
....|.E|G#4 .... ....|G#4 ..3. ....|G#4 .... ....
....|.E|G#4 .... ....|G#4 ..3. ....|G#4 .... ....
....|.E|G#4 .... ....|G#4 .... ....|G#4 .... ....
....|.E|G#4 ..3. ....|G#4 .... ....|G#4 ..3. ....
....|.E|G#4 .... ....|G#4 .... ....|G#4 .... ....
....|.E|G#4 ..3. ....|G#4 .... ....|G#4 ..3. ....
....|.E|G#4 .... ....|G#4 .... ....|G#4 .... ....
....|.E|G#4 .... ....|G#4 .... ....|G#4 .... ....
....|.E|G#4 .... ....|G#4 ..3. ....|G#4 .... ....
....|.E|G#4 .... ....|G#4 ..3. ....|G#4 .... ....
....|.E|G#4 .... ....|G#4 .... ....|G#4 .... ....
....|.E|G#4 ..3. ....|G#4 ..3. ....|G#4 ..3. ....
....|.E|G#4 ..6. ....|G#4 .... ....|G#4 ..6. ....
....|.E|G#4 ..3. ....|D-1 .... ....|G#4 ..3. ....
....|.E|G#4 .... ....|G#4 .... ....|G#4 .... ....
....|.E|G#4 .... ....|G#4 .... ....|G#4 .... ....
....|.E|G#4 .... ....|G#4 .... ....|G#4 .... ....
....|.E|G#4 .... ....|G#4 ..3. ....|G#4 .... ....
....|.E|G#4 .... ....|G#4 ..3. ....|G#4 .... ....
....|.E|G#4 ..3. ....|G#4 .... ....|G#4 ..3. ....
....|.E|G#4 ..5. ....|G#4 .... ....|G#4 ..5. ....
....|.E|G#4 ..3. ....|G#4 .... ....|G#4 ..3. ....
....|.E|G#4 .... ....|D-1 .... ....|G#4 .... ....
....|.E|G#4 .... ....|G#4 .... ....|G#4 .... ....
....|.E|G#4 .... ....|G#4 .... ....|G#4 .... ....
....|18|G#4 .... ....|G#4 .... ....|G#4 .... ....
....|.E|G#4 .... ....|G#4 ..7. ....|G#4 .... ....
....|.E|G#4 ..3. ....|G#4 ..3. ....|G#4 ..3. ....
....|.E|G#4 .... ....|G#4 .... ....|G#4 .... ....
....|.E|G#4 ..2. ....|G#4 ..7. ....|G#4 ..2. ....
....|.E|G#4 .... ....|G#4 .... ....|G#4 .... ....
....|.E|G#4 .... ....|G#4 .... ....|G#4 .... ....
....|.E|G#4 .... ....|G#4 .... ....|G#4 .... ....
....|.E|G#4 .... ....|G#4 .... ....|G#4 .... ....

[Pattern31]
....|.E|G#4 .... ....|D#2 .... ....|G#4 .... ....
....|.E|G#4 .... ....|D#2 ..1. ....|G#4 .... ....
....|.E|G#4 .... ....|E-1 .... ....|G#4 .... ....
....|.E|G#4 ..1. ....|F#3 .... ....|G#4 ..1. ....
....|.E|G#4 ..1. ....|A-2 .... ....|G#4 ..1. ....
....|.E|G#4 .... ....|D#2 .... ....|G#4 .... ....
....|.E|G#4 ..1. ....|D#2 .... ....|G#4 ..1. ....
....|.E|G#4 .... ....|D#2 ..1. ....|G#4 .... ....
....|.E|D-1 .... ....|E-1 .... ....|D-1 .... ....
....|.E|G#4 .... ....|F#3 .... ....|G#4 .... ....
....|.E|G#4 .... ....|A-2 .... ....|G#4 .... ....
....|.E|G#4 .... ....|D#2 .... ....|G#4 .... ....
....|.E|G#4 ..3. ....|D#2 .... ....|G#4 ..3. ....
....|.E|G#4 ..1. ....|D#2 ..1. ....|G#4 ..1. ....
....|.E|G#4 .... ....|E-1 .... ....|G#4 .... ....
....|.E|G#4 .... ....|F#3 .... ....|G#4 .... ....
....|.E|G#4 .... ....|A-2 .... ....|G#4 .... ....
....|10|D-1 .... ....|D#2 .... ....|D-1 .... ....
....|.E|G#4 .... ....|D#2 .... ....|G#4 .... ....
....|.E|G#4 .... ....|D#2 .... ....|G#4 .... ....
....|.E|G#4 .... ....|E-1 .... ....|G#4 .... ....
....|.E|G#4 ..7. ....|F#3 .... ....|G#4 ..7. ....
....|.E|G#4 ..1. ....|A-2 .... ....|G#4 ..1. ....
....|.E|G#4 .... ....|D#2 .... ....|G#4 .... ....
....|.E|G#4 ..7. ....|D#2 .... ....|G#4 ..7. ....
....|.E|G#4 .... ....|D#2 .... ....|G#4 .... ....
....|.E|G#4 .... ....|E-1 .... ....|G#4 .... ....
....|.E|G#4 .... ....|F#3 .... ....|G#4 .... ....
....|.E|G#4 .... ....|A-2 .... ....|G#4 .... ....
....|.E|G#4 ..3. ....|D#2 .... ....|G#4 ..3. ....
....|.E|G#4 ..1. ....|D#2 .... ....|G#4 ..1. ....
....|.E|G#4 .... ....|D#2 .... ....|G#4 .... ....
....|.E|G#4 .... ....|E-1 ..C. ....|G#4 .... ....
....|.E|G#4 .... ....|F#3 .... ....|G#4 .... ....
....|.E|D-1 .... ....|A-2 .... ....|D-1 .... ....
....|.E|G#4 .... ....|D#2 .... ....|G#4 .... ....
....|.E|G#4 .... ....|D#2 .... ....|G#4 .... ....
....|.E|G#4 .... ....|D#2 .... ....|G#4 .... ....
....|.E|G#4 ..1. ....|E-1 .... ....|G#4 ..1. ....
....|.E|G#4 ..1. ....|F#3 .... ....|G#4 ..1. ....
....|.E|G#4 .... ....|A-2 .... ....|G#4 .... ....
....|.E|G#4 ..1. ....|D#2 .... ....|G#4 ..1. ....
....|.E|G#4 .... ....|D#2 .... ....|G#4 .... ....
....|.E|G#4 .... ....|D#2 .... ....|G#4 .... ....
....|.E|G#4 .... ....|E-1 .... ....|G#4 .... ....
....|.E|G#4 .... ....|F#3 .... ....|G#4 .... ....
....|.E|G#4 ..3. ....|A-2 .... ....|G#4 ..3. ....
....|.E|G#4 ..1. ....|D#2 .... ....|G#4 ..1. ....
....|.E|G#4 .... ....|D#2 .... ....|G#4 .... ....
....|.E|G#4 .... ....|D#2 .... ....|G#4 .... ....
....|.E|G#4 .... ....|E-1 .... ....|G#4 .... ....
....|.E|D-1 .... ....|F#3 .... ....|D-1 .... ....
....|.E|G#4 .... ....|A-2 .... ....|G#4 .... ....
....|.E|G#4 .... ....|D#2 .... ....|G#4 .... ....
....|.E|G#4 .... ....|D#2 .... ....|G#4 .... ....
....|.E|G#4 ..6. ....|D#2 .... ....|G#4 ..6. ....
....|.E|G#4 ..1. ....|E-1 .... ....|G#4 ..1. ....
....|.E|G#4 .... ....|F#3 .... ....|G#4 .... ....
....|.E|G#4 ..6. ....|A-2 .... ....|G#4 ..6. ....
....|.E|G#4 .... ....|D#2 .... ....|G#4 .... ....
....|10|D-1 .... ....|D#2 .... ....|D-1 .... ....
....|.E|G#4 .... ....|D#2 .... ....|G#4 .... ....
....|.E|G#4 .... ....|E-1 .... ....|G#4 .... ....
....|.E|G#4 .... ....|F#3 .... ....|G#4 .... ....
....|.E|G#4 ..3. ....|A-2 .... ....|G#4 ..3. ....
....|.E|G#4 ..1. ....|D#2 .... ....|G#4 ..1. ....
....|.E|G#4 .... ....|D#2 .... ....|G#4 .... ....
....|.E|G#4 .... ....|D#2 .... ....|G#4 .... ....
....|.E|G#4 .... ....|E-1 .... ....|G#4 .... ....
....|.E|G#4 .... ....|F#3 .... ....|G#4 .... ....
....|.E|G#4 .... ....|A-2 .... ....|G#4 .... ....
....|.E|G#4 .... ....|D#2 .... ....|G#4 .... ....
....|.E|G#4 ..1. ....|D#2 .... ....|G#4 ..1. ....
....|.E|G#4 ..1. ....|D#2 .... ....|G#4 ..1. ....
....|.E|G#4 .... ....|B-1 .... ....|G#4 .... ....
....|.E|G#4 ..1. ....|D#1 .... ....|G#4 ..1. ....
....|.E|G#4 .... ....|F-2 .... ....|G#4 .... ....
....|.E|D-1 .... ....|F-3 .... ....|D-1 .... ....
....|.E|G#4 .... ....|G#3 .... ....|G#4 .... ....
....|.E|G#4 .... ....|E-3 .... ....|G#4 .... ....
....|.E|G#4 .... ....|A-2 .... ....|G#4 .... ....
....|.E|G#4 ..3. ....|C#2 .... ....|G#4 ..3. ....
....|.E|G#4 ..1. ....|C-4 .... ....|G#4 ..1. ....
....|.E|G#4 .... ....|A-2 ..E. ....|G#4 .... ....
....|.E|G#4 .... ....|D#2 .... ....|G#4 .... ....
....|.E|G#4 .... ....|D#2 .... ....|G#4 .... ....
....|..|D-1 .... ....|B-1 ..C. ....|D-1 .... ....
....|.E|G#4 .... ....|D#1 .... ....|G#4 .... ....
....|.E|G#4 .... ....|F-2 .... ....|G#4 .... ....
....|.E|G#4 .... ....|F-3 .... ....|G#4 .... ....
....|.E|G#4 ..6. ....|G#3 .... ....|G#4 ..6. ....
....|.E|G#4 ..1. ....|E-3 .... ....|G#4 ..1. ....
....|.E|G#4 .... ....|A-2 .... ....|G#4 .... ....
....|.E|G#4 ..6. ....|C#2 .... ....|G#4 ..6. ....
....|.E|G#4 .... ....|E-1 .... ....|G#4 .... ....
....|.E|G#4 .... ....|F#3 .... ....|G#4 .... ....
....|.E|G#4 .... ....|A-2 .... ....|G#4 .... ....
....|.E|G#4 .... ....|D#2 .... ....|G#4 .... ....
....|.E|G#4 ..3. ....|D#2 .... ....|G#4 ..3. ....
....|.E|G#4 ..1. ....|D#2 ..3. ....|G#4 ..1. ....
....|.E|G#4 .... ....|E-1 .... ....|G#4 .... ....
....|.E|G#4 .... ....|F#3 .... ....|G#4 .... ....
....|.E|G#4 .... ....|A-2 .... ....|G#4 .... ....
....|11|D-1 .... ....|D#2 .... ....|D-1 .... ....
....|.E|G#4 .... ....|D#2 .... ....|G#4 .... ....
....|.E|G#4 .... ....|D#2 ..3. ....|G#4 .... ....
....|.E|G#4 .... ....|E-1 .... ....|G#4 .... ....
....|.E|G#4 ..7. ....|F#3 .... ....|G#4 ..7. ....
....|.E|G#4 ..7. ....|A-2 .... ....|G#4 ..7. ....
....|.E|G#4 .... ....|D#2 .... ....|G#4 .... ....
....|.E|G#4 ..7. ....|D#2 .... ....|G#4 ..7. ....
....|.E|G#4 .... ....|D#2 ..3. ....|G#4 .... ....
....|.E|G#4 .... ....|E-1 .... ....|G#4 .... ....
....|.E|G#4 .... ....|F#3 .... ....|G#4 .... ....
....|.E|G#4 .... ....|A-2 .... ....|G#4 .... ....
....|.E|G#4 ..3. ....|D#2 .... ....|G#4 ..3. ....
....|.E|G#4 ..7. ....|D#2 .... ....|G#4 ..7. ....
....|.E|G#4 .... ....|D#2 ..3. ....|G#4 .... ....
....|.E|G#4 .... ....|E-1 .... ....|G#4 .... ....
....|.E|G#4 .... ....|F#3 .... ....|G#4 .... ....
....|.E|D-1 .... ....|A-2 .... ....|D-1 .... ....
....|.E|G#4 .... ....|D#2 .... ....|G#4 .... ....
....|.E|G#4 .... ....|D#2 .... ....|G#4 .... ....
....|.E|G#4 .... ....|D#2 ..3. ....|G#4 .... ....
....|.E|G#4 ..5. ....|E-1 .... ....|G#4 ..5. ....
....|.E|G#4 ..7. ....|F#3 .... ....|G#4 ..7. ....
....|.E|G#4 .... ....|A-2 .... ....|G#4 .... ....
....|.E|G#4 ..5. ....|D#2 .... ....|G#4 ..5. ....
....|.E|G#4 .... ....|D#2 .... ....|G#4 .... ....
....|..|D-1 .... ....|D#2 ..3. ....|D-1 .... ....
....|.E|G#4 .... ....|E-1 .... ....|G#4 .... ....
....|.E|G#4 .... ....|F#3 .... ....|G#4 .... ....
....|.E|G#4 .... ....|A-2 .... ....|G#4 .... ....
....|.E|G#4 ..3. ....|D#2 .... ....|G#4 ..3. ....
....|.E|G#4 ..7. ....|D#2 .... ....|G#4 ..7. ....
....|.E|G#4 .... ....|D#2 ..3. ....|G#4 .... ....
....|.E|G#4 .... ....|E-1 .... ....|G#4 .... ....
....|.E|G#4 .... ....|F#3 .... ....|G#4 .... ....
....|.E|G#4 .... ....|A-2 .... ....|G#4 .... ....
....|.E|G#4 .... ....|D#2 .... ....|G#4 .... ....
....|.E|G#4 .... ....|D#2 .... ....|G#4 .... ....
....|.E|G#4 ..7. ....|D#2 ..3. ....|G#4 ..7. ....
....|.E|G#4 ..7. ....|E-1 .... ....|G#4 ..7. ....
....|.E|G#4 .... ....|F#3 .... ....|G#4 .... ....
....|.E|G#4 ..7. ....|A-2 .... ....|G#4 ..7. ....
....|.E|G#4 .... ....|D#2 .... ....|G#4 .... ....
....|10|D-1 .... ....|D#2 .... ....|D-1 .... ....
....|.E|G#4 .... ....|D#2 ..3. ....|G#4 .... ....
....|.E|G#4 .... ....|E-1 .... ....|G#4 .... ....
....|.E|G#4 .... ....|F#3 .... ....|G#4 .... ....
....|.E|G#4 ..3. ....|A-2 .... ....|G#4 ..3. ....
....|.E|G#4 ..7. ....|D#2 .... ....|G#4 ..7. ....
....|.E|G#4 .... ....|D#2 .... ....|G#4 .... ....
....|.E|G#4 .... ....|D#2 ..3. ....|G#4 .... ....
....|.E|G#4 .... ....|E-1 .... ....|G#4 .... ....
....|.E|D-1 .... ....|F#3 .... ....|D-1 .... ....
....|.E|G#4 .... ....|A-2 .... ....|G#4 .... ....
....|.E|G#4 .... ....|D#2 .... ....|G#4 .... ....
....|.E|G#4 .... ....|D#2 .... ....|G#4 .... ....
....|.E|G#4 ..5. ....|D#2 ..3. ....|G#4 ..5. ....
....|.E|G#4 ..7. ....|E-1 .... ....|G#4 ..7. ....
....|.E|G#4 .... ....|F#3 .... ....|G#4 .... ....
....|.E|G#4 ..5. ....|A-2 .... ....|G#4 ..5. ....
....|.E|G#4 .... ....|D#2 .... ....|G#4 .... ....
....|.E|G#4 .... ....|D#2 .... ....|G#4 .... ....
....|.E|G#4 .... ....|D#2 ..3. ....|G#4 .... ....
....|.E|G#4 .... ....|E-1 .... ....|G#4 .... ....
....|.E|G#4 ..3. ....|F#3 .... ....|G#4 ..3. ....
....|.E|G#4 ..7. ....|A-2 .... ....|G#4 ..7. ....
....|.E|G#4 .... ....|D#2 .... ....|G#4 .... ....
....|.E|G#4 .... ....|D#2 .... ....|G#4 .... ....
....|.E|G#4 .... ....|D#2 ..3. ....|G#4 .... ....
....|.E|D-1 .... ....|E-1 .... ....|D-1 .... ....
....|.E|B-1 .... ....|F#3 .... ....|B-1 .... ....
....|.E|C-1 .... ....|A-2 .... ....|C-1 .... ....
....|11|F-2 .... ....|D#2 .... ....|F-2 .... ....
....|10|C-4 .... ....|D#2 .... ....|C-4 .... ....
....|..|C-4 .... ....|D#2 ..3. ....|C-4 .... ....
....|..|A-2 .... ....|E-1 .... ....|A-2 .... ....
....|..|A#3 .... ....|F#3 .... ....|A#3 .... ....
....|..|F#3 .... ....|A-2 .... ....|F#3 .... ....
....|12|C#2 .... ....|D#2 .... ....|C#2 .... ....
....|18|G#4 .... ....|D#2 .... ....|G#4 .... ....
....|.E|G#4 .... ....|D#2 ..3. ....|G#4 .... ....
....|.E|G#4 ..3. ....|E-1 .... ....|G#4 ..3. ....
....|.E|G#4 ..7. ....|F#3 .... ....|G#4 ..7. ....
....|.E|G#4 ..2. ....|A-2 .... ....|G#4 ..2. ....
....|.E|G#4 .... ....|D#2 .... ....|G#4 .... ....
....|.E|G#4 .... ....|D#2 .... ....|G#4 .... ....
....|.E|G#4 .... ....|D#2 ..3. ....|G#4 .... ....
....|.E|G#4 .... ....|E-1 .... ....|G#4 .... ....
....|.E|G#4 .... ....|F#3 .... ....|G#4 .... ....
....|.E|G#4 ..3. ....|A-2 .... ....|G#4 ..3. ....
....|10|D-1 .... ....|D#2 .... ....|D-1 .... ....
....|.E|G#4 .... ....|D#2 .... ....|G#4 .... ....
....|.E|G#4 ..6. ....|D#2 ..3. ....|G#4 ..6. ....
....|.E|G#4 .... ....|E-1 .... ....|G#4 .... ....
....|.E|G#4 .... ....|F#3 .... ....|G#4 .... ....
....|.E|G#4 .... ....|A-2 .... ....|G#4 .... ....
....|.E|G#4 .... ....|D#2 .... ....|G#4 .... ....
....|.E|G#4 .... ....|D#2 .... ....|G#4 .... ....
....|.E|G#4 ..3. ....|D#2 ..3. ....|G#4 ..3. ....
....|.E|G#4 .... ....|E-1 .... ....|G#4 .... ....
....|.E|G#4 ..3. ....|F#3 .... ....|G#4 ..3. ....
....|.E|G#4 .... ....|A-2 .... ....|G#4 .... ....
....|.E|G#4 .... ....|D#2 .... ....|G#4 .... ....
....|.E|G#4 .... ....|D#2 .... ....|G#4 .... ....
....|.E|G#4 .... ....|D#2 ..3. ....|G#4 .... ....
....|.E|G#4 .... ....|E-1 .... ....|G#4 .... ....
....|.E|G#4 ..3. ....|F#3 .... ....|G#4 ..3. ....
....|.E|G#4 .... ....|A-2 .... ....|G#4 .... ....
....|.E|G#4 ..3. ....|D#2 .... ....|G#4 ..3. ....
....|.E|G#4 .... ....|D#2 .... ....|G#4 .... ....
....|.E|G#4 .... ....|D#2 ..3. ....|G#4 .... ....
....|.E|G#4 .... ....|E-1 .... ....|G#4 .... ....
....|.E|G#4 .... ....|F#3 .... ....|G#4 .... ....
....|.E|G#4 .... ....|A-2 .... ....|G#4 .... ....
....|.E|G#4 ..3. ....|D#2 .... ....|G#4 ..3. ....
....|.E|G#4 .... ....|D#2 .... ....|G#4 .... ....
....|.E|G#4 ..3. ....|D#2 ..3. ....|G#4 ..3. ....
....|.E|G#4 .... ....|E-1 .... ....|G#4 .... ....
....|.E|G#4 .... ....|F#3 .... ....|G#4 .... ....
....|.E|G#4 .... ....|A-2 .... ....|G#4 .... ....
....|.E|G#4 .... ....|D#2 .... ....|G#4 .... ....
....|.E|G#4 .... ....|D#2 .... ....|G#4 .... ....
....|.E|G#4 ..3. ....|D#2 ..3. ....|G#4 ..3. ....
....|.E|G#4 .... ....|E-1 .... ....|G#4 .... ....
....|.E|G#4 ..3. ....|F#3 .... ....|G#4 ..3. ....
....|.E|G#4 .... ....|A-2 .... ....|G#4 .... ....
....|.E|G#4 .... ....|D#2 .... ....|G#4 .... ....
....|.E|G#4 .... ....|D#2 .... ....|G#4 .... ....
....|.E|G#4 .... ....|D#2 ..3. ....|G#4 .... ....
....|.E|G#4 .... ....|E-1 .... ....|G#4 .... ....
....|.E|G#4 ..3. ....|F#3 .... ....|G#4 ..3. ....
....|.E|G#4 ..6. ....|A-2 .... ....|G#4 ..6. ....
....|.E|G#4 ..3. ....|D#2 .... ....|G#4 ..3. ....
....|.E|G#4 .... ....|D#2 .... ....|G#4 .... ....
....|.E|G#4 .... ....|D#2 ..3. ....|G#4 .... ....
....|.E|G#4 .... ....|E-1 .... ....|G#4 .... ....
....|.E|G#4 .... ....|F#3 .... ....|G#4 .... ....
....|.E|G#4 .... ....|A-2 .... ....|G#4 .... ....
....|.E|G#4 ..3. ....|D#2 .... ....|G#4 ..3. ....
....|.E|G#4 ..5. ....|D#2 .... ....|G#4 ..5. ....
....|.E|G#4 ..3. ....|D#2 ..3. ....|G#4 ..3. ....
....|.E|G#4 .... ....|E-1 ..C. ....|G#4 .... ....
....|.E|G#4 .... ....|F#3 .... ....|G#4 .... ....
....|.E|G#4 .... ....|A-2 .... ....|G#4 .... ....
....|18|G#4 .... ....|D#2 .... ....|G#4 .... ....
....|.E|G#4 .... ....|D#2 .... ....|G#4 .... ....
....|.E|G#4 ..3. ....|D#2 ..3. ....|G#4 ..3. ....
....|.E|G#4 .... ....|E-1 .... ....|G#4 .... ....
....|.E|G#4 ..2. ....|F#3 .... ....|G#4 ..2. ....
....|.E|G#4 .... ....|A-2 .... ....|G#4 .... ....
....|.E|G#4 .... ....|D#2 .... ....|G#4 .... ....
....|.E|G#4 .... ....|D#2 .... ....|G#4 .... ....
....|.E|G#4 .... ....|D#2 ..3. ....|G#4 .... ....

[Pattern32]
....|.E|G#4 .... ....|G#4 .... ....|G#4 .... ....
....|.E|G#4 .... ....|G#4 .... ....|G#4 .... ....
....|.E|G#4 .... ....|D-1 .... ....|G#4 ..6. ....
....|.E|G#4 ..1. ....|G#4 .... ....|G#4 .... ....
....|.E|G#4 ..1. ....|G#4 .... ....|G#4 .... ....
....|.E|G#4 .... ....|G#4 .... ....|G#4 .... ....
....|14|G#4 ..1. ....|G#4 ..3. ....|G#4 ..5. ....
....|.E|G#4 .... ....|G#4 ..1. ....|G#4 .... ....
....|.E|D-1 .... ....|G#4 .... ....|G#4 ..3. ....
....|.E|G#4 .... ....|G#4 .... ....|G#4 .... ....
....|.E|G#4 .... ....|G#4 .... ....|G#4 ..6. ....
....|.E|G#4 .... ....|D-1 .... ....|G#4 .... ....
....|.E|G#4 ..3. ....|G#4 .... ....|G#4 ..3. ....
....|.E|G#4 ..1. ....|G#4 .... ....|G#4 .... ....
....|19|G#4 .... ....|G#4 .... ....|G#4 ..4. ....
....|.E|G#4 .... ....|G#4 ..7. ....|G#4 .... ....
....|.E|G#4 .... ....|G#4 ..1. ....|G#4 ..3. ....
....|.E|D-1 .... ....|G#4 .... ....|G#4 ..3. ....
....|.E|G#4 .... ....|G#4 ..7. ....|G#4 ..6. ....
....|.E|G#4 .... ....|G#4 .... ....|G#4 .... ....
....|.E|G#4 .... ....|G#4 .... ....|G#4 .... ....
....|.E|G#4 ..7. ....|G#4 .... ....|G#4 .... ....
....|14|G#4 ..1. ....|G#4 .... ....|G#4 ..5. ....
....|.E|G#4 .... ....|G#4 ..3. ....|G#4 .... ....
....|.E|G#4 ..7. ....|G#4 ..1. ....|G#4 ..3. ....
....|.E|G#4 .... ....|G#4 .... ....|G#4 ..4. ....
....|.E|G#4 .... ....|G#4 .... ....|G#4 ..6. ....
....|.E|G#4 .... ....|G#4 .... ....|G#4 .... ....
....|.E|G#4 .... ....|D-1 .... ....|G#4 ..3. ....
....|.E|G#4 ..3. ....|G#4 .... ....|G#4 .... ....
....|19|G#4 ..1. ....|G#4 .... ....|G#4 ..4. ....
....|.E|G#4 .... ....|G#4 .... ....|G#4 .... ....
....|.E|G#4 .... ....|G#4 ..1. ....|G#4 ..3. ....
....|.E|G#4 .... ....|G#4 ..1. ....|G#4 .... ....
....|.E|D-1 .... ....|G#4 .... ....|G#4 ..6. ....
....|.E|G#4 .... ....|G#4 ..1. ....|G#4 .... ....
....|.E|G#4 .... ....|G#4 .... ....|G#4 .... ....
....|.E|G#4 .... ....|G#4 .... ....|G#4 .... ....
....|14|G#4 ..1. ....|G#4 .... ....|G#4 ..5. ....
....|.E|G#4 ..1. ....|G#4 .... ....|G#4 .... ....
....|.E|G#4 .... ....|G#4 ..3. ....|G#4 ..3. ....
....|.E|G#4 ..1. ....|G#4 ..1. ....|G#4 .... ....
....|.E|G#4 .... ....|G#4 .... ....|G#4 ..6. ....
....|.E|G#4 .... ....|G#4 .... ....|G#4 .... ....
....|.E|G#4 .... ....|G#4 .... ....|G#4 ..3. ....
....|.E|G#4 .... ....|D-1 .... ....|G#4 .... ....
....|19|G#4 ..3. ....|G#4 .... ....|G#4 ..4. ....
....|.E|G#4 ..1. ....|G#4 .... ....|G#4 .... ....
....|.E|G#4 .... ....|G#4 .... ....|G#4 ..3. ....
....|.E|G#4 .... ....|G#4 ..6. ....|G#4 ..3. ....
....|.E|G#4 .... ....|G#4 ..1. ....|G#4 ..6. ....
....|.E|D-1 .... ....|G#4 .... ....|G#4 .... ....
....|.E|G#4 .... ....|G#4 ..6. ....|G#4 .... ....
....|.E|G#4 .... ....|G#4 .... ....|G#4 .... ....
....|14|G#4 .... ....|D-1 .... ....|G#4 ..5. ....
....|.E|G#4 ..6. ....|G#4 .... ....|G#4 .... ....
....|.E|G#4 ..1. ....|G#4 .... ....|G#4 ..3. ....
....|.E|G#4 .... ....|G#4 .... ....|G#4 .... ....
....|.E|G#4 ..6. ....|G#4 ..3. ....|G#4 ..6. ....
....|.E|G#4 .... ....|G#4 ..1. ....|G#4 .... ....
....|.E|D-1 .... ....|G#4 .... ....|G#4 ..3. ....
....|.E|G#4 .... ....|G#4 .... ....|G#4 .... ....
....|19|G#4 .... ....|G#4 .... ....|G#4 ..4. ....
....|.E|G#4 .... ....|G#4 .... ....|G#4 .... ....
....|.E|G#4 ..3. ....|G#4 .... ....|G#4 ..3. ....
....|.E|G#4 ..1. ....|G#4 .... ....|G#4 ..4. ....
....|.E|G#4 .... ....|G#4 ..1. ....|G#4 ..6. ....
....|.E|G#4 .... ....|G#4 ..1. ....|G#4 .... ....
....|.E|G#4 .... ....|G#4 .... ....|G#4 .... ....
....|.E|G#4 .... ....|G#4 ..1. ....|G#4 .... ....
....|14|G#4 .... ....|G#4 .... ....|G#4 ..5. ....
....|.E|G#4 .... ....|D-1 .... ....|G#4 .... ....
....|.E|G#4 ..1. ....|G#4 .... ....|G#4 ..3. ....
....|.E|G#4 ..1. ....|G#4 .... ....|G#4 .... ....
....|.E|G#4 .... ....|G#4 .... ....|G#4 ..6. ....
....|.E|G#4 ..1. ....|G#4 ..3. ....|G#4 .... ....
....|.E|G#4 .... ....|G#4 ..1. ....|G#4 ..3. ....
....|.E|D-1 .... ....|G#4 .... ....|G#4 .... ....
....|.E|G#4 .... ....|G#4 .... ....|B-1 .... ....
....|.E|G#4 .... ....|G#4 .... ....|C-1 .... ....
....|.E|G#4 .... ....|D-1 .... ....|F-2 .... ....
....|.E|G#4 ..3. ....|G#4 .... ....|C-4 .... ....
....|.E|G#4 ..1. ....|G#4 .... ....|C-4 .... ....
....|.E|G#4 .... ....|G#4 .... ....|A-2 .... ....
....|.E|G#4 .... ....|G#4 ..6. ....|A#3 .... ....
....|.E|G#4 .... ....|G#4 ..1. ....|F#3 .... ....
....|13|D-1 .... ....|G#4 .... ....|C#2 .... ....
....|18|G#4 .... ....|G#4 ..6. ....|G#4 ..3. ....
....|.E|G#4 .... ....|G#4 .... ....|G#4 .... ....
....|.E|G#4 .... ....|G#4 .... ....|G#4 ..3. ....
....|.E|G#4 ..6. ....|G#4 .... ....|G#4 ..5. ....
....|.E|G#4 ..1. ....|G#4 .... ....|G#4 ..7. ....
....|.E|G#4 .... ....|G#4 ..3. ....|G#4 .... ....
....|.E|G#4 ..6. ....|G#4 ..1. ....|G#4 .... ....
....|.E|G#4 .... ....|G#4 .... ....|G#4 .... ....
....|16|G#4 .... ....|G#4 .... ....|G#4 .... ....
....|.E|G#4 .... ....|G#4 .... ....|G#4 .... ....
....|.E|G#4 .... ....|D-1 .... ....|G#4 ..3. ....
....|.E|G#4 ..3. ....|G#4 .... ....|G#4 .... ....
....|.E|G#4 ..1. ....|G#4 .... ....|G#4 ..7. ....
....|.E|G#4 .... ....|G#4 .... ....|G#4 .... ....
....|.E|G#4 .... ....|G#4 ..7. ....|G#4 ..3. ....
....|.E|G#4 .... ....|G#4 ..7. ....|G#4 .... ....
....|18|D-1 .... ....|G#4 .... ....|G#4 ..3. ....
....|.E|G#4 .... ....|G#4 ..7. ....|G#4 .... ....
....|.E|G#4 .... ....|G#4 .... ....|G#4 ..3. ....
....|.E|G#4 .... ....|G#4 .... ....|G#4 .... ....
....|.E|G#4 ..7. ....|G#4 .... ....|G#4 ..7. ....
....|.E|G#4 ..7. ....|G#4 .... ....|G#4 .... ....
....|.E|G#4 .... ....|G#4 ..3. ....|G#4 .... ....
....|.E|G#4 ..7. ....|G#4 ..7. ....|G#4 .... ....
....|16|G#4 .... ....|G#4 .... ....|G#4 .... ....
....|.E|G#4 .... ....|G#4 .... ....|G#4 .... ....
....|.E|G#4 .... ....|G#4 .... ....|G#4 ..3. ....
....|.E|G#4 .... ....|D-1 .... ....|G#4 .... ....
....|.E|G#4 ..3. ....|G#4 .... ....|G#4 ..7. ....
....|.E|G#4 ..7. ....|G#4 .... ....|G#4 .... ....
....|.E|G#4 .... ....|G#4 .... ....|G#4 ..3. ....
....|.E|G#4 .... ....|G#4 ..5. ....|G#4 .... ....
....|18|G#4 .... ....|G#4 ..7. ....|G#4 ..3. ....
....|.E|D-1 .... ....|G#4 .... ....|G#4 .... ....
....|.E|G#4 .... ....|G#4 ..5. ....|G#4 ..3. ....
....|.E|G#4 .... ....|G#4 .... ....|G#4 .... ....
....|.E|G#4 .... ....|D-1 .... ....|G#4 ..7. ....
....|.E|G#4 ..5. ....|G#4 .... ....|G#4 .... ....
....|.E|G#4 ..7. ....|G#4 .... ....|G#4 .... ....
....|.E|G#4 .... ....|G#4 .... ....|G#4 .... ....
....|16|G#4 ..5. ....|G#4 ..3. ....|G#4 .... ....
....|.E|G#4 .... ....|G#4 ..7. ....|G#4 .... ....
....|.E|D-1 .... ....|G#4 .... ....|G#4 ..3. ....
....|.E|G#4 .... ....|G#4 .... ....|G#4 .... ....
....|.E|G#4 .... ....|G#4 .... ....|G#4 ..7. ....
....|.E|G#4 .... ....|G#4 .... ....|G#4 .... ....
....|.E|G#4 ..3. ....|G#4 .... ....|G#4 ..3. ....
....|.E|G#4 ..7. ....|G#4 .... ....|G#4 .... ....
....|18|G#4 .... ....|G#4 ..7. ....|G#4 ..3. ....
....|.E|G#4 .... ....|G#4 ..7. ....|G#4 .... ....
....|.E|G#4 .... ....|G#4 .... ....|G#4 ..3. ....
....|.E|G#4 .... ....|G#4 ..7. ....|G#4 ..6. ....
....|.E|G#4 .... ....|G#4 .... ....|G#4 ..7. ....
....|.E|G#4 .... ....|D-1 .... ....|G#4 .... ....
....|.E|G#4 ..7. ....|G#4 .... ....|G#4 .... ....
....|.E|G#4 ..7. ....|G#4 .... ....|G#4 .... ....
....|16|G#4 .... ....|G#4 .... ....|G#4 .... ....
....|.E|G#4 ..7. ....|G#4 ..3. ....|G#4 .... ....
....|.E|G#4 .... ....|G#4 ..7. ....|G#4 ..3. ....
....|.E|D-1 .... ....|G#4 .... ....|G#4 .... ....
....|.E|G#4 .... ....|G#4 .... ....|G#4 ..7. ....
....|.E|G#4 .... ....|G#4 .... ....|G#4 .... ....
....|.E|G#4 .... ....|D-1 .... ....|G#4 ..3. ....
....|.E|G#4 ..3. ....|G#4 .... ....|G#4 .... ....
....|18|G#4 ..7. ....|G#4 .... ....|G#4 ..3. ....
....|.E|G#4 .... ....|G#4 .... ....|G#4 .... ....
....|.E|G#4 .... ....|G#4 ..5. ....|G#4 ..3. ....
....|.E|G#4 .... ....|G#4 ..7. ....|G#4 ..4. ....
....|.E|D-1 .... ....|G#4 .... ....|G#4 ..7. ....
....|.E|G#4 .... ....|G#4 ..5. ....|G#4 .... ....
....|.E|G#4 .... ....|G#4 .... ....|G#4 .... ....
....|.E|G#4 .... ....|G#4 .... ....|G#4 .... ....
....|16|G#4 ..5. ....|G#4 .... ....|G#4 .... ....
....|.E|G#4 ..7. ....|G#4 .... ....|G#4 .... ....
....|.E|G#4 .... ....|G#4 ..3. ....|G#4 ..3. ....
....|.E|G#4 ..5. ....|G#4 ..7. ....|G#4 .... ....
....|.E|G#4 .... ....|G#4 .... ....|G#4 ..7. ....
....|.E|G#4 .... ....|G#4 .... ....|G#4 .... ....
....|.E|G#4 .... ....|G#4 .... ....|G#4 ..3. ....
....|.E|G#4 .... ....|D-1 .... ....|G#4 .... ....
....|18|G#4 ..3. ....|B-1 .... ....|G#4 ..3. ....
....|.E|G#4 ..7. ....|C-1 .... ....|G#4 .... ....
....|.E|G#4 .... ....|F-2 .... ....|G#4 ..3. ....
....|.E|G#4 .... ....|C-4 .... ....|G#4 .... ....
....|.E|G#4 .... ....|C-4 .... ....|G#4 ..7. ....
....|.E|D-1 .... ....|A-2 .... ....|G#4 .... ....
....|.E|B-1 .... ....|A#3 .... ....|G#4 .... ....
....|.E|C-1 .... ....|F#3 .... ....|G#4 .... ....
....|16|F-2 .... ....|C#2 .... ....|G#4 .... ....
....|.E|C-4 .... ....|G#4 .... ....|G#4 .... ....
....|.E|C-4 .... ....|G#4 .... ....|G#4 ..3. ....
....|.E|A-2 .... ....|G#4 ..3. ....|G#4 .... ....
....|.E|A#3 .... ....|G#4 ..7. ....|G#4 ..7. ....
....|.E|F#3 .... ....|G#4 ..2. ....|G#4 .... ....
....|.E|C#2 .... ....|G#4 .... ....|G#4 ..3. ....
....|.E|G#4 .... ....|G#4 .... ....|G#4 .... ....
....|.E|G#4 .... ....|G#4 .... ....|G#4 ..1. ....
....|.E|G#4 ..3. ....|G#4 .... ....|G#4 .... ....
....|.E|G#4 ..7. ....|G#4 .... ....|G#4 ..3. ....
....|.E|G#4 ..2. ....|G#4 ..3. ....|G#4 ..3. ....
....|.E|G#4 .... ....|D-1 .... ....|G#4 ..4. ....
....|.E|G#4 .... ....|G#4 .... ....|G#4 .... ....
....|.E|G#4 .... ....|G#4 ..6. ....|G#4 .... ....
....|.E|G#4 .... ....|G#4 .... ....|G#4 .... ....
....|19|G#4 .... ....|G#4 .... ....|G#4 ..4. ....
....|.E|G#4 ..3. ....|G#4 .... ....|G#4 .... ....
....|.E|D-1 .... ....|G#4 .... ....|G#4 ..3. ....
....|.E|G#4 .... ....|G#4 .... ....|G#4 .... ....
....|.E|G#4 ..6. ....|G#4 ..3. ....|G#4 ..6. ....
....|.E|G#4 .... ....|G#4 .... ....|G#4 .... ....
....|.E|G#4 .... ....|G#4 ..3. ....|G#4 .... ....
....|.E|G#4 .... ....|G#4 .... ....|G#4 .... ....
....|16|G#4 .... ....|G#4 .... ....|G#4 ..1. ....
....|.E|G#4 .... ....|G#4 .... ....|G#4 .... ....
....|.E|G#4 ..3. ....|G#4 .... ....|G#4 ..3. ....
....|.E|G#4 .... ....|G#4 .... ....|G#4 ..2. ....
....|.E|G#4 ..3. ....|G#4 ..3. ....|G#4 ..5. ....
....|.E|G#4 .... ....|G#4 .... ....|G#4 .... ....
....|.E|G#4 .... ....|G#4 ..3. ....|G#4 .... ....
....|.E|G#4 .... ....|G#4 .... ....|G#4 .... ....
....|18|G#4 .... ....|G#4 .... ....|G#4 ..3. ....
....|.E|G#4 .... ....|G#4 .... ....|G#4 .... ....
....|.E|G#4 ..3. ....|G#4 .... ....|G#4 ..3. ....
....|.E|G#4 .... ....|G#4 .... ....|G#4 .... ....
....|.E|G#4 ..3. ....|G#4 ..3. ....|G#4 ..7. ....
....|.E|G#4 .... ....|G#4 .... ....|G#4 .... ....
....|.E|G#4 .... ....|G#4 ..3. ....|G#4 .... ....
....|.E|G#4 .... ....|G#4 .... ....|G#4 .... ....
....|.E|G#4 .... ....|G#4 .... ....|B-1 .... ....
....|.E|G#4 .... ....|G#4 .... ....|C-1 .... ....
....|.E|G#4 ..3. ....|G#4 .... ....|F-2 .... ....
....|.E|G#4 .... ....|G#4 .... ....|C-4 .... ....
....|.E|G#4 ..3. ....|G#4 ..3. ....|C-4 .... ....
....|.E|G#4 .... ....|G#4 .... ....|A-2 .... ....
....|.E|G#4 .... ....|G#4 ..3. ....|A#3 .... ....
....|.E|G#4 .... ....|G#4 .... ....|F#3 .... ....
....|14|G#4 .... ....|G#4 .... ....|C#2 .... ....
....|.E|G#4 .... ....|G#4 .... ....|G#4 ..1. ....
....|.E|G#4 ..3. ....|G#4 .... ....|G#4 .... ....
....|.E|G#4 .... ....|G#4 .... ....|G#4 ..3. ....
....|.E|G#4 ..3. ....|G#4 ..3. ....|G#4 ..6. ....
....|.E|G#4 .... ....|G#4 ..6. ....|G#4 ..4. ....
....|.E|G#4 .... ....|G#4 ..3. ....|G#4 .... ....
....|.E|G#4 .... ....|G#4 .... ....|G#4 .... ....
....|.E|G#4 .... ....|G#4 .... ....|G#4 .... ....
....|15|G#4 .... ....|G#4 .... ....|G#4 ..4. ....
....|.E|G#4 ..3. ....|G#4 .... ....|G#4 .... ....
....|.E|G#4 ..6. ....|G#4 .... ....|G#4 ..3. ....
....|.E|G#4 ..3. ....|G#4 ..3. ....|G#4 .... ....
....|.E|G#4 .... ....|G#4 ..5. ....|G#4 ..4. ....
....|.E|G#4 .... ....|G#4 ..3. ....|G#4 .... ....
....|.E|G#4 .... ....|G#4 .... ....|G#4 ..3. ....
....|.E|G#4 .... ....|G#4 .... ....|G#4 .... ....
....|.E|G#4 .... ....|G#4 .... ....|G#4 ..1. ....
....|.E|G#4 ..3. ....|G#4 .... ....|G#4 .... ....
....|.E|G#4 ..5. ....|G#4 .... ....|G#4 ..3. ....
....|.E|G#4 ..3. ....|G#4 ..3. ....|G#4 .... ....
....|.E|G#4 .... ....|G#4 .... ....|G#4 ..4. ....
....|.E|G#4 .... ....|G#4 ..2. ....|G#4 .... ....
....|.E|G#4 .... ....|G#4 .... ....|G#4 .... ....
....|.E|G#4 .... ....|G#4 .... ....|G#4 .... ....
....|15|G#4 .... ....|G#4 .... ....|G#4 ..4. ....
....|.E|G#4 ..3. ....|G#4 .... ....|G#4 .... ....
....|.E|G#4 .... ....|G#4 .... ....|G#4 ..3. ....
....|.E|G#4 ..2. ....|G#4 ..3. ....|G#4 .... ....
....|.E|G#4 .... ....|G#4 .... ....|G#4 ..4. ....
....|.E|G#4 .... ....|G#4 ..6. ....|G#4 .... ....
....|.E|G#4 .... ....|G#4 .... ....|G#4 ..3. ....
....|.E|G#4 .... ....|G#4 .... ....|G#4 .... ....

[Pattern33]
....|.E|G#4 .... ....|G#4 .... ....|G#4 .... ....
....|.E|G#4 .... ....|G#4 .... ....|G#4 .... ....
....|.E|D-1 .... ....|G#4 .... ....|G#4 .... ....
....|.E|G#4 .... ....|G#4 ..3. ....|G#4 ..1. ....
....|.E|G#4 .... ....|G#4 .... ....|G#4 ..1. ....
....|.E|G#4 .... ....|G#4 .... ....|G#4 .... ....
....|.E|G#4 ..7. ....|G#4 .... ....|G#4 ..1. ....
....|.E|G#4 ..1. ....|G#4 .... ....|G#4 .... ....
....|.E|G#4 .... ....|G#4 .... ....|D-1 .... ....
....|.E|G#4 ..7. ....|G#4 .... ....|G#4 .... ....
....|.E|G#4 .... ....|G#4 .... ....|G#4 .... ....
....|.E|D-1 .... ....|G#4 ..7. ....|G#4 .... ....
....|.E|G#4 .... ....|G#4 .... ....|G#4 ..3. ....
....|.E|G#4 .... ....|G#4 .... ....|G#4 ..1. ....
....|.E|G#4 .... ....|G#4 ..7. ....|G#4 .... ....
....|.E|G#4 ..3. ....|G#4 .... ....|G#4 .... ....
....|.E|G#4 ..1. ....|G#4 .... ....|G#4 .... ....
....|.E|G#4 .... ....|G#4 .... ....|D-1 .... ....
....|.E|G#4 .... ....|G#4 .... ....|G#4 .... ....
....|.E|G#4 .... ....|G#4 ..3. ....|G#4 .... ....
....|.E|G#4 .... ....|G#4 .... ....|G#4 .... ....
....|.E|G#4 .... ....|G#4 .... ....|G#4 ..7. ....
....|.E|G#4 .... ....|G#4 .... ....|G#4 ..1. ....
....|.E|G#4 ..1. ....|G#4 .... ....|G#4 .... ....
....|.E|G#4 ..1. ....|G#4 .... ....|G#4 ..7. ....
....|.E|G#4 .... ....|G#4 .... ....|G#4 .... ....
....|.E|G#4 ..1. ....|G#4 .... ....|G#4 .... ....
....|.E|G#4 .... ....|G#4 ..2. ....|G#4 .... ....
....|.E|D-1 .... ....|G#4 ..3. ....|G#4 .... ....
....|.E|G#4 .... ....|G#4 .... ....|G#4 ..3. ....
....|.E|G#4 .... ....|G#4 ..2. ....|G#4 ..1. ....
....|.E|G#4 .... ....|G#4 .... ....|G#4 .... ....
....|.E|G#4 ..3. ....|G#4 .... ....|G#4 .... ....
....|.E|G#4 ..1. ....|G#4 .... ....|G#4 .... ....
....|.E|G#4 .... ....|G#4 .... ....|D-1 .... ....
....|.E|G#4 .... ....|G#4 ..3. ....|G#4 .... ....
....|.E|G#4 .... ....|G#4 .... ....|G#4 .... ....
....|.E|D-1 .... ....|G#4 .... ....|G#4 .... ....
....|.E|G#4 .... ....|G#4 .... ....|G#4 ..1. ....
....|.E|G#4 .... ....|G#4 .... ....|G#4 ..1. ....
....|.E|G#4 .... ....|G#4 .... ....|G#4 .... ....
....|.E|G#4 ..7. ....|G#4 .... ....|G#4 ..1. ....
....|.E|G#4 ..1. ....|G#4 .... ....|G#4 .... ....
....|.E|G#4 .... ....|G#4 ..7. ....|G#4 .... ....
....|.E|G#4 ..7. ....|G#4 .... ....|G#4 .... ....
....|.E|G#4 .... ....|G#4 .... ....|G#4 .... ....
....|.E|G#4 .... ....|G#4 ..7. ....|G#4 ..3. ....
....|.E|G#4 .... ....|G#4 .... ....|G#4 ..1. ....
....|.E|G#4 .... ....|G#4 .... ....|G#4 .... ....
....|.E|G#4 ..3. ....|G#4 .... ....|G#4 .... ....
....|.E|G#4 ..1. ....|G#4 .... ....|G#4 .... ....
....|.E|G#4 .... ....|G#4 ..3. ....|D-1 .... ....
....|.E|G#4 .... ....|G#4 .... ....|G#4 .... ....
....|.E|G#4 .... ....|G#4 .... ....|G#4 .... ....
....|.E|D-1 .... ....|G#4 .... ....|G#4 .... ....
....|.E|G#4 .... ....|G#4 .... ....|G#4 ..6. ....
....|.E|G#4 .... ....|G#4 .... ....|G#4 ..1. ....
....|.E|G#4 .... ....|G#4 .... ....|G#4 .... ....
....|.E|G#4 ..1. ....|G#4 .... ....|G#4 ..6. ....
....|.E|G#4 ..1. ....|G#4 ..3. ....|G#4 .... ....
....|.E|G#4 .... ....|G#4 ..4. ....|D-1 .... ....
....|.E|G#4 ..1. ....|G#4 .... ....|G#4 .... ....
....|.E|G#4 .... ....|G#4 ..3. ....|G#4 .... ....
....|.E|G#4 .... ....|G#4 .... ....|G#4 .... ....
....|.E|G#4 .... ....|G#4 .... ....|G#4 ..3. ....
....|.E|G#4 .... ....|G#4 .... ....|G#4 ..1. ....
....|.E|G#4 ..3. ....|G#4 .... ....|G#4 .... ....
....|.E|G#4 ..1. ....|G#4 ..3. ....|G#4 .... ....
....|.E|G#4 .... ....|G#4 .... ....|G#4 .... ....
....|.E|G#4 .... ....|G#4 .... ....|G#4 .... ....
....|.E|G#4 .... ....|G#4 .... ....|G#4 .... ....
....|.E|D-1 .... ....|G#4 .... ....|G#4 .... ....
....|.E|G#4 .... ....|G#4 .... ....|G#4 ..1. ....
....|.E|G#4 .... ....|G#4 .... ....|G#4 ..1. ....
....|.E|G#4 .... ....|G#4 .... ....|G#4 .... ....
....|.E|G#4 ..6. ....|G#4 ..6. ....|G#4 ..1. ....
....|.E|G#4 ..1. ....|G#4 .... ....|G#4 .... ....
....|.E|G#4 .... ....|G#4 .... ....|D-1 .... ....
....|.E|G#4 ..6. ....|G#4 ..6. ....|G#4 .... ....
....|.E|G#4 .... ....|G#4 .... ....|G#4 .... ....
....|.E|D-1 .... ....|G#4 .... ....|G#4 .... ....
....|.E|G#4 .... ....|G#4 .... ....|G#4 ..3. ....
....|.E|G#4 .... ....|G#4 .... ....|G#4 ..1. ....
....|.E|G#4 .... ....|G#4 ..3. ....|G#4 .... ....
....|.E|G#4 ..3. ....|G#4 .... ....|G#4 .... ....
....|.E|G#4 ..1. ....|G#4 .... ....|G#4 .... ....
....|.E|G#4 .... ....|G#4 .... ....|D-1 .... ....
....|.E|G#4 .... ....|G#4 .... ....|G#4 .... ....
....|.E|G#4 .... ....|G#4 .... ....|G#4 .... ....
....|.E|G#4 .... ....|G#4 .... ....|G#4 .... ....
....|.E|G#4 .... ....|G#4 .... ....|G#4 ..6. ....
....|.E|G#4 .... ....|G#4 ..4. ....|G#4 ..1. ....
....|.E|G#4 ..1. ....|G#4 ..5. ....|G#4 .... ....
....|.E|G#4 ..1. ....|G#4 .... ....|G#4 ..6. ....
....|.E|G#4 .... ....|G#4 ..4. ....|G#4 .... ....
....|.E|G#4 ..1. ....|G#4 .... ....|G#4 .... ....
....|.E|G#4 .... ....|G#4 .... ....|G#4 .... ....
....|.E|D-1 .... ....|G#4 .... ....|G#4 .... ....
....|.E|G#4 .... ....|G#4 .... ....|G#4 ..3. ....
....|.E|G#4 .... ....|G#4 ..3. ....|G#4 ..1. ....
....|.E|G#4 .... ....|G#4 .... ....|G#4 .... ....
....|.E|G#4 ..3. ....|G#4 .... ....|G#4 .... ....
....|.E|G#4 ..1. ....|G#4 .... ....|G#4 .... ....
....|.E|G#4 .... ....|G#4 .... ....|D-1 .... ....
....|.E|G#4 .... ....|G#4 .... ....|G#4 .... ....
....|.E|G#4 .... ....|G#4 .... ....|G#4 .... ....
....|.E|D-1 .... ....|G#4 .... ....|G#4 .... ....
....|.E|G#4 .... ....|G#4 ..6. ....|G#4 ..7. ....
....|.E|G#4 .... ....|G#4 .... ....|G#4 ..7. ....
....|.E|G#4 .... ....|G#4 .... ....|G#4 .... ....
....|.E|G#4 ..6. ....|G#4 ..6. ....|G#4 ..7. ....
....|.E|G#4 ..1. ....|G#4 .... ....|G#4 .... ....
....|.E|G#4 .... ....|G#4 .... ....|G#4 .... ....
....|.E|G#4 ..6. ....|G#4 .... ....|G#4 .... ....
....|.E|G#4 .... ....|G#4 .... ....|G#4 .... ....
....|.E|G#4 .... ....|G#4 ..3. ....|G#4 ..3. ....
....|.E|G#4 .... ....|G#4 .... ....|G#4 ..7. ....
....|.E|G#4 .... ....|G#4 .... ....|G#4 .... ....
....|.E|G#4 ..3. ....|G#4 .... ....|G#4 .... ....
....|.E|G#4 ..1. ....|G#4 .... ....|G#4 .... ....
....|.E|G#4 .... ....|G#4 .... ....|D-1 .... ....
....|.E|G#4 .... ....|G#4 .... ....|G#4 .... ....
....|.E|G#4 .... ....|G#4 .... ....|G#4 .... ....
....|.E|D-1 .... ....|G#4 ..5. ....|G#4 .... ....
....|.E|G#4 .... ....|G#4 ..6. ....|G#4 ..5. ....
....|.E|G#4 .... ....|G#4 .... ....|G#4 ..7. ....
....|.E|G#4 .... ....|G#4 ..5. ....|G#4 .... ....
....|.E|G#4 ..7. ....|G#4 .... ....|G#4 ..5. ....
....|.E|G#4 ..7. ....|G#4 .... ....|G#4 .... ....
....|.E|G#4 .... ....|G#4 .... ....|D-1 .... ....
....|.E|G#4 ..7. ....|G#4 .... ....|G#4 .... ....
....|.E|G#4 .... ....|G#4 ..3. ....|G#4 .... ....
....|.E|G#4 .... ....|G#4 .... ....|G#4 .... ....
....|.E|G#4 .... ....|G#4 .... ....|G#4 ..3. ....
....|.E|G#4 .... ....|G#4 .... ....|G#4 ..7. ....
....|.E|G#4 ..3. ....|G#4 .... ....|G#4 .... ....
....|.E|G#4 ..7. ....|G#4 .... ....|G#4 .... ....
....|.E|G#4 .... ....|G#4 .... ....|G#4 .... ....
....|.E|G#4 .... ....|G#4 .... ....|G#4 .... ....
....|.E|G#4 .... ....|G#4 ..5. ....|G#4 .... ....
....|.E|D-1 .... ....|G#4 .... ....|G#4 .... ....
....|.E|G#4 .... ....|G#4 .... ....|G#4 ..7. ....
....|.E|G#4 .... ....|G#4 ..5. ....|G#4 ..7. ....
....|.E|G#4 .... ....|G#4 .... ....|G#4 .... ....
....|.E|G#4 ..5. ....|G#4 .... ....|G#4 ..7. ....
....|.E|G#4 ..7. ....|G#4 .... ....|G#4 .... ....
....|.E|G#4 .... ....|G#4 .... ....|D-1 .... ....
....|.E|G#4 ..5. ....|G#4 ..3. ....|G#4 .... ....
....|.E|G#4 .... ....|G#4 .... ....|G#4 .... ....
....|.E|D-1 .... ....|G#4 .... ....|G#4 .... ....
....|.E|G#4 .... ....|G#4 .... ....|G#4 ..3. ....
....|.E|G#4 .... ....|G#4 .... ....|G#4 ..7. ....
....|.E|G#4 .... ....|G#4 .... ....|G#4 .... ....
....|.E|G#4 ..3. ....|G#4 .... ....|G#4 .... ....
....|.E|G#4 ..7. ....|G#4 .... ....|G#4 .... ....
....|.E|G#4 .... ....|G#4 ..7. ....|D-1 .... ....
....|.E|G#4 .... ....|G#4 .... ....|G#4 .... ....
....|.E|G#4 .... ....|G#4 .... ....|G#4 .... ....
....|.E|G#4 .... ....|G#4 ..7. ....|G#4 .... ....
....|.E|G#4 .... ....|G#4 .... ....|G#4 ..5. ....
....|.E|G#4 .... ....|G#4 .... ....|G#4 ..7. ....
....|.E|G#4 ..7. ....|G#4 .... ....|G#4 .... ....
....|.E|G#4 ..7. ....|G#4 .... ....|G#4 ..5. ....
....|.E|G#4 .... ....|G#4 ..3. ....|G#4 .... ....
....|.E|G#4 ..7. ....|G#4 .... ....|G#4 .... ....
....|.E|G#4 .... ....|G#4 .... ....|G#4 .... ....
....|.E|D-1 .... ....|G#4 .... ....|G#4 .... ....
....|.E|G#4 .... ....|G#4 .... ....|G#4 ..3. ....
....|.E|G#4 .... ....|G#4 .... ....|G#4 ..7. ....
....|.E|G#4 .... ....|G#4 .... ....|G#4 .... ....
....|.E|G#4 ..3. ....|G#4 .... ....|G#4 .... ....
....|.E|G#4 ..7. ....|G#4 ..5. ....|G#4 .... ....
....|.E|G#4 .... ....|G#4 .... ....|D-1 .... ....
....|.E|G#4 .... ....|G#4 .... ....|B-1 .... ....
....|.E|G#4 .... ....|G#4 ..5. ....|C-1 .... ....
....|.E|D-1 .... ....|G#4 .... ....|F-2 .... ....
....|.E|G#4 .... ....|G#4 .... ....|C-4 .... ....
....|.E|G#4 .... ....|G#4 .... ....|C-4 .... ....
....|.E|G#4 .... ....|G#4 .... ....|A-2 .... ....
....|.E|G#4 ..5. ....|G#4 ..3. ....|A#3 .... ....
....|.E|G#4 ..7. ....|G#4 .... ....|F#3 .... ....
....|12|G#4 .... ....|G#4 .... ....|C#2 .... ....
....|18|G#4 ..5. ....|G#4 .... ....|G#4 .... ....
....|.E|G#4 .... ....|G#4 .... ....|G#4 .... ....
....|.E|G#4 .... ....|B-1 .... ....|G#4 ..3. ....
....|.E|G#4 .... ....|C-1 .... ....|G#4 ..7. ....
....|.E|G#4 .... ....|F-2 .... ....|G#4 ..2. ....
....|.E|G#4 ..3. ....|C-4 .... ....|G#4 .... ....
....|.E|G#4 ..7. ....|C-4 .... ....|G#4 .... ....
....|.E|G#4 .... ....|A-2 .... ....|G#4 .... ....
....|.E|G#4 .... ....|A#3 .... ....|G#4 .... ....
....|.E|G#4 .... ....|F#3 .... ....|G#4 .... ....
....|.E|D-1 .... ....|C#2 .... ....|G#4 ..3. ....
....|.E|B-1 .... ....|G#4 .... ....|D-1 .... ....
....|.E|C-1 .... ....|G#4 .... ....|G#4 .... ....
....|.E|F-2 .... ....|G#4 .... ....|G#4 ..6. ....
....|.E|C-4 .... ....|G#4 ..2. ....|G#4 .... ....
....|.E|C-4 .... ....|G#4 ..6. ....|G#4 .... ....
....|.E|A-2 .... ....|G#4 .... ....|G#4 .... ....
....|.E|A#3 .... ....|G#4 ..5. ....|G#4 .... ....
....|.E|F#3 .... ....|G#4 .... ....|G#4 .... ....
....|.E|C#2 .... ....|G#4 .... ....|G#4 ..3. ....
....|.E|G#4 .... ....|G#4 .... ....|G#4 .... ....
....|.E|G#4 .... ....|G#4 .... ....|G#4 ..3. ....
....|.E|G#4 ..3. ....|G#4 ..3. ....|G#4 .... ....
....|.E|G#4 ..7. ....|G#4 ..3. ....|G#4 .... ....
....|.E|G#4 ..2. ....|G#4 .... ....|G#4 .... ....
....|.E|G#4 .... ....|G#4 .... ....|G#4 .... ....
....|.E|G#4 .... ....|G#4 .... ....|G#4 .... ....
....|.E|G#4 .... ....|D-1 .... ....|G#4 ..3. ....
....|.E|G#4 .... ....|G#4 .... ....|G#4 .... ....
....|.E|G#4 .... ....|G#4 .... ....|G#4 ..3. ....
....|.E|G#4 ..3. ....|G#4 .... ....|G#4 .... ....
....|.E|D-1 .... ....|G#4 ..7. ....|G#4 .... ....
....|.E|G#4 .... ....|G#4 ..3. ....|G#4 .... ....
....|.E|G#4 ..6. ....|G#4 .... ....|G#4 .... ....
....|.E|G#4 .... ....|G#4 ..7. ....|G#4 .... ....
....|.E|G#4 .... ....|G#4 .... ....|G#4 ..3. ....
....|.E|G#4 .... ....|D-1 .... ....|G#4 .... ....
....|.E|G#4 .... ....|G#4 .... ....|G#4 ..3. ....
....|.E|G#4 .... ....|G#4 .... ....|G#4 .... ....
....|.E|G#4 ..3. ....|G#4 .... ....|G#4 .... ....
....|.E|G#4 .... ....|G#4 ..3. ....|G#4 .... ....
....|.E|G#4 ..3. ....|G#4 ..3. ....|G#4 .... ....
....|.E|G#4 .... ....|G#4 .... ....|G#4 .... ....
....|.E|G#4 .... ....|G#4 .... ....|G#4 ..3. ....
....|.E|G#4 .... ....|G#4 .... ....|G#4 .... ....
....|.E|G#4 .... ....|G#4 .... ....|G#4 ..3. ....
....|.E|G#4 .... ....|G#4 .... ....|G#4 .... ....
....|.E|G#4 ..3. ....|G#4 .... ....|G#4 .... ....
....|.E|G#4 .... ....|G#4 ..3. ....|G#4 .... ....
....|.E|G#4 ..3. ....|G#4 ..3. ....|G#4 .... ....
....|.E|G#4 .... ....|G#4 .... ....|G#4 .... ....
....|.E|G#4 .... ....|G#4 ..3. ....|G#4 ..3. ....
....|.E|G#4 .... ....|G#4 .... ....|G#4 ..6. ....
....|.E|G#4 .... ....|D-1 .... ....|G#4 ..3. ....
....|.E|G#4 .... ....|G#4 .... ....|G#4 .... ....
....|.E|G#4 ..3. ....|G#4 .... ....|G#4 .... ....
....|.E|G#4 .... ....|G#4 .... ....|G#4 .... ....
....|.E|G#4 ..3. ....|G#4 ..3. ....|G#4 .... ....
....|.E|G#4 .... ....|G#4 ..3. ....|G#4 .... ....
....|.E|G#4 .... ....|G#4 .... ....|G#4 ..3. ....
....|.E|G#4 .... ....|G#4 .... ....|G#4 ..5. ....
....|.E|G#4 .... ....|G#4 .... ....|G#4 ..3. ....
....|.E|G#4 .... ....|D-1 .... ....|G#4 .... ....
....|.E|G#4 ..3. ....|G#4 .... ....|G#4 .... ....
....|.E|G#4 .... ....|G#4 .... ....|G#4 .... ....
....|18|G#4 ..3. ....|G#4 .... ....|G#4 .... ....
....|.E|G#4 .... ....|G#4 ..7. ....|G#4 .... ....
....|.E|G#4 .... ....|G#4 ..3. ....|G#4 ..3. ....
....|.E|G#4 .... ....|G#4 .... ....|G#4 .... ....
....|.E|G#4 .... ....|G#4 ..7. ....|G#4 ..2. ....
....|.E|G#4 .... ....|G#4 .... ....|G#4 .... ....
....|.E|G#4 ..3. ....|G#4 .... ....|G#4 .... ....
....|.E|G#4 ..6. ....|G#4 .... ....|G#4 .... ....
....|.E|G#4 ..3. ....|G#4 .... ....|G#4 .... ....

[Pattern36]
....|.E|G#4 .... ....|G#4 .... ....|G#4 .... ....
....|.E|G#4 .... ....|G#4 .... ....|G#4 .... ....
....|.E|G#4 .... ....|G#4 .... ....|G#4 .... ....
....|.E|G#4 ..1. ....|G#4 ..1. ....|G#4 .... ....
....|.E|G#4 ..1. ....|G#4 ..1. ....|G#4 ..1. ....
....|.E|G#4 .... ....|G#4 .... ....|G#4 ..1. ....
....|.E|G#4 ..1. ....|G#4 ..1. ....|G#4 .... ....
....|.E|G#4 .... ....|G#4 .... ....|G#4 ..1. ....
....|.E|D-1 .... ....|D-1 .... ....|G#4 .... ....
....|.E|G#4 .... ....|G#4 .... ....|D-1 .... ....
....|.E|G#4 .... ....|G#4 .... ....|G#4 .... ....
....|.E|G#4 .... ....|G#4 .... ....|G#4 .... ....
....|.E|G#4 ..3. ....|G#4 ..3. ....|G#4 .... ....
....|.E|G#4 ..1. ....|G#4 ..1. ....|G#4 ..3. ....
....|.E|G#4 .... ....|G#4 .... ....|G#4 ..1. ....
....|.E|G#4 .... ....|G#4 .... ....|G#4 .... ....
....|.E|G#4 .... ....|G#4 .... ....|G#4 .... ....
....|.E|D-1 .... ....|D-1 .... ....|G#4 .... ....
....|.E|G#4 .... ....|G#4 .... ....|D-1 .... ....
....|.E|G#4 .... ....|G#4 .... ....|G#4 .... ....
....|.E|G#4 .... ....|G#4 .... ....|G#4 .... ....
....|.E|G#4 ..7. ....|G#4 ..7. ....|G#4 .... ....
....|.E|G#4 ..1. ....|G#4 ..1. ....|G#4 ..7. ....
....|.E|G#4 .... ....|G#4 .... ....|G#4 ..1. ....
....|.E|G#4 ..7. ....|G#4 ..7. ....|G#4 .... ....
....|.E|G#4 .... ....|G#4 .... ....|G#4 ..7. ....
....|.E|G#4 .... ....|G#4 .... ....|G#4 .... ....
....|.E|G#4 .... ....|G#4 .... ....|G#4 .... ....
....|.E|G#4 .... ....|G#4 .... ....|G#4 .... ....
....|.E|G#4 ..3. ....|G#4 ..3. ....|G#4 .... ....
....|.E|G#4 ..1. ....|G#4 ..1. ....|G#4 ..3. ....
....|.E|G#4 .... ....|G#4 .... ....|G#4 ..1. ....
....|.E|G#4 .... ....|G#4 .... ....|G#4 .... ....
....|.E|G#4 .... ....|G#4 .... ....|G#4 .... ....
....|.E|D-1 .... ....|D-1 .... ....|G#4 .... ....
....|.E|G#4 .... ....|G#4 .... ....|D-1 .... ....
....|.E|G#4 .... ....|G#4 .... ....|G#4 .... ....
....|.E|G#4 .... ....|G#4 .... ....|G#4 .... ....
....|.E|G#4 ..1. ....|G#4 ..1. ....|G#4 .... ....
....|.E|G#4 ..1. ....|G#4 ..1. ....|G#4 ..1. ....
....|.E|G#4 .... ....|G#4 .... ....|G#4 ..1. ....
....|.E|G#4 ..1. ....|G#4 ..1. ....|G#4 .... ....
....|.E|G#4 .... ....|G#4 .... ....|G#4 ..1. ....
....|.E|G#4 .... ....|G#4 .... ....|G#4 .... ....
....|.E|G#4 .... ....|G#4 .... ....|G#4 .... ....
....|.E|G#4 .... ....|G#4 .... ....|G#4 .... ....
....|.E|G#4 ..3. ....|G#4 ..3. ....|G#4 .... ....
....|.E|G#4 ..1. ....|G#4 ..1. ....|G#4 ..3. ....
....|.E|G#4 .... ....|G#4 .... ....|G#4 ..1. ....
....|.E|G#4 .... ....|G#4 .... ....|G#4 .... ....
....|.E|G#4 .... ....|G#4 .... ....|G#4 .... ....
....|.E|D-1 .... ....|D-1 .... ....|G#4 .... ....
....|.E|G#4 .... ....|G#4 .... ....|D-1 .... ....
....|.E|G#4 .... ....|G#4 .... ....|G#4 .... ....
....|.E|G#4 .... ....|G#4 .... ....|G#4 .... ....
....|.E|G#4 ..6. ....|G#4 ..6. ....|G#4 .... ....
....|.E|G#4 ..1. ....|G#4 ..1. ....|G#4 ..6. ....
....|.E|G#4 .... ....|G#4 .... ....|G#4 ..1. ....
....|.E|G#4 ..6. ....|G#4 ..6. ....|G#4 .... ....
....|.E|G#4 .... ....|G#4 .... ....|G#4 ..6. ....
....|.E|D-1 .... ....|D-1 .... ....|G#4 .... ....
....|.E|G#4 .... ....|G#4 .... ....|D-1 .... ....
....|.E|G#4 .... ....|G#4 .... ....|G#4 .... ....
....|.E|G#4 .... ....|G#4 .... ....|G#4 .... ....
....|.E|G#4 ..3. ....|G#4 ..3. ....|G#4 .... ....
....|.E|G#4 ..1. ....|G#4 ..1. ....|G#4 ..3. ....
....|.E|G#4 .... ....|G#4 .... ....|G#4 ..1. ....
....|.E|G#4 .... ....|G#4 .... ....|G#4 .... ....
....|.E|G#4 .... ....|G#4 .... ....|G#4 .... ....
....|.E|G#4 .... ....|G#4 .... ....|G#4 .... ....
....|.E|G#4 .... ....|G#4 .... ....|G#4 .... ....
....|.E|G#4 .... ....|G#4 .... ....|G#4 .... ....
....|.E|G#4 ..1. ....|G#4 ..1. ....|G#4 .... ....
....|.E|G#4 ..1. ....|G#4 ..1. ....|G#4 ..1. ....
....|.E|G#4 .... ....|G#4 .... ....|G#4 ..1. ....
....|.E|G#4 ..1. ....|G#4 ..1. ....|G#4 .... ....
....|.E|G#4 .... ....|G#4 .... ....|G#4 ..1. ....
....|.E|D-1 .... ....|D-1 .... ....|G#4 .... ....
....|.E|G#4 .... ....|G#4 .... ....|D-1 .... ....
....|.E|G#4 .... ....|G#4 .... ....|G#4 .... ....
....|.E|G#4 .... ....|G#4 .... ....|G#4 .... ....
....|.E|G#4 ..3. ....|G#4 ..3. ....|G#4 .... ....
....|.E|G#4 ..1. ....|G#4 ..1. ....|G#4 ..3. ....
....|.E|G#4 .... ....|G#4 .... ....|G#4 ..1. ....
....|.E|G#4 .... ....|G#4 .... ....|G#4 .... ....
....|.E|G#4 .... ....|G#4 .... ....|G#4 .... ....
....|.E|D-1 .... ....|D-1 .... ....|G#4 .... ....
....|.E|G#4 .... ....|G#4 .... ....|D-1 .... ....
....|.E|G#4 .... ....|G#4 .... ....|G#4 .... ....
....|.E|G#4 .... ....|G#4 .... ....|G#4 .... ....
....|.E|G#4 ..6. ....|G#4 ..6. ....|G#4 .... ....
....|.E|G#4 ..1. ....|G#4 ..1. ....|G#4 ..6. ....
....|.E|G#4 .... ....|G#4 .... ....|G#4 ..1. ....
....|.E|G#4 ..6. ....|G#4 ..6. ....|G#4 .... ....
....|.E|G#4 .... ....|G#4 .... ....|G#4 ..6. ....
....|.E|G#4 .... ....|G#4 .... ....|G#4 .... ....
....|.E|G#4 .... ....|G#4 .... ....|G#4 .... ....
....|.E|G#4 .... ....|G#4 .... ....|G#4 .... ....
....|.E|G#4 ..3. ....|G#4 ..3. ....|G#4 .... ....
....|.E|G#4 ..1. ....|G#4 ..1. ....|G#4 ..3. ....
....|.E|G#4 .... ....|G#4 .... ....|G#4 ..1. ....
....|.E|G#4 .... ....|G#4 .... ....|G#4 .... ....
....|.E|G#4 .... ....|G#4 .... ....|G#4 .... ....
....|.E|D-1 .... ....|D-1 .... ....|G#4 .... ....
....|.E|G#4 .... ....|G#4 .... ....|D-1 .... ....
....|.E|G#4 .... ....|G#4 .... ....|G#4 .... ....
....|.E|G#4 .... ....|G#4 .... ....|G#4 .... ....
....|.E|G#4 ..7. ....|G#4 ..7. ....|G#4 .... ....
....|.E|G#4 ..7. ....|G#4 ..7. ....|G#4 ..7. ....
....|.E|G#4 .... ....|G#4 .... ....|G#4 ..7. ....
....|.E|G#4 ..7. ....|G#4 ..7. ....|G#4 .... ....
....|.E|G#4 .... ....|G#4 .... ....|G#4 ..7. ....
....|.E|G#4 .... ....|G#4 .... ....|G#4 .... ....
....|.E|G#4 .... ....|G#4 .... ....|G#4 .... ....
....|.E|G#4 .... ....|G#4 .... ....|G#4 .... ....
....|.E|G#4 ..3. ....|G#4 ..3. ....|G#4 .... ....
....|.E|G#4 ..7. ....|G#4 ..7. ....|G#4 ..3. ....
....|.E|G#4 .... ....|G#4 .... ....|G#4 ..7. ....
....|.E|G#4 .... ....|G#4 .... ....|G#4 .... ....
....|.E|G#4 .... ....|G#4 .... ....|G#4 .... ....
....|.E|D-1 .... ....|D-1 .... ....|G#4 .... ....
....|.E|G#4 .... ....|G#4 .... ....|D-1 .... ....
....|.E|G#4 .... ....|G#4 .... ....|G#4 .... ....
....|.E|G#4 .... ....|G#4 .... ....|G#4 .... ....
....|.E|G#4 ..5. ....|G#4 ..5. ....|G#4 .... ....
....|.E|G#4 ..7. ....|G#4 ..7. ....|G#4 ..5. ....
....|.E|G#4 .... ....|G#4 .... ....|G#4 ..7. ....
....|.E|G#4 ..5. ....|G#4 ..5. ....|G#4 .... ....
....|.E|G#4 .... ....|G#4 .... ....|G#4 ..5. ....
....|.E|D-1 .... ....|D-1 .... ....|G#4 .... ....
....|.E|G#4 .... ....|G#4 .... ....|D-1 .... ....
....|.E|G#4 .... ....|G#4 .... ....|G#4 .... ....
....|.E|G#4 .... ....|G#4 .... ....|G#4 .... ....
....|.E|G#4 ..3. ....|G#4 ..3. ....|G#4 .... ....
....|.E|G#4 ..7. ....|G#4 ..7. ....|G#4 ..3. ....
....|.E|G#4 .... ....|G#4 .... ....|G#4 ..7. ....
....|.E|G#4 .... ....|G#4 .... ....|G#4 .... ....
....|.E|G#4 .... ....|G#4 .... ....|G#4 .... ....
....|.E|G#4 .... ....|G#4 .... ....|G#4 .... ....
....|.E|G#4 .... ....|G#4 .... ....|G#4 .... ....
....|.E|G#4 .... ....|G#4 .... ....|G#4 .... ....
....|.E|G#4 ..7. ....|G#4 ..7. ....|G#4 .... ....
....|.E|G#4 ..7. ....|G#4 ..7. ....|G#4 ..7. ....
....|.E|G#4 .... ....|G#4 .... ....|G#4 ..7. ....
....|.E|G#4 ..7. ....|G#4 ..7. ....|G#4 .... ....
....|.E|G#4 .... ....|G#4 .... ....|G#4 ..7. ....
....|.E|D-1 .... ....|D-1 .... ....|G#4 .... ....
....|.E|G#4 .... ....|G#4 .... ....|D-1 .... ....
....|.E|G#4 .... ....|G#4 .... ....|G#4 .... ....
....|.E|G#4 .... ....|G#4 .... ....|G#4 .... ....
....|.E|G#4 ..3. ....|G#4 ..3. ....|G#4 .... ....
....|.E|G#4 ..7. ....|G#4 ..7. ....|G#4 ..3. ....
....|.E|G#4 .... ....|G#4 .... ....|G#4 ..7. ....
....|.E|G#4 .... ....|G#4 .... ....|G#4 .... ....
....|.E|G#4 .... ....|G#4 .... ....|G#4 .... ....
....|.E|D-1 .... ....|D-1 .... ....|G#4 .... ....
....|.E|G#4 .... ....|G#4 .... ....|D-1 .... ....
....|.E|G#4 .... ....|G#4 .... ....|G#4 .... ....
....|.E|G#4 .... ....|G#4 .... ....|G#4 .... ....
....|.E|G#4 ..5. ....|G#4 ..5. ....|G#4 .... ....
....|.E|G#4 ..7. ....|G#4 ..7. ....|G#4 ..5. ....
....|.E|G#4 .... ....|G#4 .... ....|G#4 ..7. ....
....|.E|G#4 ..5. ....|G#4 ..5. ....|G#4 .... ....
....|.E|G#4 .... ....|G#4 .... ....|G#4 ..5. ....
....|.E|G#4 .... ....|G#4 .... ....|G#4 .... ....
....|.E|G#4 .... ....|G#4 .... ....|G#4 .... ....
....|.E|G#4 .... ....|G#4 .... ....|G#4 .... ....
....|.E|G#4 ..3. ....|G#4 ..3. ....|G#4 .... ....
....|.E|G#4 ..7. ....|G#4 ..7. ....|G#4 ..3. ....
....|.E|G#4 .... ....|G#4 .... ....|G#4 ..7. ....
....|.E|G#4 .... ....|G#4 .... ....|G#4 .... ....
....|.E|G#4 .... ....|G#4 .... ....|G#4 .... ....
....|.E|D-1 .... ....|D-1 .... ....|G#4 .... ....
....|.E|B-1 .... ....|B-1 .... ....|D-1 .... ....
....|.E|C-1 .... ....|C-1 .... ....|B-1 .... ....
....|.E|F-2 .... ....|F-2 .... ....|C-1 .... ....
....|.E|C-4 .... ....|C-4 .... ....|F-2 .... ....
....|.E|C-4 .... ....|C-4 .... ....|C-4 .... ....
....|.E|A-2 .... ....|A-2 .... ....|C-4 .... ....
....|.E|A#3 .... ....|A#3 .... ....|A-2 .... ....
....|.E|F#3 .... ....|F#3 .... ....|A#3 .... ....
....|12|C#2 .... ....|C#2 .... ....|F#3 .... ....
....|12|G#4 .... ....|G#4 .... ....|C#2 .... ....
....|18|G#4 .... ....|G#4 .... ....|G#4 .... ....
....|.E|G#4 ..3. ....|G#4 ..3. ....|G#4 .... ....
....|.E|G#4 ..7. ....|G#4 ..7. ....|G#4 ..3. ....
....|.E|G#4 ..2. ....|G#4 ..2. ....|G#4 ..7. ....
....|.E|G#4 .... ....|G#4 .... ....|G#4 ..2. ....
....|.E|G#4 .... ....|G#4 .... ....|G#4 .... ....
....|.E|G#4 .... ....|G#4 .... ....|G#4 .... ....
....|.E|G#4 .... ....|G#4 .... ....|G#4 .... ....
....|.E|G#4 .... ....|G#4 .... ....|G#4 .... ....
....|.E|G#4 ..3. ....|G#4 ..3. ....|G#4 .... ....
....|.E|D-1 .... ....|D-1 .... ....|G#4 ..3. ....
....|.E|G#4 .... ....|G#4 .... ....|D-1 .... ....
....|.E|G#4 ..6. ....|G#4 ..6. ....|G#4 .... ....
....|.E|G#4 .... ....|G#4 .... ....|G#4 ..6. ....
....|.E|G#4 .... ....|G#4 .... ....|G#4 .... ....
....|.E|G#4 .... ....|G#4 .... ....|G#4 .... ....
....|.E|G#4 .... ....|G#4 .... ....|G#4 .... ....
....|.E|G#4 .... ....|G#4 .... ....|G#4 .... ....
....|.E|G#4 ..3. ....|G#4 ..3. ....|G#4 .... ....
....|.E|G#4 .... ....|G#4 .... ....|G#4 ..3. ....
....|.E|G#4 ..3. ....|G#4 ..3. ....|G#4 .... ....
....|.E|G#4 .... ....|G#4 .... ....|G#4 ..3. ....
....|.E|G#4 .... ....|G#4 .... ....|G#4 .... ....
....|.E|G#4 .... ....|G#4 .... ....|G#4 .... ....
....|.E|G#4 .... ....|G#4 .... ....|G#4 .... ....
....|.E|G#4 .... ....|G#4 .... ....|G#4 .... ....
....|.E|G#4 ..3. ....|G#4 ..3. ....|G#4 .... ....
....|.E|G#4 .... ....|G#4 .... ....|G#4 ..3. ....
....|.E|G#4 ..3. ....|G#4 ..3. ....|G#4 .... ....
....|.E|G#4 .... ....|G#4 .... ....|G#4 ..3. ....
....|.E|G#4 .... ....|G#4 .... ....|G#4 .... ....
....|.E|G#4 .... ....|G#4 .... ....|G#4 .... ....
....|.E|G#4 .... ....|G#4 .... ....|G#4 .... ....
....|.E|G#4 .... ....|G#4 .... ....|G#4 .... ....
....|.E|G#4 ..3. ....|G#4 ..3. ....|G#4 .... ....
....|.E|G#4 .... ....|G#4 .... ....|G#4 ..3. ....
....|.E|G#4 ..3. ....|G#4 ..3. ....|G#4 .... ....
....|.E|G#4 .... ....|G#4 .... ....|G#4 ..3. ....
....|.E|G#4 .... ....|G#4 .... ....|G#4 .... ....
....|.E|G#4 .... ....|G#4 .... ....|G#4 .... ....
....|.E|G#4 .... ....|G#4 .... ....|G#4 .... ....
....|.E|G#4 .... ....|G#4 .... ....|G#4 .... ....
....|.E|G#4 ..3. ....|G#4 ..3. ....|G#4 .... ....
....|.E|G#4 .... ....|G#4 .... ....|G#4 ..3. ....
....|.E|G#4 ..3. ....|G#4 ..3. ....|G#4 .... ....
....|.E|G#4 .... ....|G#4 .... ....|G#4 ..3. ....
....|.E|G#4 .... ....|G#4 .... ....|G#4 .... ....
....|.E|G#4 .... ....|G#4 .... ....|G#4 .... ....
....|.E|G#4 .... ....|G#4 .... ....|G#4 .... ....
....|.E|G#4 .... ....|G#4 .... ....|G#4 .... ....
....|.E|G#4 ..3. ....|G#4 ..3. ....|G#4 .... ....
....|.E|G#4 ..6. ....|G#4 ..6. ....|G#4 ..3. ....
....|.E|G#4 ..3. ....|G#4 ..3. ....|G#4 ..6. ....
....|.E|G#4 .... ....|G#4 .... ....|G#4 ..3. ....
....|.E|G#4 .... ....|G#4 .... ....|G#4 .... ....
....|.E|G#4 .... ....|G#4 .... ....|G#4 .... ....
....|.E|G#4 .... ....|G#4 .... ....|G#4 .... ....
....|.E|G#4 .... ....|G#4 .... ....|G#4 .... ....
....|.E|G#4 ..3. ....|G#4 ..3. ....|G#4 .... ....
....|.E|G#4 ..5. ....|G#4 ..5. ....|G#4 ..3. ....
....|.E|G#4 ..3. ....|G#4 ..3. ....|G#4 ..5. ....
....|.E|G#4 .... ....|G#4 .... ....|G#4 ..3. ....
....|.E|G#4 .... ....|G#4 .... ....|G#4 .... ....
....|.E|G#4 .... ....|G#4 .... ....|G#4 .... ....
....|.E|G#4 .... ....|G#4 .... ....|G#4 .... ....
....|18|G#4 .... ....|G#4 .... ....|G#4 .... ....
....|.E|G#4 ..3. ....|G#4 ..3. ....|G#4 .... ....
....|.E|G#4 .... ....|G#4 .... ....|G#4 ..3. ....
....|.E|G#4 ..2. ....|G#4 ..2. ....|G#4 .... ....
....|.E|G#4 .... ....|G#4 .... ....|G#4 ..2. ....
....|.E|G#4 .... ....|G#4 .... ....|G#4 .... ....
....|.E|G#4 .... ....|G#4 .... ....|G#4 .... ....
....|.E|G#4 .... ....|G#4 .... ....|G#4 .... ....

[Pattern38]
....|.E|G#4 .... ....|G#4 .... ....|G#4 .... ....
....|.E|G#4 .... ....|G#4 .... ....|G#4 .... ....
....|.E|G#4 .... ....|G#4 .... ....|G#4 .... ....
....|.E|G#4 ..3. ....|G#4 ..1. ....|G#4 ..1. ....
....|.E|G#4 .... ....|G#4 ..1. ....|G#4 ..1. ....
....|.E|G#4 .... ....|G#4 .... ....|G#4 .... ....
....|.E|G#4 .... ....|G#4 ..1. ....|G#4 ..1. ....
....|.E|G#4 .... ....|G#4 .... ....|G#4 .... ....
....|.E|G#4 .... ....|D-1 .... ....|D-1 .... ....
....|.E|G#4 .... ....|G#4 .... ....|G#4 .... ....
....|.E|G#4 .... ....|G#4 .... ....|G#4 .... ....
....|.E|G#4 ..7. ....|G#4 .... ....|G#4 .... ....
....|.E|G#4 .... ....|G#4 ..3. ....|G#4 ..3. ....
....|.E|G#4 .... ....|G#4 ..1. ....|G#4 ..1. ....
....|.E|G#4 ..7. ....|G#4 .... ....|G#4 .... ....
....|.E|G#4 .... ....|G#4 .... ....|G#4 .... ....
....|.E|G#4 .... ....|G#4 .... ....|G#4 .... ....
....|.E|G#4 .... ....|D-1 .... ....|D-1 .... ....
....|.E|G#4 .... ....|G#4 .... ....|G#4 .... ....
....|.E|G#4 ..3. ....|G#4 .... ....|G#4 .... ....
....|.E|G#4 .... ....|G#4 .... ....|G#4 .... ....
....|.E|G#4 .... ....|G#4 ..7. ....|G#4 ..7. ....
....|.E|G#4 .... ....|G#4 ..1. ....|G#4 ..1. ....
....|.E|G#4 .... ....|G#4 .... ....|G#4 .... ....
....|.E|G#4 .... ....|G#4 ..7. ....|G#4 ..7. ....
....|.E|G#4 .... ....|G#4 .... ....|G#4 .... ....
....|.E|G#4 .... ....|G#4 .... ....|G#4 .... ....
....|.E|G#4 ..2. ....|G#4 .... ....|G#4 .... ....
....|.E|G#4 ..3. ....|G#4 .... ....|G#4 .... ....
....|.E|G#4 .... ....|G#4 ..3. ....|G#4 ..3. ....
....|.E|G#4 ..2. ....|G#4 ..1. ....|G#4 ..1. ....
....|.E|G#4 .... ....|G#4 .... ....|G#4 .... ....
....|.E|G#4 .... ....|G#4 .... ....|G#4 .... ....
....|.E|G#4 .... ....|G#4 .... ....|G#4 .... ....
....|.E|G#4 .... ....|D-1 .... ....|D-1 .... ....
....|.E|G#4 ..3. ....|G#4 .... ....|G#4 .... ....
....|.E|G#4 .... ....|G#4 .... ....|G#4 .... ....
....|.E|G#4 .... ....|G#4 .... ....|G#4 .... ....
....|.E|G#4 .... ....|G#4 ..1. ....|G#4 ..1. ....
....|.E|G#4 .... ....|G#4 ..1. ....|G#4 ..1. ....
....|.E|G#4 .... ....|G#4 .... ....|G#4 .... ....
....|.E|G#4 .... ....|G#4 ..1. ....|G#4 ..1. ....
....|.E|G#4 .... ....|G#4 .... ....|G#4 .... ....
....|.E|G#4 ..7. ....|G#4 .... ....|G#4 .... ....
....|.E|G#4 .... ....|G#4 .... ....|G#4 .... ....
....|.E|G#4 .... ....|G#4 .... ....|G#4 .... ....
....|.E|G#4 ..7. ....|G#4 ..3. ....|G#4 ..3. ....
....|.E|G#4 .... ....|G#4 ..1. ....|G#4 ..1. ....
....|.E|G#4 .... ....|G#4 .... ....|G#4 .... ....
....|.E|G#4 .... ....|G#4 .... ....|G#4 .... ....
....|.E|G#4 .... ....|G#4 .... ....|G#4 .... ....
....|.E|G#4 ..3. ....|D-1 .... ....|D-1 .... ....
....|.E|G#4 .... ....|G#4 .... ....|G#4 .... ....
....|.E|G#4 .... ....|G#4 .... ....|G#4 .... ....
....|.E|G#4 .... ....|G#4 .... ....|G#4 .... ....
....|.E|G#4 .... ....|G#4 ..6. ....|G#4 ..6. ....
....|.E|G#4 .... ....|G#4 ..1. ....|G#4 ..1. ....
....|.E|G#4 .... ....|G#4 .... ....|G#4 .... ....
....|.E|G#4 .... ....|G#4 ..6. ....|G#4 ..6. ....
....|.E|G#4 ..3. ....|G#4 .... ....|G#4 .... ....
....|.E|G#4 ..4. ....|D-1 .... ....|D-1 .... ....
....|.E|G#4 .... ....|G#4 .... ....|G#4 .... ....
....|.E|G#4 ..3. ....|G#4 .... ....|G#4 .... ....
....|.E|G#4 .... ....|G#4 .... ....|G#4 .... ....
....|.E|G#4 .... ....|G#4 ..3. ....|G#4 ..3. ....
....|.E|G#4 .... ....|G#4 ..1. ....|G#4 ..1. ....
....|.E|G#4 .... ....|G#4 .... ....|G#4 .... ....
....|.E|G#4 ..3. ....|G#4 .... ....|G#4 .... ....
....|.E|G#4 .... ....|G#4 .... ....|G#4 .... ....
....|.E|G#4 .... ....|G#4 .... ....|G#4 .... ....
....|.E|G#4 .... ....|G#4 .... ....|G#4 .... ....
....|.E|G#4 .... ....|G#4 .... ....|G#4 .... ....
....|.E|G#4 .... ....|G#4 ..1. ....|G#4 ..1. ....
....|.E|G#4 .... ....|G#4 ..1. ....|G#4 ..1. ....
....|.E|G#4 .... ....|G#4 .... ....|G#4 .... ....
....|.E|G#4 ..6. ....|G#4 ..1. ....|G#4 ..1. ....
....|.E|G#4 .... ....|G#4 .... ....|G#4 .... ....
....|.E|G#4 .... ....|D-1 .... ....|D-1 .... ....
....|.E|G#4 ..6. ....|G#4 .... ....|G#4 .... ....
....|.E|G#4 .... ....|G#4 .... ....|G#4 .... ....
....|.E|G#4 .... ....|G#4 .... ....|G#4 .... ....
....|.E|G#4 .... ....|G#4 ..3. ....|G#4 ..3. ....
....|.E|G#4 .... ....|G#4 ..1. ....|G#4 ..1. ....
....|.E|G#4 ..3. ....|G#4 .... ....|G#4 .... ....
....|.E|G#4 .... ....|G#4 .... ....|G#4 .... ....
....|.E|G#4 .... ....|G#4 .... ....|G#4 .... ....
....|.E|G#4 .... ....|D-1 .... ....|D-1 .... ....
....|.E|G#4 .... ....|G#4 .... ....|G#4 .... ....
....|.E|G#4 .... ....|G#4 .... ....|G#4 .... ....
....|.E|G#4 .... ....|G#4 .... ....|G#4 .... ....
....|.E|G#4 .... ....|G#4 ..6. ....|G#4 ..6. ....
....|.E|G#4 ..4. ....|G#4 ..1. ....|G#4 ..1. ....
....|.E|G#4 ..5. ....|G#4 .... ....|G#4 .... ....
....|.E|G#4 .... ....|G#4 ..6. ....|G#4 ..6. ....
....|.E|G#4 ..4. ....|G#4 .... ....|G#4 .... ....
....|.E|G#4 .... ....|G#4 .... ....|G#4 .... ....
....|.E|G#4 .... ....|G#4 .... ....|G#4 .... ....
....|.E|G#4 .... ....|G#4 .... ....|G#4 .... ....
....|.E|G#4 .... ....|G#4 ..3. ....|G#4 ..3. ....
....|.E|G#4 ..3. ....|G#4 ..1. ....|G#4 ..1. ....
....|.E|G#4 .... ....|G#4 .... ....|G#4 .... ....
....|.E|G#4 .... ....|G#4 .... ....|G#4 .... ....
....|.E|G#4 .... ....|G#4 .... ....|G#4 .... ....
....|.E|G#4 .... ....|D-1 .... ....|D-1 .... ....
....|.E|G#4 .... ....|G#4 .... ....|G#4 .... ....
....|.E|G#4 .... ....|G#4 .... ....|G#4 .... ....
....|.E|G#4 .... ....|G#4 .... ....|G#4 .... ....
....|.E|G#4 ..6. ....|G#4 ..7. ....|G#4 ..7. ....
....|.E|G#4 .... ....|G#4 ..7. ....|G#4 ..7. ....
....|.E|G#4 .... ....|G#4 .... ....|G#4 .... ....
....|.E|G#4 ..6. ....|G#4 ..7. ....|G#4 ..7. ....
....|.E|G#4 .... ....|G#4 .... ....|G#4 .... ....
....|.E|G#4 .... ....|G#4 .... ....|G#4 .... ....
....|.E|G#4 .... ....|G#4 .... ....|G#4 .... ....
....|.E|G#4 .... ....|G#4 .... ....|G#4 .... ....
....|.E|G#4 ..3. ....|G#4 ..3. ....|G#4 ..3. ....
....|.E|G#4 .... ....|G#4 ..7. ....|G#4 ..7. ....
....|.E|G#4 .... ....|G#4 .... ....|G#4 .... ....
....|.E|G#4 .... ....|G#4 .... ....|G#4 .... ....
....|.E|G#4 .... ....|G#4 .... ....|G#4 .... ....
....|.E|G#4 .... ....|D-1 .... ....|D-1 .... ....
....|.E|G#4 .... ....|G#4 .... ....|G#4 .... ....
....|.E|G#4 .... ....|G#4 .... ....|G#4 .... ....
....|.E|G#4 ..5. ....|G#4 .... ....|G#4 .... ....
....|.E|G#4 ..6. ....|G#4 ..5. ....|G#4 ..5. ....
....|.E|G#4 .... ....|G#4 ..7. ....|G#4 ..7. ....
....|.E|G#4 ..5. ....|G#4 .... ....|G#4 .... ....
....|.E|G#4 .... ....|G#4 ..5. ....|G#4 ..5. ....
....|.E|G#4 .... ....|G#4 .... ....|G#4 .... ....
....|.E|G#4 .... ....|D-1 .... ....|D-1 .... ....
....|.E|G#4 .... ....|G#4 .... ....|G#4 .... ....
....|.E|G#4 ..3. ....|G#4 .... ....|G#4 .... ....
....|.E|G#4 .... ....|G#4 .... ....|G#4 .... ....
....|.E|G#4 .... ....|G#4 ..3. ....|G#4 ..3. ....
....|.E|G#4 .... ....|G#4 ..7. ....|G#4 ..7. ....
....|.E|G#4 .... ....|G#4 .... ....|G#4 .... ....
....|.E|G#4 .... ....|G#4 .... ....|G#4 .... ....
....|.E|G#4 .... ....|G#4 .... ....|G#4 .... ....
....|.E|G#4 .... ....|G#4 .... ....|G#4 .... ....
....|.E|G#4 ..5. ....|G#4 .... ....|G#4 .... ....
....|.E|G#4 .... ....|G#4 .... ....|G#4 .... ....
....|.E|G#4 .... ....|G#4 ..7. ....|G#4 ..7. ....
....|.E|G#4 ..5. ....|G#4 ..7. ....|G#4 ..7. ....
....|.E|G#4 .... ....|G#4 .... ....|G#4 .... ....
....|.E|G#4 .... ....|G#4 ..7. ....|G#4 ..7. ....
....|.E|G#4 .... ....|G#4 .... ....|G#4 .... ....
....|.E|G#4 .... ....|D-1 .... ....|D-1 .... ....
....|.E|G#4 ..3. ....|G#4 .... ....|G#4 .... ....
....|.E|G#4 .... ....|G#4 .... ....|G#4 .... ....
....|.E|G#4 .... ....|G#4 .... ....|G#4 .... ....
....|.E|G#4 .... ....|G#4 ..3. ....|G#4 ..3. ....
....|.E|G#4 .... ....|G#4 ..7. ....|G#4 ..7. ....
....|.E|G#4 .... ....|G#4 .... ....|G#4 .... ....
....|.E|G#4 .... ....|G#4 .... ....|G#4 .... ....
....|.E|G#4 .... ....|G#4 .... ....|G#4 .... ....
....|.E|G#4 ..7. ....|D-1 .... ....|D-1 .... ....
....|.E|G#4 .... ....|G#4 .... ....|G#4 .... ....
....|.E|G#4 .... ....|G#4 .... ....|G#4 .... ....
....|.E|G#4 ..7. ....|G#4 .... ....|G#4 .... ....
....|.E|G#4 .... ....|G#4 ..5. ....|G#4 ..5. ....
....|.E|G#4 .... ....|G#4 ..7. ....|G#4 ..7. ....
....|.E|G#4 .... ....|G#4 .... ....|G#4 .... ....
....|.E|G#4 .... ....|G#4 ..5. ....|G#4 ..5. ....
....|.E|G#4 ..3. ....|G#4 .... ....|G#4 .... ....
....|.E|G#4 .... ....|G#4 .... ....|G#4 .... ....
....|.E|G#4 .... ....|G#4 .... ....|G#4 .... ....
....|.E|G#4 .... ....|G#4 .... ....|G#4 .... ....
....|.E|G#4 .... ....|G#4 ..3. ....|G#4 ..3. ....
....|.E|G#4 .... ....|G#4 ..7. ....|G#4 ..7. ....
....|.E|G#4 .... ....|G#4 .... ....|G#4 .... ....
....|.E|G#4 .... ....|G#4 .... ....|G#4 .... ....
....|.E|G#4 ..5. ....|G#4 .... ....|G#4 .... ....
....|.E|G#4 .... ....|D-1 .... ....|D-1 .... ....
....|.E|G#4 .... ....|B-1 .... ....|B-1 .... ....
....|.E|G#4 ..5. ....|C-1 .... ....|C-1 .... ....
....|.E|G#4 .... ....|F-2 .... ....|F-2 .... ....
....|.E|G#4 .... ....|C-4 .... ....|C-4 .... ....
....|.E|G#4 .... ....|C-4 .... ....|C-4 .... ....
....|.E|G#4 .... ....|A-2 .... ....|A-2 .... ....
....|.E|G#4 ..3. ....|A#3 .... ....|A#3 .... ....
....|.E|G#4 .... ....|F#3 .... ....|F#3 .... ....
....|12|G#4 .... ....|C#2 .... ....|C#2 .... ....
....|18|G#4 .... ....|G#4 .... ....|G#4 .... ....
....|.E|G#4 .... ....|G#4 .... ....|G#4 .... ....
....|.E|B-1 .... ....|G#4 ..3. ....|G#4 ..3. ....
....|.E|C-1 .... ....|G#4 ..7. ....|G#4 ..7. ....
....|.E|F-2 .... ....|G#4 ..2. ....|G#4 ..2. ....
....|.E|C-4 .... ....|G#4 .... ....|G#4 .... ....
....|.E|C-4 .... ....|G#4 .... ....|G#4 .... ....
....|.E|A-2 .... ....|G#4 .... ....|G#4 .... ....
....|.E|A#3 .... ....|G#4 .... ....|G#4 .... ....
....|.E|F#3 .... ....|G#4 .... ....|G#4 .... ....
....|.E|C#2 .... ....|G#4 ..3. ....|G#4 ..3. ....
....|.E|G#4 .... ....|D-1 .... ....|D-1 .... ....
....|.E|G#4 .... ....|G#4 .... ....|G#4 .... ....
....|.E|G#4 .... ....|G#4 ..6. ....|G#4 ..6. ....
....|.E|G#4 ..2. ....|G#4 .... ....|G#4 .... ....
....|.E|G#4 ..6. ....|G#4 .... ....|G#4 .... ....
....|.E|G#4 .... ....|G#4 .... ....|G#4 .... ....
....|.E|G#4 ..5. ....|G#4 .... ....|G#4 .... ....
....|.E|G#4 .... ....|G#4 .... ....|G#4 .... ....
....|.E|G#4 .... ....|G#4 ..3. ....|G#4 ..3. ....
....|.E|G#4 .... ....|G#4 .... ....|G#4 .... ....
....|.E|G#4 .... ....|G#4 ..3. ....|G#4 ..3. ....
....|.E|G#4 ..3. ....|G#4 .... ....|G#4 .... ....
....|.E|G#4 ..3. ....|G#4 .... ....|G#4 .... ....
....|.E|G#4 .... ....|G#4 .... ....|G#4 .... ....
....|.E|G#4 .... ....|G#4 .... ....|G#4 .... ....
....|.E|G#4 .... ....|G#4 .... ....|G#4 .... ....
....|.E|D-1 .... ....|G#4 ..3. ....|G#4 ..3. ....
....|.E|G#4 .... ....|G#4 .... ....|G#4 .... ....
....|.E|G#4 .... ....|G#4 ..3. ....|G#4 ..3. ....
....|.E|G#4 .... ....|G#4 .... ....|G#4 .... ....
....|.E|G#4 ..7. ....|G#4 .... ....|G#4 .... ....
....|.E|G#4 ..3. ....|G#4 .... ....|G#4 .... ....
....|.E|G#4 .... ....|G#4 .... ....|G#4 .... ....
....|.E|G#4 ..7. ....|G#4 .... ....|G#4 .... ....
....|.E|G#4 .... ....|G#4 ..3. ....|G#4 ..3. ....
....|.E|D-1 .... ....|G#4 .... ....|G#4 .... ....
....|.E|G#4 .... ....|G#4 ..3. ....|G#4 ..3. ....
....|.E|G#4 .... ....|G#4 .... ....|G#4 .... ....
....|.E|G#4 .... ....|G#4 .... ....|G#4 .... ....
....|.E|G#4 ..3. ....|G#4 .... ....|G#4 .... ....
....|.E|G#4 ..3. ....|G#4 .... ....|G#4 .... ....
....|.E|G#4 .... ....|G#4 .... ....|G#4 .... ....
....|.E|G#4 .... ....|G#4 ..3. ....|G#4 ..3. ....
....|.E|G#4 .... ....|G#4 .... ....|G#4 .... ....
....|.E|G#4 .... ....|G#4 ..3. ....|G#4 ..3. ....
....|.E|G#4 .... ....|G#4 .... ....|G#4 .... ....
....|.E|G#4 .... ....|G#4 .... ....|G#4 .... ....
....|.E|G#4 ..3. ....|G#4 .... ....|G#4 .... ....
....|.E|G#4 ..3. ....|G#4 .... ....|G#4 .... ....
....|.E|G#4 .... ....|G#4 .... ....|G#4 .... ....
....|.E|G#4 ..3. ....|G#4 ..3. ....|G#4 ..3. ....
....|.E|G#4 .... ....|G#4 ..6. ....|G#4 ..6. ....
....|.E|D-1 .... ....|G#4 ..3. ....|G#4 ..3. ....
....|.E|G#4 .... ....|G#4 .... ....|G#4 .... ....
....|.E|G#4 .... ....|G#4 .... ....|G#4 .... ....
....|.E|G#4 .... ....|G#4 .... ....|G#4 .... ....
....|.E|G#4 ..3. ....|G#4 .... ....|G#4 .... ....
....|.E|G#4 ..3. ....|G#4 .... ....|G#4 .... ....
....|.E|G#4 .... ....|G#4 ..3. ....|G#4 ..3. ....
....|.E|G#4 .... ....|G#4 ..5. ....|G#4 ..5. ....
....|.E|G#4 .... ....|G#4 ..3. ....|G#4 ..3. ....
....|.E|D-1 .... ....|G#4 .... ....|G#4 .... ....
....|.E|G#4 .... ....|G#4 .... ....|G#4 .... ....
....|.E|G#4 .... ....|G#4 .... ....|G#4 .... ....
....|18|G#4 .... ....|G#4 .... ....|G#4 .... ....
....|.E|G#4 ..7. ....|G#4 .... ....|G#4 .... ....
....|.E|G#4 ..3. ....|G#4 ..3. ....|G#4 ..3. ....
....|.E|G#4 .... ....|G#4 .... ....|G#4 .... ....
....|.E|G#4 ..7. ....|G#4 ..2. ....|G#4 ..2. ....
....|.E|G#4 .... ....|G#4 .... ....|G#4 .... ....
....|.E|G#4 .... ....|G#4 .... ....|G#4 .... ....
....|.E|G#4 .... ....|G#4 .... ....|G#4 .... ....
....|.E|G#4 .... ....|G#4 .... ....|G#4 .... ....

